<svg viewBox="0 0 507.03 350.46" xmlns="http://www.w3.org/2000/svg"><path d="m379 85.84c81 49.71 55.52 134.16 90.2 159.47 44.95 32.78 69.72 168.15-19.8 170.85-178 5.37-408.08 0-408.08 0s-64.68-58.2-26.61-155 136.5-71.56 173-115.13 110.23-109.89 191.29-60.19z" fill="#caf0ff" transform="translate(-2.71 -68.15)"/><path d="m455.29 413.46v-30.67h-13.45v6.13h-4.72v-12.27h-17.22v12.27h-3.77v-9.44h-3.78v-56.61h-4.72v-35.87h-22.88l.24 43.22-15.27.19v-34.6h-23.66v36.78l-7.08.24v-37.09h-8.25v-15.81h-5v-10.61h-19.3v10.61h-5v15.81h-8.25v20.09l-3.81.24-1.15-59.53h-25.43v31.67l-9 .23v-49.44h-3.07v-10.5h-26.86v10.5h-3.07v77.9h-5.66v-32h-4.72v-10.22h-6.84v-29.68h-9.91v29.69h-6.84v10.17h-4.72v35.14h-3.3-2.59v-40.77l-69.83.67v91.8h-5.9v-12h-21.23v23.12h-6.14v-8.5h-13.44v17.23h-13.45v21.94z" fill="#4188e4" opacity=".9" transform="translate(-2.71 -68.15)"/><path d="m331.6 95.16a17.57 17.57 0 0 0 -16.52 11.57 12.05 12.05 0 0 0 -17.91 10.53c0 .4 0 .79.05 1.17h78.47a9.69 9.69 0 0 0 -9.44-7.51 9.38 9.38 0 0 0 -2.44.32 14.28 14.28 0 0 0 -17.16-7.58 17.53 17.53 0 0 0 -15-8.5z" fill="#fff" transform="translate(-2.71 -68.15)"/><path d="m86.28 225.12a5.11 5.11 0 0 1 6.29-3.81 7.54 7.54 0 0 1 9.07-4 9.3 9.3 0 0 1 16.7 1.62 6.38 6.38 0 0 1 9.47 5.58v.62z" fill="#fff" transform="translate(-2.71 -68.15)"/><path d="m228.78 163.56a6.21 6.21 0 0 1 7.61-4.61 9.15 9.15 0 0 1 8.28-5.27 9 9 0 0 1 2.72.41 11.26 11.26 0 0 1 20.23 2 7.72 7.72 0 0 1 11.48 6.75 6.28 6.28 0 0 1 0 .75z" fill="#fff" transform="translate(-2.71 -68.15)"/><path d="m370.29 193.23a6.21 6.21 0 0 1 7.61-4.61 9.14 9.14 0 0 1 8.28-5.27 9 9 0 0 1 2.71.42 11.26 11.26 0 0 1 20.23 2 7.73 7.73 0 0 1 11.48 6.75q0 .39 0 .75z" fill="#fff" transform="translate(-2.71 -68.15)"/><path d="m36 259.2a6.21 6.21 0 0 1 7.61-4.61 9.12 9.12 0 0 1 11-4.85 11.25 11.25 0 0 1 20.22 2 7.74 7.74 0 0 1 11.49 6.75v.75z" fill="#fff" transform="translate(-2.71 -68.15)"/><path d="m128.62 233.57-1.71-1.39c0-.05 1.08-1.34 3.1-3.56l1.63 1.48c-1.96 2.17-3.01 3.46-3.02 3.47z" fill="#fff" transform="translate(-2.71 -68.15)"/><path d="m379.91 227.58c-2.28-2.2-4.61-4.36-6.9-6.43l1.48-1.64c2.31 2.09 4.65 4.27 6.95 6.48zm-241.75-4.26-1.55-1.57c2.22-2.19 4.55-4.39 6.93-6.53l1.48 1.64c-2.36 2.14-4.67 4.29-6.86 6.46zm227.74-8.32c-2.42-2-4.88-4-7.32-5.94l1.36-1.74c2.46 1.92 4.94 3.93 7.38 6zm-213.74-4.25-1.4-1.71c2.44-2 5-4 7.48-5.89l1.33 1.77c-2.5 1.83-4.99 3.79-7.41 5.79zm198.89-7.35c-2.57-1.85-5.18-3.65-7.76-5.35l1.22-1.84c2.6 1.71 5.24 3.53 7.83 5.4zm-183.82-4-1.23-1.83c2.63-1.79 5.32-3.53 8-5.17l1.16 1.88c-2.67 1.62-5.33 3.34-7.93 5.12zm168.08-6.4c-2.71-1.62-5.47-3.17-8.2-4.62l1-2c2.75 1.47 5.55 3 8.29 4.67zm-152-3.47-1.06-1.94c2.8-1.53 5.65-3 8.47-4.35l1 2c-2.86 1.35-5.72 2.76-8.44 4.31zm135.41-5.34c-2.86-1.33-5.76-2.59-8.63-3.73l.82-2c2.9 1.16 5.84 2.43 8.74 3.78zm-118.48-2.79-.85-2c3-1.22 5.94-2.36 8.91-3.4l.72 2.09c-2.92.98-5.88 2.1-8.78 3.31zm101-4.15c-3-1-6-1.89-9-2.68l.57-2.14c3 .81 6.11 1.72 9.13 2.73zm-83.24-2-.6-2.12c3.07-.86 6.18-1.63 9.26-2.29l.46 2.16c-3.04.61-6.12 1.37-9.12 2.22zm65.08-2.76c-3.07-.61-6.19-1.11-9.27-1.51l.28-2.19c3.13.4 6.3.92 9.42 1.53zm-46.72-1.16-.32-2.18c3.15-.46 6.34-.82 9.48-1.07l.18 2.2c-3.11.22-6.25.57-9.35 1.02zm28.1-1.22c-3.11-.19-6.28-.27-9.39-.24v-2.2c3.16 0 6.38.05 9.54.23z" fill="#fff" transform="translate(-2.71 -68.15)"/><path d="m389.87 237.56c-1.07-1.11-2.16-2.24-3.23-3.33l1.57-1.55c1.09 1.1 2.18 2.23 3.25 3.36z" fill="#fff" transform="translate(-2.71 -68.15)"/><path d="m434.11 151.83c-4.43 1.41-8.61 3.53-13.07 4.83a37.87 37.87 0 0 1 -26.63-2.12c-9.24-4.39-16.66-12.53-26.54-15.21-7.2-1.94-14.86-.73-22.28-1.49s-15.58-4.53-17.37-11.77a6.15 6.15 0 0 1 .2-4.13c1.28-2.65 4.79-3.14 7.74-3.27 7.52-.35 15.08-.69 22.54.29 9.5 1.24 19.1 4.61 28.44 2.46 2.85-.65 5.57-1.81 8.4-2.54 6.72-1.73 13.74-1 20.62.25a132.14 132.14 0 0 0 -37.16-33.29q-4.43-2.72-8.83-5c-6 3.8-11.66 8.38-18.21 11.2-9.45 4.07-20.1 4.19-30.38 3.61-6.14-.35-12.9-.75-17.79 3-3.58 2.74-5.43 7.21-8.76 10.24-4 3.67-9.67 4.8-14.95 6.14-6.7 1.7-13.48 4.09-18.53 8.82s-8 12.29-5.51 18.76c3.1 8.22 13 11.46 21.74 12.2 11.19 1 22.71-.4 33.5 2.72 7.33 2.13 13.91 6.21 20.76 9.58 11.84 5.85 24.58 9.63 37.35 13 9.47 2.48 19.14 4.76 28.92 4.48 7.26-.21 14.42-1.83 21.67-2.22 7.7-.41 15.74.51 22.89-2.28a228.43 228.43 0 0 0 -8.76-28.26z" fill="#fff" opacity=".3" transform="translate(-2.71 -68.15)"/><path d="m230 133.42c-1.23-.64-2.71-.39-4.08-.23a30.7 30.7 0 0 1 -14.85-1.9 63.7 63.7 0 0 1 -6.93-3.43c-6.06 6.23-11.55 12.39-16.38 18.15-.85 1-1.74 2-2.66 2.94.89.39 1.78.8 2.64 1.24 2.49 1.27 5.15 3.19 5.31 6s-2.17 4.91-4.49 6.35c-6.34 3.92-14.33 5.56-19.13 11.27-4.24 5-5.43 12.67-11 16.13-2.5 1.54-5.52 2-8.45 2.18-9.75.72-19.95-.5-29 3.26-2 .82-3.86 1.87-5.9 2.55a32.15 32.15 0 0 1 -8.29 1.29 206.33 206.33 0 0 1 -38.33-1.29 119 119 0 0 0 -25.7 19.31l1.66.77c5.66 2.61 11.4 5.26 17.56 6.23 5.67.89 11.46.33 17.18-.24 7-.68 14-1.38 20.66-3.47 7.36-2.3 14.18-6.25 21.69-8 8.27-1.92 16.88-1.09 25.36-.8 11.26.38 22.75-.27 33.36-4.05s20.37-11 25.3-21.14c2.61-5.36 3.93-11.53 8-15.89 4.21-4.51 10.64-6.28 15.24-10.39 6.82-6.09 8.22-17.36 3.11-25a5.34 5.34 0 0 0 -1.88-1.84z" fill="#fff" opacity=".3" transform="translate(-2.71 -68.15)"/><path d="m262.26 195.56h20.59v2.75h-20.59z" fill="#4188e4" opacity=".3"/><g fill="#4188e4" opacity=".2"><path d="m109.43 218.41h8.26v10.7h-8.26z"/><path d="m109.43 252.83h8.26v10.7h-8.26z"/><path d="m122.13 218.41h8.26v10.7h-8.26z"/><path d="m134.82 218.41h8.26v10.7h-8.26z"/><path d="m134.82 276.13h8.26v10.7h-8.26z"/><path d="m122.13 235.48h8.26v10.7h-8.26z"/><path d="m122.13 294.41h8.26v10.7h-8.26z"/><path d="m122.13 252.83h8.26v10.7h-8.26z"/><path d="m145.74 252.83h8.26v10.7h-8.26z"/><path d="m145.74 294.41h8.26v10.7h-8.26z"/><path d="m156.12 218.41h8.26v10.7h-8.26z"/><path d="m223.12 175.95h4.59v5.95h-4.59z"/><path d="m232.67 175.95h4.59v5.95h-4.59z"/><path d="m223.12 186.44h4.59v5.95h-4.59z"/><path d="m242.22 186.44h4.59v5.95h-4.59z"/><path d="m232.67 196.94h4.59v5.95h-4.59z"/><path d="m242.22 196.94h4.59v5.95h-4.59z"/><path d="m223.12 207.43h4.59v5.95h-4.59z"/><path d="m242.22 207.43h4.59v5.95h-4.59z"/><path d="m223.12 217.92h4.59v5.95h-4.59z"/><path d="m232.67 217.92h4.59v5.95h-4.59z"/><path d="m242.22 228.42h4.59v5.95h-4.59z"/><path d="m223.12 249.4h4.59v5.95h-4.59z"/><path d="m297.49 231.86h4.59v5.95h-4.59z"/><path d="m322.99 231.86h4.59v5.95h-4.59z"/><path d="m309.9 215.71h4.59v5.95h-4.59z"/><path d="m383.68 224.68h4.59v5.95h-4.59z"/><path d="m399.03 224.68h4.59v5.95h-4.59z"/><path d="m399.03 235.28h4.59v5.95h-4.59z"/><path d="m383.68 245.88h4.59v5.95h-4.59z"/><path d="m399.03 245.88h4.59v5.95h-4.59z"/><path d="m383.68 256.48h4.59v5.95h-4.59z"/><path d="m391.36 267.08h4.59v5.95h-4.59z"/><path d="m399.03 267.08h4.59v5.95h-4.59z"/><path d="m399.03 277.67h4.59v5.95h-4.59z"/><path d="m383.68 288.27h4.59v5.95h-4.59z"/><path d="m391.36 288.27h4.59v5.95h-4.59z"/><path d="m319.76 215.71h4.59v5.95h-4.59z"/><path d="m297.49 243.82h4.59v5.95h-4.59z"/><path d="m305.99 243.82h4.59v5.95h-4.59z"/><path d="m297.49 255.79h4.59v5.95h-4.59z"/><path d="m314.49 255.79h4.59v5.95h-4.59z"/><path d="m322.99 255.79h4.59v5.95h-4.59z"/><path d="m305.99 267.75h4.59v5.95h-4.59z"/><path d="m297.49 279.71h4.59v5.95h-4.59z"/><path d="m314.49 279.71h4.59v5.95h-4.59z"/><path d="m322.99 279.71h4.59v5.95h-4.59z"/><path d="m297.49 303.64h4.59v5.95h-4.59z"/><path d="m314.49 303.64h4.59v5.95h-4.59z"/><path d="m156.12 276.13h8.26v10.7h-8.26z"/><path d="m182.7 221.2h25.34v2.75h-25.34z"/><path d="m262.26 213.4h20.59v2.75h-20.59z"/><path d="m262.26 219.34h20.59v2.75h-20.59z"/><path d="m262.26 237.18h20.59v2.75h-20.59z"/><path d="m344.78 231.86h20.59v2.75h-20.59z"/><path d="m344.78 237.81h20.59v2.75h-20.59z"/><path d="m344.78 249.7h20.59v2.75h-20.59z"/><path d="m344.78 267.53h20.59v2.75h-20.59z"/><path d="m344.78 279.43h20.59v2.75h-20.59z"/><path d="m344.78 291.32h20.59v2.75h-20.59z"/><path d="m344.78 303.21h20.59v2.75h-20.59z"/><path d="m262.26 255.01h20.59v2.75h-20.59z"/><path d="m262.26 266.9h20.59v2.75h-20.59z"/><path d="m182.7 229.11h25.34v2.75h-25.34z"/><path d="m182.7 237.02h25.34v2.75h-25.34z"/><path d="m182.7 252.84h25.34v2.75h-25.34z"/><path d="m182.7 268.65h25.34v2.75h-25.34z"/><path d="m182.7 276.56h25.34v2.75h-25.34z"/><path d="m182.7 292.38h25.34v2.75h-25.34z"/><path d="m182.7 308.2h25.34v2.75h-25.34z"/></g><path d="m262.26 201.51h20.59v2.75h-20.59z" fill="#4188e4" opacity=".3"/><path d="m118.22 249.8 6 11.81 6.19-11.61a6.68 6.68 0 0 0 -5.77-9.35h-.41a6.67 6.67 0 0 0 -6.01 9.15zm3-2.45a3.08 3.08 0 1 1 3 3.13 3.08 3.08 0 0 1 -2.95-3.13z" fill="#ff5b7e" transform="translate(-2.71 -68.15)"/><path d="m33.77 362.83a6.25 6.25 0 0 0 4.88-5c1.31-7.16 5.46-19.78 18.41-20 15.26-.27 18 11.17 17.62 19.5a3.55 3.55 0 0 0 3.69 3.67c4.51-.19 11.09.86 11.09 8.56 0 0 4.08 14.5-7.52 18s-17.22-1.1-22.2 3.56c-4.59 4.31-19.58 8.78-26.82-1a15.81 15.81 0 0 0 -4.13-3.86c-2.71-1.76-6.29-6-3.3-15.83a10.9 10.9 0 0 1 8.08-7.53z" fill="#70c0fd" transform="translate(-2.71 -68.15)"/><path d="m62.07 375.43a19.31 19.31 0 0 0 -3 2.78c-.23.27-.45.54-.67.82a11.54 11.54 0 0 1 .47-3c.28-.76 1.07-2.05 2-3.88a28.86 28.86 0 0 1 3.78-3.9 15 15 0 0 1 5-2.94 14.52 14.52 0 0 0 -5.45 2.19c-.53.33-1.07.69-1.6 1.08a44 44 0 0 0 3.53-22.26 76.86 76.86 0 0 1 -1.55 12.68 17.46 17.46 0 0 0 -.93-2.81 23.46 23.46 0 0 0 -2.88-5 23.42 23.42 0 0 1 2.3 5.24c1.39 4.75.49 6.35-.26 8-2.22 4.81-4.9 8.26-6.05 11.08-.42-.91-.86-1.82-1.3-2.73-1-1.92-1.93-3.83-2.94-5.71l-.5-.91a15.3 15.3 0 0 1 -.51-2.29c-.1-.66-.19-1.34-.26-2a33.35 33.35 0 0 1 -.14-4.1 33.72 33.72 0 0 0 -.23 4.13c0 .69 0 1.39.08 2.08v.34c-.53-.93-1.07-1.84-1.63-2.74s-1.13-1.79-1.73-2.66a27.48 27.48 0 0 0 -1.91-2.47 26.38 26.38 0 0 1 1.76 2.55c.55.9 1.07 1.83 1.57 2.76s1 1.89 1.45 2.84.92 1.93 1.37 2.9c.06.12.12.25.17.37-.3-.09-.58-.17-1.09-.3a31.71 31.71 0 0 0 -5.92-.87 32.32 32.32 0 0 1 5.78 1.48 16.63 16.63 0 0 1 1.7.72c.67 1.48 1.31 3 1.94 4.47.41 1 .81 2 1.2 3 .2.49.39 1 .58 1.49a2.29 2.29 0 0 0 0 .37c.07.89.24 3 .42 5.76a17.71 17.71 0 0 0 -4.79-1.65 38 38 0 0 0 -6.33-.42 6.59 6.59 0 0 1 -1-.91 7.89 7.89 0 0 1 -1.81-4.01 8.36 8.36 0 0 0 1.52 4.4l.43.54c-.84 0-1.68-.11-2.51-.21a15.88 15.88 0 0 1 -2.71-.55 7.49 7.49 0 0 1 -2.5-1.27 7.62 7.62 0 0 0 2.45 1.48 15.67 15.67 0 0 0 2.48.74l-.51.08c-.62.11-1.24.24-1.85.39s-1.22.33-1.82.54a11.83 11.83 0 0 0 -1.76.76 12.2 12.2 0 0 1 1.79-.61c.61-.16 1.23-.27 1.84-.37s1.23-.17 1.85-.23 2.39-.11 3-.13a57.75 57.75 0 0 1 7.23 1 16.7 16.7 0 0 1 4.95 2.28l.18.13c.46 7.4.87 17.53-.1 20.1-1.43 3.81 7.35 2.43 7.35 2.43s-3-1.64-4.12-10.24a143.32 143.32 0 0 1 -1.48-16.34l.12-.27c.14-.29.29-.59.44-.87a18.74 18.74 0 0 1 1-1.67 19.53 19.53 0 0 1 2.54-3 21.47 21.47 0 0 1 6.42-4.11 20.81 20.81 0 0 0 -6.85 3.43z" fill="#07085b" transform="translate(-2.71 -68.15)"/><path d="m122.66 377.19a29.53 29.53 0 0 0 16.69-4.74c4-2.6 7.71-6.42 8.4-11.81 1.58-12.33-5.52-11.92-7.27-16.95s3.43-7.28 1.2-16.44c-1.2-4.91-5-7-10.9-14.95s-13.07-12-18.3-9-5 9.29-8.9 11.4-9.86 9.48-7.58 23.49-13.13 8.79-7.1 25c4.42 11.88 23.76 13.81 33.76 14z" fill="#70c0fd" transform="translate(-2.71 -68.15)"/><path d="m115.63 366.59c.55 7.79 1.35 38.79.18 41.49-1.74 4 7.4-1 7.4-1s-2.43-18.51-3.84-27.55c-.62-4-1.77-16.14-1.78-17.19l.15-.29c.16-.31.34-.61.53-.92a19.24 19.24 0 0 1 1.25-1.75 22 22 0 0 1 3.07-3.11 26.49 26.49 0 0 1 7.7-4.37 26.72 26.72 0 0 0 -8.27 3.61 23 23 0 0 0 -3.55 2.92c-.28.28-.55.57-.81.86a10.87 10.87 0 0 1 .57-3.12c.33-.8 1.3-2.16 2.48-4.08a32 32 0 0 1 4.54-4.1 18.87 18.87 0 0 1 6.07-3.1 19.23 19.23 0 0 0 -6.57 2.31c-.65.35-1.29.73-1.93 1.14a41 41 0 0 0 4.26-23.42 71 71 0 0 1 -2 13.29 19.83 19.83 0 0 0 -1.12-3 24.76 24.76 0 0 0 -3.47-5.23 24.12 24.12 0 0 1 2.77 5.51c1.61 4.83.65 6.55-.32 8.38-2.67 5.05-5.91 8.69-7.29 11.65-.52-1-1-1.91-1.58-2.86-1.14-2-2.31-4-3.54-6-.19-.32-.39-.64-.59-1a10.67 10.67 0 0 1 -.4-1.36c-.08-.35-.15-.7-.22-1.05-.13-.7-.24-1.41-.31-2.12s-.14-1.44-.16-2.16 0-1.6 0-2.16c-.07.54-.18 1.4-.22 2.16s-.07 1.45-.07 2.18 0 1.46.1 2.19v.37c-.63-1-1.28-1.93-2-2.88s-1.36-1.88-2.09-2.79a31.43 31.43 0 0 0 -2.3-2.6 31.27 31.27 0 0 1 2.12 2.74c.65.95 1.28 1.93 1.88 2.91s1.18 2 1.75 3 1.12 2 1.66 3l.2.4a35.31 35.31 0 0 0 -3.68-.76 47.2 47.2 0 0 0 -4.77-.47 44.92 44.92 0 0 1 4.68.92 28.4 28.4 0 0 1 4.34 1.4q1.2 2.34 2.33 4.71c.5 1 1 2.08 1.46 3.13a6.3 6.3 0 0 1 .56 1.28c.37 1.71.83 8.89.83 8.89z" fill="#07085b" transform="translate(-2.71 -68.15)"/><path d="m389.24 257.11 5.89 11.83 6.3-11.63a6.68 6.68 0 0 0 -5.73-9.37h-.42a6.68 6.68 0 0 0 -6.04 9.17zm3.05-2.44a3.09 3.09 0 1 1 3 3.14 3.08 3.08 0 0 1 -3-3.14z" fill="#07085b" transform="translate(-2.71 -68.15)"/><path d="m74.72 402.48s.51-8.5 7.91-7.72c0 0 10.07-16.05 20.62 6.62 0 0 9.52-5.15 13 6 0 0 5.86-10.92 14.21-7.3s11.18 13.56 11.18 13.56l-61.55 1.36z" fill="#70c0fd" transform="translate(-2.71 -68.15)"/><path d="m258.53 241.75c-.3.21-5.73 9.95-5.73 9.95l-7.29-6.42 7.09-11.82 5.93 3.33z" fill="#ffc0bb" transform="translate(-2.71 -68.15)"/><path d="m248.49 240.3a12.81 12.81 0 0 0 6.44 7.61c1.55-2.76 3.43-6 3.6-6.16v-5l-5.93-3.33z" fill="#f99893" transform="translate(-2.71 -68.15)"/><path d="m182.26 340.17s-2.07-1.46-4 3.2.68 6.52.68 6.52 3.39-2.51 3.36-3-.16-6.5-.16-6.5z" fill="#fff" transform="translate(-2.71 -68.15)"/><path d="m185.65 338.49s-1.67-1-3.55 1.91a19.62 19.62 0 0 0 -2.09 5.12c-2.5 9 0 9 0 9l4.22-1.8s4-10.27 3.79-11.11a15.74 15.74 0 0 0 -2.37-3.12z" fill="#ff5b7e" transform="translate(-2.71 -68.15)"/><rect fill="#283f56" height="2.75" rx="1.37" width="72.05" x="147.32" y="247.27"/><path d="m200.99 248.64h4.84v12.81h-4.84z" fill="#283f56"/><path d="m163.27 246.13h5.82a0 0 0 0 1 0 0v8.87a2.91 2.91 0 0 1 -2.91 2.91 2.91 2.91 0 0 1 -2.91-2.91v-8.92a0 0 0 0 1 0 .05z" fill="#283f56"/><path d="m171 323.2c.7.79 17.66 16.75 17.66 16.75l-1.44 2-17.92-17.68z" fill="#283f56" transform="translate(-2.71 -68.15)"/><path d="m325 352.63h1a3.59 3.59 0 0 1 3.59 3.59v4.6h-4.42s-2-3.41-2.69-2.69 2.52-5.5 2.52-5.5z" fill="#ffe5b6" transform="translate(-2.71 -68.15)"/><circle cx="206.73" cy="319.31" fill="#1a1a1a" r="25.98"/><path d="m221.15 387.46a11.71 11.71 0 1 1 -11.71-11.71 11.71 11.71 0 0 1 11.71 11.71z" fill="#9e9da2" transform="translate(-2.71 -68.15)"/><circle cx="332.59" cy="387.46" fill="#1a1a1a" r="25.98" transform="matrix(.02495562 -.99968856 .99968856 .02495562 -65.76 642.13)"/><path d="m344.3 387.46a11.71 11.71 0 1 1 -11.71-11.71 11.71 11.71 0 0 1 11.71 11.71z" fill="#9e9da2" transform="translate(-2.71 -68.15)"/><path d="m179.16 299.12h58.59a0 0 0 0 1 0 0v16.37a0 0 0 0 1 0 0h-58.59a8.18 8.18 0 0 1 -8.18-8.18 8.18 8.18 0 0 1 8.18-8.18z" fill="#283f56"/><rect fill="#ff5b7e" height="9.76" rx="4.88" width="58.15" x="194.87" y="258.74"/><path d="m253.7 335.73s-4.65 2.57-8.42 13.32-3 27 20.43 28.23h35.94l3.58-6.31s-3-42.89-10-61.89h11.77s3.57 36.52 16.11 41.44a3.17 3.17 0 0 1 2 3v7.23l-19 24.55h-62.53s-14.7 1.3-18.28-23.65l-42.41-.65a3.5 3.5 0 0 1 -3.29-4.52c1.32-4.3 4-10.38 8.91-11.71 7.75-2.17 65.19-9.04 65.19-9.04z" fill="#333" transform="translate(-2.71 -68.15)"/><path d="m185.18 346.11.18.29h60.93l.62-1.43c3.36-7.35 6.79-9.24 6.79-9.24h-62.49a6.92 6.92 0 0 0 -6.03 10.38z" fill="#283f56" transform="translate(-2.71 -68.15)"/><path d="m181.49 367.27h45.51a7.11 7.11 0 0 0 6.72-9.44c-2.43-7-8.07-14.49-21.94-15.77-17.93-1.66-28.76 12.66-33.05 20.61a3.11 3.11 0 0 0 2.76 4.6z" fill="#ff5b7e" transform="translate(-2.71 -68.15)"/><path d="m306.13 385.25 14-22.58s7.17-5.56 21.33-2.69a26 26 0 0 1 16.67 11.84 2.92 2.92 0 0 1 -2.45 4.49h-21.55a21.84 21.84 0 0 0 -17 8.13l-.55.68a15.75 15.75 0 0 1 -12.25 5.88 12.61 12.61 0 0 1 -8.66-3.44l-2.45-2.3z" fill="#ff5b7e" transform="translate(-2.71 -68.15)"/><path d="m308 286.6a3 3 0 0 0 -3.6-3c-7.92 1.56-16.24 7.91-16.24 15.51s8.32 14 16.24 15.51a3 3 0 0 0 3.6-3z" fill="#ff5b7e" transform="translate(-2.71 -68.15)"/><path d="m308 286.67v25a13.1 13.1 0 0 0 0-25z" fill="#fff" transform="translate(-2.71 -68.15)"/><path d="m152.45 210.02h61.77v37.25h-61.77z" fill="#ff5b7e"/><path d="m151.14 205.33h64.4v4.69h-64.4z" fill="#d12a56"/><path d="m170.16 323a1.28 1.28 0 1 1 -1.27-1.27 1.27 1.27 0 0 1 1.27 1.27z" fill="#282828" transform="translate(-2.71 -68.15)"/><rect fill="#333" height="1.7" rx=".85" width="30.65" x="190.79" y="283.53"/><rect fill="#333" height="1.7" rx=".85" width="30.65" x="190.79" y="287.84"/><path d="m274.12 286.57-2.24 24.12-1.93 3.48-3.47-2.51.07-25.71z" fill="#ffc0bb"/><path d="m287.14 284.31-1.1 26.38-1.93 3.48-3.47-2.51.07-25.71z" fill="#ffc0bb"/><rect fill="#daeef7" height="1.55" rx=".21" transform="matrix(.9999945 -.00331612 .00331612 .9999945 -3.99 -67.18)" width="15.4" x="282.4" y="382.43"/><path d="m283.08 377.75-.49 4.31c-.06.53.23 1 .62 1l13.57-.05a1 1 0 0 0 .89-.63 1.91 1.91 0 0 0 -.39-1.92c-1.22-1.71-5.21-2.12-7.17-3.58h-6.32c-.35.03-.65.39-.71.87z" fill="#ff5b7e" transform="translate(-2.71 -68.15)"/><path d="m289.16 379.4a.3.3 0 0 1 -.08-.36 2.62 2.62 0 0 1 2.79-1.74c.1 0 .16.15.15.28 0 .13-.11.21-.2.2a2.25 2.25 0 0 0 -2.44 1.51.16.16 0 0 1 -.22.11z" fill="#daeef7" transform="translate(-2.71 -68.15)"/><path d="m290.57 380a.31.31 0 0 1 -.08-.36 2.62 2.62 0 0 1 2.79-1.74c.1 0 .16.15.15.28 0 .13-.11.21-.2.2a2.26 2.26 0 0 0 -2.44 1.51.16.16 0 0 1 -.22.11z" fill="#daeef7" transform="translate(-2.71 -68.15)"/><path d="m291.88 380.46a.3.3 0 0 1 -.08-.35 2.63 2.63 0 0 1 2.79-1.74c.1 0 .17.14.15.28 0 .13-.1.22-.2.2a2.28 2.28 0 0 0 -2.44 1.51.15.15 0 0 1 -.22.1z" fill="#daeef7" transform="translate(-2.71 -68.15)"/><path d="m286.84 383.06c-1.08-3.48-2.93-3.86-3.93-3.77l-.32 2.77c-.06.53.23 1 .62 1z" fill="#e87b50" opacity=".3" transform="translate(-2.71 -68.15)"/><rect fill="#333" height="1.7" rx=".85" width="30.65" x="190.79" y="292.14"/><path d="m280.35 319.22c1.77.14 9.14 3.14 10.1 8.46s0 46.68 0 46.68h-8.19s-6.55-32.76-6.55-33.71 4.64-21.43 4.64-21.43z" fill="#282828" transform="translate(-2.71 -68.15)"/><path d="m224.12 307.35c.14.41-1.8 18.69 16.84 20.2s29.43 3.95 29.43 3.95-2.6 41.36-2.46 43.4c0 0 6.41 1.1 9.14.69 0 0 14.61-45.86 10.38-55.28s-37.94-13-37.94-13z" fill="#333" transform="translate(-2.71 -68.15)"/><path d="m255.15 274.47s.2 8.9.79 9.72 28.84 11.62 28.84 11.62l-4.64 5.24-20.81-5.94s-14.91-5.35-14.76-5.74 1-5.86 1.71-8a64.63 64.63 0 0 1 3.52-7z" fill="#f9b7b4" transform="translate(-2.71 -68.15)"/><path d="m244.73 243.41s-18.87 6.85-21 44.11l-.92 21.19s21.49 9.21 33.78 1.23c0 0 1.24-37.82 2.54-51.64a7.11 7.11 0 0 0 -2.54-6.11c-4.14-3.42-11.16-9.1-11.86-8.78z" fill="#feb546" transform="translate(-2.71 -68.15)"/><path d="m238.18 269.88s-4.61 19.12 1.82 24.32c4 3.26 41.53 9.67 41.53 9.67l2.47-5.87s-29.87-10.66-31.65-11.9 1.21-17.54 1.21-17.54z" fill="#ffc0bb" transform="translate(-2.71 -68.15)"/><path d="m252.77 250.31a5.89 5.89 0 0 0 -6.19-1c-2.88 1.22-7 4.68-9.24 14.41l-1.89 8.4s14 3.44 18.32 3.25l2.2-13s1.25-8.12-3.2-12.06z" fill="#f4a640" transform="translate(-2.71 -68.15)"/><path d="m206.86 273.48h-11.48l-21.53 41.93h11.48z" fill="#333" transform="translate(-2.71 -68.15)"/><path d="m192.42 300-7.71-4a2.42 2.42 0 0 1 -1-3.25l2.26-4.41a2.42 2.42 0 0 1 3.25-1l7.7 4a2.4 2.4 0 0 1 1 3.24l-2.26 4.41a2.41 2.41 0 0 1 -3.24 1.01zm-3.89-11.39a1 1 0 0 0 -1.34.43l-2.27 4.41a1 1 0 0 0 .44 1.34l7.7 4a1 1 0 0 0 1.34-.44l2.27-4.41a1 1 0 0 0 -.43-1.34z" fill="#ffe5b6" transform="translate(-2.71 -68.15)"/><path d="m250.84 229.37a3.79 3.79 0 0 1 -1.72 5.19 4.12 4.12 0 0 1 -5.17-2.31 3.77 3.77 0 0 1 1.72-5.18 4.11 4.11 0 0 1 5.17 2.3z" fill="#ffc0bb" transform="translate(-2.71 -68.15)"/><rect fill="#daeef7" height="1.55" rx=".21" transform="matrix(.9999945 -.00331612 .00331612 .9999945 -3.99 -67.23)" width="15.4" x="267.89" y="382.43"/><path d="m268.58 377.75-.5 4.31c-.06.53.24 1 .63 1l13.57-.05a1 1 0 0 0 .88-.63 1.87 1.87 0 0 0 -.38-1.92c-1.22-1.71-5.22-2.12-7.17-3.58h-6.32c-.36.03-.66.39-.71.87z" fill="#ff5b7e" transform="translate(-2.71 -68.15)"/><path d="m274.66 379.4a.3.3 0 0 1 -.08-.36 2.62 2.62 0 0 1 2.79-1.74.25.25 0 0 1 .14.28c0 .13-.1.21-.19.2a2.25 2.25 0 0 0 -2.44 1.51c-.05.11-.14.16-.22.11z" fill="#daeef7" transform="translate(-2.71 -68.15)"/><path d="m276.07 380a.3.3 0 0 1 -.08-.36 2.62 2.62 0 0 1 2.79-1.74.25.25 0 0 1 .14.28c0 .13-.1.21-.19.2a2.25 2.25 0 0 0 -2.44 1.51c-.05.11-.14.11-.22.11z" fill="#daeef7" transform="translate(-2.71 -68.15)"/><path d="m277.38 380.46a.29.29 0 0 1 -.08-.35 2.62 2.62 0 0 1 2.79-1.74c.1 0 .16.14.15.28 0 .13-.11.22-.2.2a2.28 2.28 0 0 0 -2.44 1.51.15.15 0 0 1 -.22.1z" fill="#daeef7" transform="translate(-2.71 -68.15)"/><path d="m272.33 383.06c-1.08-3.48-2.92-3.86-3.93-3.77l-.32 2.77c-.06.53.24 1 .63 1z" fill="#e87b50" opacity=".3" transform="translate(-2.71 -68.15)"/><rect fill="#283f56" height="8.97" rx="4.48" width="82.2" x="227.85" y="314.48"/><g transform="translate(-2.71 -68.15)"><path d="m195.56 413.68h-50.18s-22.94-7.1 0-6.86c0 0-13.5-10 6.93-7.65s22.34 8.48 22.34 8.48 4.07-7.19 20.91 6.03z" fill="#fff" opacity=".8"/><path d="m261.41 413.53 32.64-.23s-17.83-10.27-20.34-5.79c0 0-31.58-6.51-12.3 6.02z" fill="#fff" opacity=".8"/><path d="m363.86 413.56h-57.24s-5.12-6.14 6.14-3.91c0 0-7.3-9.4 9.58-5.64l10.25 3.44s-16.74-21.18 2.07-13.83a77 77 0 0 1 29.2 19.94z" fill="#fff" opacity=".8"/><path d="m229 413.53h-15.12s-2-4.3 3.53-2.15c0 0-7.41-14.45 11.59 2.15z" fill="#fff" opacity=".8"/><path d="m265.21 238.45-.74 2.9s-6.47-5.25-6.42-5.35 1.17-2 1.66-1.82 4.53 1.71 4.53 1.82.97 2.45.97 2.45z" fill="#fff"/><path d="m260.68 236.47a8 8 0 0 0 4.77 2.39c.28-1 .47-1.72.47-1.72a8.69 8.69 0 0 0 2.88-1.45s-2.2-3-2.24-4.42 2.17-9.89-3.93-14.69-9.72 3.81-9.72 3.81l-2.59 8.91-3.55 5.39a14.16 14.16 0 0 0 5.69 8.3 12.69 12.69 0 0 0 11.09 1.7 21.44 21.44 0 0 0 1.44-4.17 7.58 7.58 0 0 1 -4.31-4.05z" fill="#ffc0bb"/><path d="m261.82 231a1 1 0 0 0 1.31.36.9.9 0 0 0 .38-1.25 1 1 0 0 0 -1.32-.36.9.9 0 0 0 -.37 1.25z" fill="#333"/><path d="m260.43 229.3a7.6 7.6 0 0 1 1-.75 4.09 4.09 0 0 1 1.07-.48 4 4 0 0 1 1.15-.17h.15a.75.75 0 0 1 .15 0h.31c.21 0 .42.05.64.06a3.38 3.38 0 0 0 -.55-.34 3.55 3.55 0 0 0 -.63-.2 2.81 2.81 0 0 0 -1.38.07 3 3 0 0 0 -1.2.68 2.69 2.69 0 0 0 -.71 1.13z" fill="#333"/><path d="m253.9 224.56s-2.14 1.82-2.67 10.15c-.42 6.47-5.83 7.52-5.72 7.48s1.49-14.19 1.79-14.68 2.1-5.87 2.38-6 4 2.27 4.17 2.33.05.72.05.72z" fill="#d12a56"/><path d="m271.05 218.64s-2.18-14.31-20.54-13.53-17.76 22.06-17.76 22.06-.75 15.43 10.25 15.42c0 0 7.44.48 7.44-8.8 0-9 2.73-9 2.73-9z" fill="#ff5b7e"/><path d="m236.76 212.51c-4.24 6.41-4 14.65-4 14.65s-.76 15.42 10.24 15.42c0 0 7.25.46 7.44-8.44-10.08-3.57-13.34-12.43-13.68-21.63z" fill="#ff5b7e" opacity=".5"/><path d="m244.81 236.79a2.08 2.08 0 1 1 -2.08-2.08 2.09 2.09 0 0 1 2.08 2.08z" fill="#d12a56"/><path d="m253.17 224.82c.56-.2 14.56-1.28 21.13-1.78a1.19 1.19 0 0 0 .59-2.17l-3.84-2.69z" fill="#1a1a1a"/><path d="m253.17 224.82c.62-.22 14.3-4.75 18.23-6a1 1 0 0 0 .62-1.37l-.53-1.24a1 1 0 0 0 -1.43-.5z" fill="#283f56"/><path d="m280.55 297.42s4.63-2.82 6.65-2.82 6.25 1.21 6.25 3.22a4.83 4.83 0 0 1 -1.21 3.23l-4.09 3.53s-2 1.51-2.76.7-3.23.21-7.22-2-.25-3.44.36-4 2.02-1.86 2.02-1.86z" fill="#ffc0bb"/><path d="m293.39 300.4a4.29 4.29 0 1 1 -4.29-4.29 4.29 4.29 0 0 1 4.29 4.29z" fill="#1a1a1a"/></g><rect fill="#07085b" height="5.15" rx="2.58" width="452.48" x="33.21" y="345.31"/><path d="m400 385.71a24.44 24.44 0 0 1 -13.78-3.91c-3.28-2.14-6.36-5.3-6.93-9.75-1.3-10.17 4.56-9.84 6-14s-2.83-6-1-13.56c1-4.06 4.12-5.82 9-12.34s10.79-9.87 15.1-7.44 4.14 7.67 7.35 9.41 8.13 7.82 6.25 19.39 10.84 7.25 5.86 20.63c-3.66 9.86-19.63 11.42-27.85 11.57z" fill="#70c0fd" transform="translate(-2.71 -68.15)"/><path d="m405.77 377c-.45 6.43-1.11 32-.15 34.24 1.44 3.32-6.1-.81-6.1-.81s2-15.28 3.16-22.74c.52-3.32 1.47-13.32 1.47-14.19a1.67 1.67 0 0 0 -.12-.23 19 19 0 0 0 -10.36-8.38 20.45 20.45 0 0 1 10.42 6.1 8.81 8.81 0 0 0 -.47-2.58c-.75-1.83-2.08-4-5.79-6.75a20.26 20.26 0 0 0 -2.38-1.5 13.62 13.62 0 0 0 -1.28-.6 12.62 12.62 0 0 0 -1.35-.46 13 13 0 0 1 1.41.28q.7.18 1.38.42a19.56 19.56 0 0 1 2.64 1.21c.53.29 1.06.6 1.59.94a33.72 33.72 0 0 1 -3.51-19.33 58.47 58.47 0 0 0 1.66 11 15.07 15.07 0 0 1 .93-2.45 19.43 19.43 0 0 1 2.05-3.31l.81-1c-.23.36-.46.72-.68 1.09a18.43 18.43 0 0 0 -1.61 3.46 14.83 14.83 0 0 0 -.59 2.43 11.41 11.41 0 0 0 -.08 2.37 18.62 18.62 0 0 0 .93 2.11c2.21 4.17 4.88 7.17 6 9.62.43-.8.86-1.58 1.3-2.37.95-1.67 1.91-3.32 2.92-5l.5-.79a19 19 0 0 0 .77-3.74 24.78 24.78 0 0 0 .13-3.56 24.91 24.91 0 0 1 .24 3.58c0 .61 0 1.21-.08 1.81v.3c.52-.81 1.06-1.6 1.61-2.38s1.13-1.56 1.73-2.3a24.32 24.32 0 0 1 1.9-2.15 25.69 25.69 0 0 0 -1.75 2.26c-.54.79-1 1.59-1.55 2.4s-1 1.64-1.44 2.47-.93 1.67-1.37 2.51c-.06.11-.11.22-.17.32l1.08-.26a37.88 37.88 0 0 1 5.89-.75 36.58 36.58 0 0 0 -5.74 1.29c-.56.18-1.16.39-1.7.62-.66 1.29-1.3 2.59-1.92 3.89-.41.86-.81 1.72-1.21 2.59a6.09 6.09 0 0 0 -.46 1.05c-.28 1.27-.66 7.27-.66 7.27z" fill="#07085b" transform="translate(-2.71 -68.15)"/><path d="m41.55 413.53s4.45-6.66 12.45-5.23c0 0 4.42-9.39 16.69-9.49 12.43-.11 14.79 8.54 14.79 8.54s3.54-3 11.57.09 10.86 8.6 10.86 8.6z" fill="#07085b" transform="translate(-2.71 -68.15)"/><path d="m452.27 402.48s-.51-8.5-7.91-7.72c0 0-10.08-16.05-20.62 6.62 0 0-9.52-5.15-13 6 0 0-5.86-10.92-14.2-7.3s-11.19 13.56-11.19 13.56l61.54 1.36z" fill="#70c0fd" transform="translate(-2.71 -68.15)"/><path d="m485.44 413.53s-4.44-6.66-12.44-5.23c0 0-4.41-9.39-16.68-9.49-12.43-.11-14.79 8.54-14.79 8.54s-3.55-3-11.57.09-10.86 8.56-10.86 8.56z" fill="#07085b" transform="translate(-2.71 -68.15)"/><path d="m437.66 363.93c-4.62-2.37-8.51-6.31-9.9-11.11-1.34-4.64-.3-9.56.83-14.25.49-2.05 1-4.24.19-6.21a12.71 12.71 0 0 0 -2.32-3.23c-7.46-8.8-9.17-20.88-8.22-32.15a22.11 22.11 0 0 1 2.28-9.08 10 10 0 0 1 7.69-5.28c5.09-.33 9.94 4.17 14.79 2.65 3.47-1.08 5.22-4.81 8.37-6.58 2.65-1.48 5.91-1.39 9-1.26a8.76 8.76 0 0 1 2.85.44c2 .79 3.07 2.92 3.71 4.91 1 3.22 1.56 6.57 2.6 9.79s2.72 6.4 5.54 8.44c2.26 1.64 5.07 2.42 7.62 3.62 6.31 3 10.9 8.49 14.31 14.34a22.83 22.83 0 0 1 2.48 5.5c1.64 6.1-1.53 13.07-7.32 16.12-2.16 1.14-4.58 1.77-6.73 2.92-4.92 2.64-7.78 7.64-10.6 12.29s-6.21 9.5-11.51 11.35c-7.27 2.53-19.07.15-25.66-3.22z" fill="#70c0fd" transform="translate(-2.71 -68.15)"/><path d="m488.79 333.07c-1.15-.17-2.31-.25-3.46-.31s-2.32 0-3.47 0h-.95a30.24 30.24 0 0 0 4.3-2.45 15.85 15.85 0 0 0 4-3.91 14.92 14.92 0 0 1 -4.21 3.6 28.11 28.11 0 0 1 -4.74 2.18c-1.49.55-3 1-4.51 1.43.23-.4.43-.81.63-1.23a17.84 17.84 0 0 0 1-3 18.27 18.27 0 0 0 .5-3.12 20.69 20.69 0 0 0 0-3.15 20.07 20.07 0 0 1 -.23 3.11 16.85 16.85 0 0 1 -.73 2.94 15.26 15.26 0 0 1 -1.19 2.66 12.74 12.74 0 0 1 -.73 1.18 4.91 4.91 0 0 1 -.87 1l-3.75 1c-4 1-9.59 2.34-15.74 7.61-.26-3.08-.54-6.61-.74-9.08a23.1 23.1 0 0 1 .37-6.27q.64-3.18 1.34-6.34c.7-3.19 1.44-6.38 2.22-9.55 1.57-6.66 1.2-7.53 1.34-9.05a7.22 7.22 0 0 0 0-1.23v-.09q-.17-2.07-.45-4.11a68.28 68.28 0 0 0 -1.62-8 68.3 68.3 0 0 1 .9 8.11c.08 1.35.11 2.71.1 4.06v2 1 .5s-.56 2.48-.77 3.14c-1.3 4.1-2.52 8.23-3.69 12.39-.64 1.91-1.17 3.91-1.64 5.91a24.34 24.34 0 0 0 -.53 2.64c-.12-.38-1.14-3.19-1.63-4.34a89.58 89.58 0 0 0 -9.12-16.83c-1.59-2.3-1.8-2.52-3.9-5.25 2.61 3.84 1.84 2.67 3.62 5.53a91.58 91.58 0 0 1 8.11 17.25c.78 2.34 1.18 3.51 2 6.58.09.37.19.74.27 1.12 0 .21.09.41.14.62a49.24 49.24 0 0 0 .28 8.67c.14 1.17 1.5 22.18 1.66 29.88.35 17.31-2.7 36.89-2.7 36.89s18.31 5.71 14.59-1.19c-2.5-4.62-8.49-46.38-9.79-61.06l.29-.33c5.57-6 11.36-8 15.46-9.43 1.9-.66 3.8-1.31 5.7-2 1.11-.23 4.35-.82 5.49-1s2.28-.25 3.42-.31a32.9 32.9 0 0 1 3.44 0 19 19 0 0 1 3.42.46 19.93 19.93 0 0 0 -3.43-.83z" fill="#07085b" transform="translate(-2.71 -68.15)"/></svg>