<svg viewBox="0 0 380.86 293.13" xmlns="http://www.w3.org/2000/svg"><path d="m441.7 403a.71.71 0 0 1 -.54.55 79.65 79.65 0 0 1 -11.45 1.3c-3.81.19-7.63.25-11.44.21l-5.72-.09-5.73-.05h-263.21c-7.63 0-15.26 0-22.89.07-3.81 0-7.63.08-11.44.07s-7.63 0-11.45-.06a189.1 189.1 0 0 1 -22.89-1.45.69.69 0 0 1 0-1.36 187.09 187.09 0 0 1 22.89-1.45c3.82-.08 7.63-.09 11.45-.07h6.4 3.6 1.44 8.32 4.19 273.59l5.73-.05 5.72-.08c3.81 0 7.63 0 11.44.2a85.84 85.84 0 0 1 9.42.94c.67.11 1.35.23 2 .37a.68.68 0 0 1 .57.95z" fill="#5e2323" transform="translate(-63.94 -111.9)"/><path d="m420.1 181.78c0 .77-1.72 1.43-4.22 1.76a1.92 1.92 0 0 0 -1.67 1.67c-.32 2.5-1 4.22-1.76 4.22s-1.43-1.72-1.76-4.22a1.91 1.91 0 0 0 -1.67-1.67c-2.5-.33-4.22-1-4.22-1.76s1.72-1.44 4.22-1.76a1.92 1.92 0 0 0 1.67-1.67c.33-2.5 1-4.22 1.76-4.22s1.44 1.72 1.76 4.22a1.93 1.93 0 0 0 1.67 1.67c2.5.32 4.22.98 4.22 1.76z" fill="#fff" transform="translate(-63.94 -111.9)"/><path d="m79.25 254.8c0 .77-1.72 1.43-4.23 1.76a1.93 1.93 0 0 0 -1.67 1.67c-.32 2.5-1 4.22-1.76 4.22s-1.43-1.72-1.75-4.22a1.93 1.93 0 0 0 -1.67-1.67c-2.51-.33-4.23-1-4.23-1.76s1.72-1.44 4.23-1.76a1.94 1.94 0 0 0 1.67-1.67c.32-2.51 1-4.22 1.75-4.22s1.44 1.71 1.76 4.22a1.94 1.94 0 0 0 1.65 1.63c2.53.36 4.25 1 4.25 1.8z" fill="#fff" transform="translate(-63.94 -111.9)"/><path d="m444.8 204c0 .6-1.33 1.11-3.27 1.36a1.51 1.51 0 0 0 -1.3 1.3c-.25 1.94-.76 3.27-1.36 3.27s-1.11-1.33-1.36-3.27a1.51 1.51 0 0 0 -1.3-1.3c-1.94-.25-3.27-.76-3.27-1.36s1.33-1.11 3.27-1.36a1.51 1.51 0 0 0 1.3-1.3c.25-1.94.76-3.27 1.36-3.27s1.11 1.33 1.36 3.27a1.51 1.51 0 0 0 1.3 1.3c1.94.25 3.27.76 3.27 1.36z" fill="#fff" transform="translate(-63.94 -111.9)"/><path d="m269.79 117.83c0 .6-1.34 1.11-3.28 1.36a1.51 1.51 0 0 0 -1.29 1.3c-.25 1.94-.77 3.27-1.36 3.27s-1.12-1.33-1.37-3.27a1.51 1.51 0 0 0 -1.29-1.3c-1.94-.25-3.28-.76-3.28-1.36s1.34-1.11 3.28-1.36a1.51 1.51 0 0 0 1.29-1.3c.25-1.94.77-3.27 1.37-3.27s1.11 1.33 1.36 3.27a1.51 1.51 0 0 0 1.29 1.3c1.94.25 3.28.76 3.28 1.36z" fill="#fff" transform="translate(-63.94 -111.9)"/><circle cx="372.89" cy="66.54" fill="#fff" r="3.23"/><circle cx="220.41" cy="19.95" fill="#fff" r="3.23"/><g transform="translate(-63.94 -111.9)"><path d="m90.71 235.85a3.23 3.23 0 1 1 -3.23-3.22 3.23 3.23 0 0 1 3.23 3.22z" fill="#fff"/><path d="m280.49 286.35a7.14 7.14 0 0 1 -13.21 4.43.61.61 0 0 0 -1.12.15 7.13 7.13 0 0 1 -6.13 5.22 7.22 7.22 0 0 1 -7.84-6.34 7.12 7.12 0 0 1 3-6.61 5 5 0 0 0 2-4.81l-1.22-8.8 14.66-2 1.18 8.53a5 5 0 0 0 3.52 4.18 7.14 7.14 0 0 1 5.16 6.05z" fill="#fff"/><path d="m266 268.21-4.12.57v.32l3.84-.53.27-.12zm-4.75 1-2.74.38zm19.62 17.1a7.41 7.41 0 0 0 -2.94-5.17 7.62 7.62 0 0 0 -2.4-1.2 4.69 4.69 0 0 1 -3.28-3.9l-.45-3.27-.24-1.67-.28-2v-.1l-.17-1.19-.05-.33v-.24l-.79.11h-.06-.27l-.53.07-.65.09-.84.12-1.89.26-3.25.45-1.06.15-1.44.2-.38.05-3.58.5-.5.07v.25.33l.19 1.32.63 4.53.16 1.16.17 1.24v.29a4.74 4.74 0 0 1 -.53 3 4.34 4.34 0 0 1 -1.35 1.54 6.57 6.57 0 0 0 -.65.5 7.57 7.57 0 0 0 -1.26 1.4 7.39 7.39 0 0 0 -1.31 4.21 7.09 7.09 0 0 0 0 .79 6.19 6.19 0 0 0 .15.86 7.61 7.61 0 0 0 7.31 5.82 6.39 6.39 0 0 0 .75 0l.42-.06.41-.08.41-.1.41-.13c.26-.09.52-.2.78-.32a7.58 7.58 0 0 0 .74-.4l.15-.09.46-.33a7.49 7.49 0 0 0 2.63-4 .27.27 0 0 1 .23-.22.29.29 0 0 1 .29.15 7.39 7.39 0 0 0 4.81 3.44 6.8 6.8 0 0 0 1.75.16 6.29 6.29 0 0 0 1.05-.09 7.54 7.54 0 0 0 6.2-8.17zm-7.24 7.58a6.58 6.58 0 0 1 -1.66-.15 6.76 6.76 0 0 1 -4.35-3.13 1 1 0 0 0 -1-.47.94.94 0 0 0 -.77.71 6.79 6.79 0 0 1 -2.84 3.9 2.22 2.22 0 0 1 -.39.23 2.32 2.32 0 0 1 -.41.22h-.09a2 2 0 0 1 -.34.14 5 5 0 0 1 -.83.27 6 6 0 0 1 -.94.17 6.78 6.78 0 0 1 -5.22-1.72 3.58 3.58 0 0 1 -.44-.43 6.72 6.72 0 0 1 -1.8-3.75c0-.05 0-.1 0-.15a6.72 6.72 0 0 1 1.94-5.49 6.24 6.24 0 0 1 1-.81 4.66 4.66 0 0 0 .49-.39 5.12 5.12 0 0 0 1.56-2.7 5.37 5.37 0 0 0 .1-2l-.1-.71-.06-.47-.27-1.92-.56-4.07-.18-1.3h.13l1.93-.27 2.74-.37h.33l.32-.05 3.84-.53h.28l1.91-.26 2.31-.32h.16l.18 1.29.3 2.15.23 1.72.42 3a5.37 5.37 0 0 0 3.76 4.45 6.78 6.78 0 0 1 1.83.84 7.23 7.23 0 0 1 1.49 1.32 6.81 6.81 0 0 1 1.54 3.64 6.88 6.88 0 0 1 -5.66 7.43 5.62 5.62 0 0 1 -.93-.02z" fill="#5e2323"/><g opacity=".3"><path d="m252.19 289.81a7.12 7.12 0 0 1 3-6.61 5 5 0 0 0 2-4.82l-1.19-8.79 5.47-.76 1.2 8.7a5 5 0 0 1 -2 4.81 7.11 7.11 0 0 0 -3.05 6.61 7.23 7.23 0 0 0 5.43 6.16 7.14 7.14 0 0 1 -10.87-5.3z" fill="#6b184e"/><path d="m261.71 270.46h-.33l.2 1.45.31-.2zm2.14 24.54-.43-.11-.28-.07h-.14a6.48 6.48 0 0 1 -1.56-.64 6.74 6.74 0 0 1 -.57-11.5 5 5 0 0 0 2.1-3.39 2.57 2.57 0 0 0 .08-.62 4.69 4.69 0 0 0 0-1.12l-.19-1.39-.32-2.29-.31-2.24-.16-1.15-.18-1.3v-.32-.32h-.17l-1.44.2-.38.05-3.58.5-.5.07v.25.33l.19 1.32.63 4.53.16 1.16.17 1.24v.29a4.74 4.74 0 0 1 -.53 3 4.34 4.34 0 0 1 -1.35 1.54 6.57 6.57 0 0 0 -.65.5 7.57 7.57 0 0 0 -1.26 1.4 7.39 7.39 0 0 0 -1.31 4.21 7.09 7.09 0 0 0 0 .79 6.19 6.19 0 0 0 .15.86 7.61 7.61 0 0 0 7.31 5.82 6.39 6.39 0 0 0 .75 0l.42-.06.41-.08.41-.1.41-.13c.26-.09.52-.2.78-.32a7.58 7.58 0 0 0 .74-.4l.15-.09.51-.32zm-2.08.41a5 5 0 0 1 -.83.27 6 6 0 0 1 -.94.17 6.78 6.78 0 0 1 -5.22-1.72c-.15-.14-.3-.28-.44-.43a6.72 6.72 0 0 1 -1.8-3.75c0-.05 0-.1 0-.15a6.72 6.72 0 0 1 1.94-5.49 6.47 6.47 0 0 1 .85-.72l.11-.08a3.88 3.88 0 0 0 .49-.4 5 5 0 0 0 1.38-2.07 4.75 4.75 0 0 0 .2-.64 5.52 5.52 0 0 0 .08-2l-.1-.71-.06-.47-.27-1.92-.56-4.07-.18-1.3h.13l1.93-.27 2.74-.38.18 1.29.2 1.45.32 2.26.32 2.31.14 1a4.82 4.82 0 0 1 0 1.42 1.43 1.43 0 0 1 0 .22 4.43 4.43 0 0 1 -1.82 2.86 7.41 7.41 0 0 0 .12 12.32 7.68 7.68 0 0 0 1.59.81h-.09a1.63 1.63 0 0 1 -.41.16z" fill="#5e2323"/></g><path d="m282.12 286.17a8.73 8.73 0 0 0 -6.27-7.49 3.39 3.39 0 0 1 -2.35-2.82l-.52-3.75-.21-1.56-.28-2v-.16l-.15-1.08a.94.94 0 0 0 0-.16 1.21 1.21 0 0 0 -.11-.32 1.67 1.67 0 0 0 -.18-.28.52.52 0 0 0 -.1-.11 1.62 1.62 0 0 0 -1.43-.51l-.52.07h-.09l-.35.05-10.79 1.49-.51.08-.49.06-2 .28a1.57 1.57 0 0 0 -1.31 1.05 1.58 1.58 0 0 0 -.09.31 1.9 1.9 0 0 0 0 .34.66.66 0 0 0 0 .14l.18 1.27.73 5.3.05.37.26 1.86a2.85 2.85 0 0 1 0 .65 3.23 3.23 0 0 1 -1.34 2.58 8.77 8.77 0 0 0 -3.75 8.14 8.3 8.3 0 0 0 .53 2.17 9 9 0 0 0 8.23 5.68 8.64 8.64 0 0 0 7.73-4.67 8.73 8.73 0 0 0 7.78 2.6 8.9 8.9 0 0 0 7.35-8.69c.05-.29.03-.59 0-.89zm-13.43 3.76a2.25 2.25 0 0 0 -4.12.57 5.45 5.45 0 0 1 -3.13 3.61 2.74 2.74 0 0 1 -.4.15l-.43.13a6.54 6.54 0 0 1 -.75.13 5.57 5.57 0 0 1 -6-4.88 5.42 5.42 0 0 1 .06-1.56 5.5 5.5 0 0 1 2.28-3.52 6.61 6.61 0 0 0 2.78-5.46 7.41 7.41 0 0 0 -.07-.93l-.07-.48-.14-1-.32-2.34-.46-3.31 3.5-.48h.33.33l2.59-.35 4.65-.64.06.42.3 2.18.25 1.81.34 2.49a6.68 6.68 0 0 0 4.69 5.53l.54.19a5.5 5.5 0 0 1 2.14 1.56 5.41 5.41 0 0 1 1.24 2.93 5.54 5.54 0 0 1 -4.56 6 5.46 5.46 0 0 1 -5.63-2.75z" fill="#5e2323"/><path d="m272.93 254 1.17 8.41a4.61 4.61 0 0 1 -3.94 5.2l-13.67 1.89a4.61 4.61 0 0 1 -5.2-3.93l-1.17-8.41a16.09 16.09 0 0 0 -5.05-9.52c-13.78-12.84-20.06-37.35-7.21-52.18a23 23 0 0 1 30.08-4.17c16.4 10.78 17 36.07 7.27 52.17a16 16 0 0 0 -2.28 10.54z" fill="#d46051"/><path d="m281.6 214.59c-.05-.35-.09-.7-.14-1.05q-.22-1.57-.57-3.12c-.08-.34-.16-.68-.25-1s-.18-.7-.28-1-.19-.63-.29-1c-.11-.37-.24-.73-.36-1.09s-.21-.58-.32-.86c-.2-.52-.4-1-.62-1.52-.33-.76-.69-1.51-1.07-2.24s-.66-1.2-1-1.78a.21.21 0 0 0 0-.06 28.87 28.87 0 0 0 -3-4c-.34-.4-.71-.78-1.09-1.16l-.37-.37c-.18-.18-.36-.34-.54-.5s-.59-.55-.9-.8-.51-.43-.77-.63l-.12-.09c-.23-.18-.47-.35-.71-.52l-.13-.11-.88-.6h-.07l-.66-.41c-.25-.15-.5-.3-.76-.44h-.05a23.39 23.39 0 0 0 -2.25-1.1h-.05l-.66-.26-.49-.19a21.84 21.84 0 0 0 -2.22-.68c-.32-.08-.64-.16-1-.22l-.23-.05a23 23 0 0 0 -18.37 4.24q-.51.38-1 .78a23.72 23.72 0 0 0 -2.72 2.68 27.93 27.93 0 0 0 -5.5 9.84c-.13.4-.25.81-.36 1.21-.06.21-.12.41-.17.62-.12.47-.23.95-.33 1.43l-.09.47c-.1.53-.19 1.06-.26 1.59a36.83 36.83 0 0 0 -.06 9.56c0 .37.09.75.15 1.13.09.69.21 1.37.35 2.06.07.4.16.79.24 1.19l.21.85c.11.46.23.92.35 1.37.1.36.21.71.32 1.06a.19.19 0 0 0 0 .07c.2.65.41 1.31.64 2 0 .07 0 .14.07.2.21.57.43 1.14.66 1.7s.41 1 .63 1.51.31.71.48 1.06c.5 1 1 2.07 1.59 3.07q1.14 2 2.44 3.87a42.13 42.13 0 0 0 2.77 3.58c.49.56 1 1.11 1.51 1.65s1 1.05 1.57 1.55l.49.48c.16.16.33.33.48.5l.45.52a16 16 0 0 1 2.71 4.42 14.57 14.57 0 0 1 .8 3.1.36.36 0 0 1 0 .1l1.17 8.42a4.91 4.91 0 0 0 3.43 4 4.32 4.32 0 0 0 1.34.22h.34.33.13l1.93-.27 2.74-.37h.33l.32-.05 3.84-.53h.28l1.91-.26 2.31-.32a2.7 2.7 0 0 0 .41-.08h.07l.32-.09a4.82 4.82 0 0 0 1.23-.59 3.76 3.76 0 0 0 .69-.56 4.23 4.23 0 0 0 .71-.87 4.83 4.83 0 0 0 .75-3.34l-1.12-8.51a15.86 15.86 0 0 1 2.23-10.33 43 43 0 0 0 2.14-4c.21-.46.41-.92.61-1.39.4-.94.77-1.91 1.1-2.88.11-.31.21-.62.3-.94s.12-.36.18-.55c.15-.46.28-.93.41-1.41s.28-1.07.41-1.61l.09-.41a44.33 44.33 0 0 0 .81-4.58c0-.21 0-.42.07-.63.09-.68.15-1.37.19-2.05s.09-1.37.1-2.06a44.23 44.23 0 0 0 -.3-6.57zm-2 17.71c-.18.66-.37 1.31-.59 2a41.91 41.91 0 0 1 -1.86 4.83 38.42 38.42 0 0 1 -2.22 4.22 16.72 16.72 0 0 0 -1.6 3.47 12 12 0 0 0 -.44 1.56 15.86 15.86 0 0 0 -.42 3.63 14.82 14.82 0 0 0 .14 2.1l1 7.38.14 1a4.2 4.2 0 0 1 -.24 2.09 4.3 4.3 0 0 1 -.53 1 5.27 5.27 0 0 1 -.49.57l-.13.11a4 4 0 0 1 -.39.3 4.15 4.15 0 0 1 -1.81.73h-.06-.27l-.53.07-.65.09-.84.12-1.89.26-3.19.45-1 .13h-.17l-1.44.2-3.71.52h-.25a4.18 4.18 0 0 1 -1.66-.22 4.24 4.24 0 0 1 -1.43-.82 3.45 3.45 0 0 1 -.28-.26 3.33 3.33 0 0 1 -.25-.28 3.75 3.75 0 0 1 -.42-.62 4 4 0 0 1 -.3-.7 4 4 0 0 1 -.19-.78l-1.16-8.4a16.47 16.47 0 0 0 -5.16-9.71 45.27 45.27 0 0 1 -10.89-16.19c-.26-.63-.5-1.28-.72-1.92-.17-.51-.34-1-.5-1.52 0-.18-.11-.35-.16-.52-.2-.68-.39-1.36-.56-2s-.32-1.36-.45-2.05-.26-1.37-.36-2.06c-.08-.52-.14-1-.19-1.54a35.43 35.43 0 0 1 .11-9.15c.09-.69.21-1.38.36-2.06s.31-1.37.51-2.05a27.35 27.35 0 0 1 5.68-10.62 21.9 21.9 0 0 1 1.77-1.83c.3-.28.62-.56.94-.82a22.46 22.46 0 0 1 1.88-1.41c.34-.24.68-.45 1-.65a21.76 21.76 0 0 1 5.48-2.37c.57-.16 1.15-.3 1.74-.41a21.77 21.77 0 0 1 4.27-.42 20.39 20.39 0 0 1 2.7.17c.24 0 .48.06.71.09a24.19 24.19 0 0 1 2.63.57 19.15 19.15 0 0 1 2.14.71l.62.25q.41.16.81.36c.49.22 1 .47 1.44.73l.67.39.12.07a2.29 2.29 0 0 1 .29.18l.39.25c.32.21.63.42.93.64l.61.46.21.16.79.64c.25.21.5.42.73.64a24 24 0 0 1 2.18 2.22 27.73 27.73 0 0 1 3 4.13 31.59 31.59 0 0 1 1.87 3.61c.32.73.62 1.47.88 2.23s.47 1.36.67 2.05.38 1.36.54 2.06a42.27 42.27 0 0 1 1 10.69c0 .69-.05 1.37-.09 2.06s-.12 1.37-.2 2.05l-.09.73c-.19 1.46-.45 2.91-.78 4.34-.05.77-.22 1.4-.4 2.07z" fill="#5e2323"/><g opacity=".3"><path d="m251.29 265.59-1.17-8.41a16 16 0 0 0 -5.06-9.52c-13.77-12.84-20.05-37.35-7.2-52.19a23 23 0 0 1 20.65-7.74 23.08 23.08 0 0 0 -8.52 5.11c-14.29 13.45-10.52 38.47 1.88 52.64a16.12 16.12 0 0 1 4.07 10l.3 8.48a4.6 4.6 0 0 0 4.77 4.44l4.93-.18-9.46 1.32a4.62 4.62 0 0 1 -5.19-3.95z" fill="#6b184e"/><path d="m261 268.06a4.21 4.21 0 0 1 -2.2-.52 4.32 4.32 0 0 1 -.87-.62 4.24 4.24 0 0 1 -1.36-3l-.3-8.48a16.48 16.48 0 0 0 -4.15-10.19 45 45 0 0 1 -9.12-16.84c-.32-1-.59-2.12-.82-3.19-.05-.17-.08-.35-.12-.52-.1-.51-.2-1-.29-1.53-.05-.31-.11-.63-.15-.95l-.15-1.09c-.07-.56-.13-1.12-.17-1.68a39.81 39.81 0 0 1 .22-9l.06-.37c.09-.57.19-1.13.31-1.69s.3-1.38.49-2.05a28.17 28.17 0 0 1 7.82-13.23 22.78 22.78 0 0 1 5.76-4l.28-.13-.54-.11.5-.24-.55-.11-.51.26c-.22.1-.43.22-.64.34a23.31 23.31 0 0 0 -4.77 3.48 28.76 28.76 0 0 0 -8 13.71c-.18.67-.34 1.36-.48 2.05s-.26 1.37-.35 2.06l-.09.62a40.51 40.51 0 0 0 -.07 9.08c0 .33.07.66.11 1 .07.56.15 1.13.24 1.69l.06.35c.12.69.25 1.37.4 2.05.22 1 .48 2.07.78 3.1a45.78 45.78 0 0 0 9.29 17.34 15.82 15.82 0 0 1 4 9.78l.31 8.48a4.88 4.88 0 0 0 1.57 3.45l.31.27a4.75 4.75 0 0 0 2.35 1l1.44-.2 1.06-.15 3.25-.45zm5 .4v-.25-.33l-4.91.18a4.21 4.21 0 0 1 -2.2-.52 4.32 4.32 0 0 1 -.87-.62 4.24 4.24 0 0 1 -1.36-3l-.3-8.48a16.48 16.48 0 0 0 -4.15-10.19 45 45 0 0 1 -9.21-16.84c-.32-1-.59-2.12-.82-3.19-.05-.17-.08-.35-.12-.52-.1-.51-.2-1-.29-1.53-.05-.31-.11-.63-.15-.95l-.15-1.09c-.07-.56-.13-1.12-.17-1.68a39.81 39.81 0 0 1 .22-9l.06-.37c.09-.57.19-1.13.31-1.69s.3-1.38.49-2.05a28.17 28.17 0 0 1 7.82-13.23 22.78 22.78 0 0 1 5.76-4l.28-.13a3.54 3.54 0 0 1 .53-.23l.51-.22c.4-.17.82-.32 1.24-.46h.06l.59-.19.63-.21h.07-.25l-1.05-.15c-.56-.08-1.12-.14-1.69-.18a20.41 20.41 0 0 0 -2.47 0 21.53 21.53 0 0 0 -3.86.45l-.76.17a22.92 22.92 0 0 0 -8.54 4q-.51.38-1 .78a23.72 23.72 0 0 0 -2.72 2.68 27.93 27.93 0 0 0 -5.5 9.84c-.13.4-.25.81-.36 1.21-.06.2-.11.41-.16.62-.12.47-.23.95-.33 1.43l-.09.47q-.16.79-.27 1.59a37.36 37.36 0 0 0 -.06 9.57c0 .37.09.74.15 1.12.09.69.21 1.37.35 2.06.07.4.16.79.25 1.19.06.28.13.57.2.85.11.46.23.92.36 1.37.09.36.2.71.31 1.06a.19.19 0 0 0 0 .07c.19.65.41 1.31.65 2 0 .07 0 .14.07.2.2.57.42 1.14.65 1.71s.41 1 .64 1.5.31.71.48 1.06c.49 1.05 1 2.07 1.59 3.07a44.2 44.2 0 0 0 2.44 3.87 42.13 42.13 0 0 0 2.77 3.58c.49.56 1 1.11 1.51 1.65s1 1.05 1.57 1.55l.49.48.48.5.45.52a16.26 16.26 0 0 1 2.83 4.44 15.36 15.36 0 0 1 .8 3.1.36.36 0 0 1 0 .1l1.17 8.42a4.91 4.91 0 0 0 3.43 4 4.32 4.32 0 0 0 1.34.22h.34.33.13l1.93-.27 2.74-.38h.33l.32-.05 3.84-.53h.28zm-13.19-.53a3.33 3.33 0 0 1 -.25-.28 3.75 3.75 0 0 1 -.42-.62 4.34 4.34 0 0 1 -.3-.7 4.8 4.8 0 0 1 -.18-.77l-1.17-8.41a16.47 16.47 0 0 0 -5.16-9.71 45.27 45.27 0 0 1 -10.89-16.19c-.26-.63-.5-1.28-.72-1.92-.17-.51-.34-1-.5-1.52 0-.18-.11-.35-.16-.52-.2-.68-.39-1.36-.56-2s-.32-1.36-.45-2.05-.26-1.37-.36-2.06c-.08-.52-.14-1-.19-1.54a35.43 35.43 0 0 1 .11-9.15c.09-.69.21-1.38.36-2.06s.31-1.37.51-2.05a27.35 27.35 0 0 1 5.68-10.62 21.9 21.9 0 0 1 1.77-1.83c.31-.29.62-.56.94-.82a22.46 22.46 0 0 1 1.88-1.41c.34-.23.68-.44 1-.65a22.5 22.5 0 0 1 5.49-2.33 16.85 16.85 0 0 1 2-.45 17.73 17.73 0 0 1 2.19-.29l.87-.06h1c.54 0 1.09 0 1.64.06h.15l-.88.38-.51.24-.51.26c-.22.1-.43.22-.64.34a23.31 23.31 0 0 0 -4.77 3.48 28.76 28.76 0 0 0 -8 13.71c-.18.67-.34 1.36-.48 2.05s-.26 1.37-.35 2.06l-.09.62a40.51 40.51 0 0 0 -.07 9.08c0 .33.07.66.11 1 .07.56.15 1.13.24 1.69l.06.35c.12.69.25 1.37.4 2.05.22 1 .48 2.07.78 3.1a45.78 45.78 0 0 0 9.29 17.34 15.82 15.82 0 0 1 4 9.78l.31 8.48a4.88 4.88 0 0 0 1.57 3.45l.31.27a4.75 4.75 0 0 0 2.35 1l-.38.05-3.33.47h-.25a4.18 4.18 0 0 1 -1.66-.22 4.24 4.24 0 0 1 -1.43-.82 2.33 2.33 0 0 1 -.38-.26z" fill="#5e2323"/></g><g opacity=".55"><path d="m267.91 267.94a4.62 4.62 0 0 0 2.66-4.83l-1.17-8.4a16.1 16.1 0 0 1 2.27-10.55c6.51-10.72 8.4-25.52 4.1-37.39-3.15-.66-6.51-4.2-4.48-8.33a27.89 27.89 0 0 0 -6.88-6.45 23 23 0 0 0 -15.22-3.67 23 23 0 0 1 18.76 3c16.39 10.79 17 36.08 7.26 52.18a16 16 0 0 0 -2.27 10.5l1.16 8.41a4.62 4.62 0 0 1 -3.94 5.2z" fill="#fff"/><path d="m277.21 210.42c-.16-.69-.35-1.38-.56-2.06s-.37-1.15-.57-1.71l-.06-.17h-.18l-.51-.13a6.42 6.42 0 0 1 -3.82-3.21 4.86 4.86 0 0 1 -.12-4.06 4.43 4.43 0 0 1 .2-.45l.09-.18-.13-.17a26.83 26.83 0 0 0 -2.62-3 .16.16 0 0 0 -.07-.07c-.11-.12-.23-.24-.35-.35l-.38-.36-.72-.64-.17-.14c-.47-.4-1-.77-1.44-1.13a5.48 5.48 0 0 0 -.49-.35l-.7-.48-.75-.47c-.58-.35-1.17-.68-1.78-1h-.09a23.5 23.5 0 0 0 -4.65-1.68l-.54-.13-.58-.12-.51.24.55.11-.5.24.54.11c.33.06.66.14 1 .22a22.7 22.7 0 0 1 5.3 2.07c.43.23.85.48 1.26.74l.41.26c.4.27.8.54 1.19.84l.51.37c.22.17.44.34.65.52a5.58 5.58 0 0 1 .46.39c.24.2.47.41.7.62s.33.3.49.47a3.73 3.73 0 0 1 .35.34 26.67 26.67 0 0 1 2.32 2.65 5.71 5.71 0 0 0 -.52 3.08 5.5 5.5 0 0 0 .53 1.83 7 7 0 0 0 2.78 2.92 6.76 6.76 0 0 0 1.83.74c.15.43.3.87.43 1.31.22.67.41 1.36.59 2.06a42.1 42.1 0 0 1 1.22 10.69c0 .69 0 1.37-.07 2.06s-.08 1.36-.15 2.05c0 .24-.05.48-.09.73-.11 1-.25 2-.44 3-.08.49-.18 1-.29 1.46q-.06.35-.15.69c-.05.23-.1.45-.16.68-.11.46-.23.91-.36 1.36-.35 1.28-.76 2.54-1.23 3.77a42.65 42.65 0 0 1 -3.43 7.1 16.51 16.51 0 0 0 -2.32 10.76l1.17 8.41a4.28 4.28 0 0 1 -.65 2.89 4.21 4.21 0 0 1 -1.77 1.57l.84-.12.65-.09a4.93 4.93 0 0 0 1.1-1.47.09.09 0 0 0 0-.06 4.81 4.81 0 0 0 .45-2.81l-1.16-8.41a15.87 15.87 0 0 1 2.26-10.42 42.46 42.46 0 0 0 3.39-7 41 41 0 0 0 1.29-3.93c.13-.43.25-.87.35-1.31.07-.23.12-.47.18-.71l.06-.25c.14-.62.27-1.24.38-1.86.21-1.08.37-2.18.49-3.27 0-.26.07-.53.09-.8.07-.68.12-1.37.16-2.05s.06-1.38.06-2.06a42.14 42.14 0 0 0 -1.24-10.67zm4.39 4.17c-.05-.35-.09-.7-.14-1.05-.16-1-.35-2.09-.58-3.12l-.24-1c-.09-.35-.19-.7-.29-1s-.18-.64-.28-1c-.12-.37-.24-.73-.37-1.09s-.21-.58-.31-.86c-.2-.52-.4-1-.62-1.52-.33-.76-.69-1.51-1.07-2.24s-.66-1.2-1-1.78a.21.21 0 0 0 0-.06 28.87 28.87 0 0 0 -3-4c-.34-.4-.71-.78-1.09-1.16l-.37-.37c-.18-.18-.36-.34-.54-.5s-.59-.55-.9-.8-.51-.43-.77-.63l-.12-.09-.7-.53-.14-.1-.88-.6h-.07l-.65-.42c-.25-.15-.5-.3-.76-.44h-.05a23.39 23.39 0 0 0 -2.25-1.1h-.05l-.65-.25-.49-.17a19.14 19.14 0 0 0 -2.2-.66c-.35-.1-.7-.17-1-.24s-.8-.16-1.21-.22-1.12-.14-1.69-.18a22.58 22.58 0 0 0 -2.47 0 24 24 0 0 0 -3.86.45l-.76.17-.76.2.06.33.05.28a22.35 22.35 0 0 1 5.95.13c.19 0 .37.06.56.09l.54.11c.33.06.66.14 1 .22a22.7 22.7 0 0 1 5.3 2.07c.43.23.85.48 1.26.74l.41.26c.4.27.8.54 1.19.84l.51.37c.22.17.44.34.65.52a5.58 5.58 0 0 1 .46.39c.24.2.47.41.7.62s.33.3.49.47a3.73 3.73 0 0 1 .35.34 26.67 26.67 0 0 1 2.32 2.65 5.71 5.71 0 0 0 -.52 3.08 5.5 5.5 0 0 0 .53 1.83 7 7 0 0 0 2.78 2.92 6.76 6.76 0 0 0 1.83.74c.15.43.3.87.43 1.31.22.67.41 1.36.59 2.06a42.1 42.1 0 0 1 1.22 10.69c0 .69 0 1.37-.07 2.06s-.08 1.36-.15 2.05c0 .24-.05.48-.09.73-.11 1-.25 2-.44 3-.08.49-.18 1-.29 1.46q-.06.35-.15.69c-.05.23-.1.45-.16.68-.11.46-.23.91-.36 1.36-.35 1.28-.76 2.54-1.23 3.77a42.65 42.65 0 0 1 -3.43 7.1 16.51 16.51 0 0 0 -2.32 10.76l1.17 8.41a4.28 4.28 0 0 1 -.65 2.89 4.21 4.21 0 0 1 -1.77 1.57l-1 .46-.79.36-.27.12h.28l1.93-.27 2.3-.32.45-.08h.07l.32-.09a4.51 4.51 0 0 0 1.23-.59 4.12 4.12 0 0 0 .69-.56 4.23 4.23 0 0 0 .71-.87 4.83 4.83 0 0 0 .75-3.34l-1.4-8.64a15.86 15.86 0 0 1 2.23-10.33 43 43 0 0 0 2.14-4c.21-.46.41-.92.61-1.39.4-.94.76-1.9 1.1-2.88.11-.31.21-.62.3-.94s.12-.36.18-.55c.14-.47.28-.94.4-1.41.14-.54.28-1.07.41-1.61l.09-.41c.34-1.51.61-3 .8-4.58 0-.21.06-.42.07-.63.09-.68.15-1.37.19-2.05s.09-1.37.1-2.06a44.17 44.17 0 0 0 -.28-6.57zm-.45 8.58c0 .69-.12 1.37-.2 2.05l-.09.73c-.19 1.46-.45 2.91-.78 4.34-.14.68-.31 1.34-.49 2s-.37 1.31-.59 2a41.91 41.91 0 0 1 -1.86 4.83 38.42 38.42 0 0 1 -2.22 4.22 16.72 16.72 0 0 0 -1.6 3.47 12 12 0 0 0 -.44 1.56 15.86 15.86 0 0 0 -.42 3.63 14.83 14.83 0 0 0 .15 2.1l1 7.38.14 1a4.2 4.2 0 0 1 -.24 2.09 4.3 4.3 0 0 1 -.53 1 5.27 5.27 0 0 1 -.49.57l-.13.11a4 4 0 0 1 -.39.3 4.15 4.15 0 0 1 -1.81.73h-.06-.27l-.53.07a4.93 4.93 0 0 0 1.1-1.47.09.09 0 0 0 0-.06 4.81 4.81 0 0 0 .45-2.81l-1.16-8.41a15.87 15.87 0 0 1 2.31-10.27 42.46 42.46 0 0 0 3.39-7 41 41 0 0 0 1.29-3.93c.13-.43.25-.87.35-1.31.07-.23.12-.47.18-.71l.06-.25c.14-.62.27-1.24.38-1.86.21-1.08.37-2.18.49-3.27 0-.26.07-.53.09-.8.07-.68.12-1.37.16-2.05s.06-1.38.06-2.06a42.14 42.14 0 0 0 -1.2-10.69c-.16-.69-.35-1.38-.56-2.06s-.37-1.15-.57-1.71l-.06-.17h-.18l-.51-.13a6.42 6.42 0 0 1 -3.82-3.21 4.86 4.86 0 0 1 -.12-4.06 4.43 4.43 0 0 1 .2-.45l.09-.18-.13-.17a26.83 26.83 0 0 0 -2.62-3 .16.16 0 0 0 -.07-.07c-.11-.12-.23-.24-.35-.35l-.38-.36-.72-.64-.17-.14c-.47-.4-1-.77-1.44-1.13a5.48 5.48 0 0 0 -.49-.35l-.7-.48-.75-.47c-.58-.35-1.17-.68-1.78-1h-.09a23.5 23.5 0 0 0 -4.65-1.68l-.54-.13-.58-.12a23.61 23.61 0 0 0 -2.77-.37l.87-.06h1c.55 0 1.09 0 1.64.06h.15l.77.07.71.1a19.8 19.8 0 0 1 2.73.58 20.16 20.16 0 0 1 2.12.69l.63.25.81.35c.49.23 1 .47 1.44.73l.67.39.12.07a2.29 2.29 0 0 1 .29.18l.39.25c.32.21.63.42.93.64l.61.46.21.16.79.64c.25.21.5.42.73.64a24 24 0 0 1 2.18 2.22 27.73 27.73 0 0 1 3 4.13 31.59 31.59 0 0 1 1.87 3.61c.32.73.62 1.47.88 2.23s.47 1.36.67 2.05.38 1.36.54 2.06a42.27 42.27 0 0 1 1 10.69c-.01.64-.05 1.32-.09 2.01z" fill="#5e2323"/></g><path d="m282.21 210.42c-.15-.69-.32-1.38-.51-2.06s-.4-1.38-.62-2.05q-.48-1.44-1.08-2.82a32.12 32.12 0 0 0 -2.47-4.68 29.53 29.53 0 0 0 -2.91-3.88q-.8-.9-1.68-1.74c-.37-.36-.76-.71-1.16-1.05l-.5-.42a2.12 2.12 0 0 0 -.24-.2c-.29-.24-.59-.47-.89-.69l-.71-.5-.58-.4-.47-.3a24.32 24.32 0 0 0 -2.55-1.39l-.23-.11a22.89 22.89 0 0 0 -2.81-1.08 1.21 1.21 0 0 0 -.25-.08 22.05 22.05 0 0 0 -2.36-.6 24.8 24.8 0 0 0 -11.71.49 21.9 21.9 0 0 0 -3.12 1.12 24.51 24.51 0 0 0 -8.7 6.41 29.37 29.37 0 0 0 -6.22 11.91c-.19.67-.34 1.36-.48 2.05s-.25 1.37-.33 2.06a39 39 0 0 0 0 10.35v.34c.1.69.21 1.37.34 2.06s.28 1.37.44 2.05.41 1.63.65 2.43c.07.26.15.52.23.78.21.67.43 1.33.67 2 .22.64.47 1.27.72 1.9a47 47 0 0 0 11.21 16.53 14.51 14.51 0 0 1 4.55 8.55l1.17 8.41a6.27 6.27 0 0 0 4.92 5.26 6.67 6.67 0 0 0 1.27.13h.4.33.13l1.17-.16 3.5-.48h.33.33l2.59-.35 4.65-.64 1.1-.15h.2.06.26a1.92 1.92 0 0 0 .32-.09 5.52 5.52 0 0 0 1.26-.5 5 5 0 0 0 .73-.47 6.26 6.26 0 0 0 2.51-5.9l-1.17-8.4a14.59 14.59 0 0 1 2.05-9.47 40.86 40.86 0 0 0 2-3.64 44.17 44.17 0 0 0 2.37-6.05c.22-.66.41-1.33.59-2s.35-1.35.49-2a44.57 44.57 0 0 0 .85-5c0-.12 0-.24.05-.37.07-.68.14-1.37.18-2.05s.08-1.38.09-2.06a45.29 45.29 0 0 0 -.96-11zm-2.56 14.8c0 .27-.07.55-.11.83-.17 1.29-.4 2.57-.69 3.83-.15.68-.32 1.36-.5 2 0 .15-.09.3-.13.45s-.06.21-.1.32c-.11.4-.23.8-.36 1.19a40.52 40.52 0 0 1 -1.61 4.23 38.75 38.75 0 0 1 -2.35 4.53 17.81 17.81 0 0 0 -2.5 11.62l1.17 8.4a3 3 0 0 1 -2 3.23 1.89 1.89 0 0 1 -.41.1h-.09l-.35.05-10.79 1.49-.52.07-.48.07-1.53.21a3 3 0 0 1 -3.34-2.53l-1.17-8.4a17.81 17.81 0 0 0 -5.56-10.5 44.21 44.21 0 0 1 -10.7-16c-.26-.64-.5-1.3-.72-2-.08-.21-.15-.42-.21-.62-.16-.48-.31-1-.44-1.44s-.23-.81-.33-1.21c-.18-.68-.34-1.36-.47-2.05s-.27-1.37-.37-2.06-.23-1.6-.3-2.4a35.27 35.27 0 0 1 .21-8.29c.11-.69.24-1.38.39-2.06s.33-1.38.54-2.05a26.29 26.29 0 0 1 5.31-9.76 21.31 21.31 0 0 1 15.43-7.43h.69.74c.43 0 .85 0 1.27.09a19.3 19.3 0 0 1 2.28.35 18.85 18.85 0 0 1 2.42.66h.08q.9.3 1.77.69c.37.16.74.34 1.11.53s.78.41 1.17.64l.93.58c.27.18.54.36.8.55l.13.1.19.14.47.35.83.66.29.26a25.31 25.31 0 0 1 2.64 2.64 28.33 28.33 0 0 1 3.34 4.79c.32.59.63 1.19.91 1.81s.69 1.54 1 2.33.49 1.36.7 2.05.39 1.37.56 2.06a40.91 40.91 0 0 1 1.11 10.79c0 .68-.05 1.37-.1 2.06s-.17 1.37-.25 2.05z" fill="#5e2323"/><g opacity=".2"><path d="m265.71 232.51c-2.92.4-3.12-4-3.86-9.43s-1.74-9.72 1.15-10.08 5.89 3.65 6.63 9-1.01 10.11-3.92 10.51z" fill="#fff"/><path d="m270.11 223.17c0-.4-.08-.81-.13-1.21s-.09-.57-.14-.85c0 0 0-.09 0-.14v-.06a17.39 17.39 0 0 0 -.77-2.71 13 13 0 0 0 -1.6-3 7.28 7.28 0 0 0 -1.94-1.88 3.78 3.78 0 0 0 -2.5-.6 2.27 2.27 0 0 0 -1.58.88c-1 1.38-.67 4.12-.17 7.6v.26c.08.57.17 1.15.25 1.75a.09.09 0 0 0 0 0c.07.59.15 1.17.22 1.72v.33a30 30 0 0 0 1 5.18 4 4 0 0 0 1.24 2 2.18 2.18 0 0 0 1.36.45h.4a3.36 3.36 0 0 0 1.64-.72 7.9 7.9 0 0 0 2.5-4.89 12.71 12.71 0 0 0 .24-2 20.11 20.11 0 0 0 -.02-2.11zm-.72 3.07c-.3 2.65-1.28 4.74-2.69 5.57a2.76 2.76 0 0 1 -1 .37 1.61 1.61 0 0 1 -1.27-.29 3 3 0 0 1 -.85-1.26 25 25 0 0 1 -1.08-5.41c0-.14 0-.28 0-.42-.06-.53-.14-1.07-.21-1.63 0 0 0-.09 0-.14-.08-.6-.17-1.19-.25-1.76a.88.88 0 0 1 0-.16c-.48-3.24-.87-6 0-7.21a1.64 1.64 0 0 1 1.14-.62h.36a3.61 3.61 0 0 1 2.35 1 7.38 7.38 0 0 1 1.11 1.22 14.12 14.12 0 0 1 2.28 5.61c.06.31.11.62.15.94s.09.75.12 1.12a17.66 17.66 0 0 1 0 2.05c-.09.35-.12.69-.16 1.02z" fill="#5e2323"/></g><path d="m239.4 176.29-14.75 9.43 1.68 2.43a12.74 12.74 0 0 1 -4.54 18.46l-.5.26a12.73 12.73 0 0 1 -16.38-3.93l-10.13-14.43a14.57 14.57 0 0 1 8.22-23.09l15.3-4a5.08 5.08 0 0 0 3.69-6l-5.13-15.14a2.74 2.74 0 0 1 4.68-2.65l19.92 23.32a10.15 10.15 0 0 1 -2.06 15.34z" fill="#e36836"/><path d="m239.4 176.29-14.74 9.43 1.67 2.43a12.73 12.73 0 0 1 -4.53 18.46l-.5.26a12.73 12.73 0 0 1 -16.39-3.93l-.63-.9a12.69 12.69 0 0 0 11.43-.25l.5-.26a12.73 12.73 0 0 0 4.53-18.46 2.85 2.85 0 0 1 .81-4l12.27-7.84a10.16 10.16 0 0 0 2.06-15.37l-16.43-19.23a2.63 2.63 0 0 1 2.09 1l19.93 23.32a10.16 10.16 0 0 1 -2.07 15.34z" fill="#5e2323" opacity=".3"/><path d="m210.37 204.66a12.53 12.53 0 0 0 5.12 4.25 12.69 12.69 0 0 1 -10.17-5.41l-10.12-14.42a14.57 14.57 0 0 1 8.22-23.08l15.3-4a5.11 5.11 0 0 0 3.69-6l-5.14-15.13a2.74 2.74 0 0 1 4.68-2.66l.93 1.09a2.67 2.67 0 0 0 -.56 2.73l5.14 15.13a5.11 5.11 0 0 1 -3.69 6l-15.3 4a14.58 14.58 0 0 0 -8.22 23.1z" fill="#fff" opacity=".55"/><path d="m243 159.59-19.9-23.32a4.79 4.79 0 0 0 -8.19 4.65l5.09 15a3 3 0 0 1 -2.22 3.48l-15.3 4a17 17 0 0 0 -12.61 13.87 13.29 13.29 0 0 0 -.17 2.09 14.81 14.81 0 0 0 .11 2.2 17 17 0 0 0 3.31 8.13l.3.43 1.54 2.19 1.18 1.68.52.75.66.94 2.78 4 3.12 4.45a14.66 14.66 0 0 0 1.88 2.19 15.25 15.25 0 0 0 2.7 2.05 12.82 12.82 0 0 0 1.28.65 14.72 14.72 0 0 0 6.27 1.4 12.27 12.27 0 0 0 1.71-.11 13 13 0 0 0 2-.38 12.7 12.7 0 0 0 2-.67 10.88 10.88 0 0 0 1.2-.56l.5-.27.11-.06a14 14 0 0 0 2.89-2.05 14.78 14.78 0 0 0 2.24-19.32l-.05-.07-.42-.6 1.76-1.13 1.8-1.15.95-.61 2.57-1.64 5.87-3.75a12.23 12.23 0 0 0 2.52-18.46zm-1 9.23a8 8 0 0 1 -3.66 5.74l-10.13 6.44-3.09 2-1 .63s0 0 0 0l-.31.2-.23.15a2 2 0 0 0 -.5.46 1.91 1.91 0 0 0 -.35.68.94.94 0 0 0 0 .16 2.05 2.05 0 0 0 .32 1.58l.19.28.74 1.06.74 1.08a10.71 10.71 0 0 1 1.86 5.71 10.48 10.48 0 0 1 -.29 2.89 10.32 10.32 0 0 1 -1.17 2.85 10.58 10.58 0 0 1 -4.2 4l-.5.27-.22.11a10.52 10.52 0 0 1 -1.9.74 9.67 9.67 0 0 1 -2.05.35 10.62 10.62 0 0 1 -2.7-.13 10.81 10.81 0 0 1 -2.59-.81 6.24 6.24 0 0 1 -.68-.35 10 10 0 0 1 -2.45-1.86 10.8 10.8 0 0 1 -1.14-1.36l-4.82-6.69-1.41-2-.64-.92-.53-.75-1.15-1.64-1.67-2.38-.05-.06a13.19 13.19 0 0 1 -2.53-6.18 1.36 1.36 0 0 1 0-.2 11.67 11.67 0 0 1 0-2.21 12.9 12.9 0 0 1 9.68-11.27l15.3-4a7.12 7.12 0 0 0 5.13-8.39l-.06-.22-5.14-15.18a.62.62 0 0 1 .31-.81.78.78 0 0 1 .37-.11.65.65 0 0 1 .49.26l2.24 2.62 16 18.73 1.71 2a8.07 8.07 0 0 1 2.08 6.53z" fill="#5e2323"/><path d="m225.76 187.45-11 4.61 8.81-8.07a2.09 2.09 0 0 1 2.82 3.08 2.15 2.15 0 0 1 -.63.38z" fill="#5e2323"/><path d="m195.32 190.81a1.65 1.65 0 0 1 -1.26-.58l-.57-.7a1.65 1.65 0 1 1 2.59-2l.49.6a1.64 1.64 0 0 1 -1.25 2.71z" fill="#5e2323"/><path d="m214.31 171.69c1.54 1.63-1.12 3.72-4.14 6.58s-5.26 5.4-6.8 3.77-.35-5.28 2.67-8.13 6.72-3.85 8.27-2.22z" fill="#fff" opacity=".2"/><path d="m274.57 165.7a7.21 7.21 0 0 1 9.25 3.21 7.12 7.12 0 0 1 -.93 8 .61.61 0 0 0 .5 1 7.13 7.13 0 1 1 -3.95 12.79 5 5 0 0 0 -5.2-.41l-8 3.89-6.5-13.3 7.74-3.78a5 5 0 0 0 2.88-4.64 7.1 7.1 0 0 1 4.21-6.76z" fill="#fff"/><path d="m286.67 191.52a7.08 7.08 0 0 1 -7.22-.84 5 5 0 0 0 -5.21-.41l-8 3.9-2.42-5 7.89-3.85a5 5 0 0 1 5.2.41 7.1 7.1 0 0 0 7.23.84 7.22 7.22 0 0 0 4.16-7.08 7.14 7.14 0 0 1 -1.65 12z" fill="#5e2323" opacity=".3"/><path d="m276.64 187.68a7.35 7.35 0 0 0 -3.29.74l-3.91 1.91-1.37.66-.34.17-.34.17-.16.08.7 1.43.09.2a1.6 1.6 0 0 1 .1.23l1.21-.59.32-.16.16-.08.16-.07h.1s0 0 0 0c.17-.15.33-.3.51-.44a4.23 4.23 0 0 1 .41-.33q.45-.35.93-.66a13.86 13.86 0 0 1 1.5-.86l.52-.25.45-.2a15.15 15.15 0 0 1 5.18-1.16 6.9 6.9 0 0 0 -2.93-.79zm15.49-6.43a9.12 9.12 0 0 0 -6.29-5.19 9.16 9.16 0 0 0 -.19-8.1 9.32 9.32 0 0 0 -11.92-4.14 9.16 9.16 0 0 0 -5.41 8.69 3 3 0 0 1 -1.72 2.72l-6.37 3.11-1.37.67a2.05 2.05 0 0 0 -.88.84 2 2 0 0 0 -.06 1.91l.23.48.22.45 1.8 3.68.71 1.46.18.38.18.36.78 1.59.23.49.25.51.93 1.91.72 1.47.12.27.05.1a2.08 2.08 0 0 0 1.18 1 2.19 2.19 0 0 0 .51.1h.4a1.82 1.82 0 0 0 .65-.2l1.07-.52.31-.15.3-.14.18-.09.72-.35 1.28-.62.31-.16.3-.15 1.27-.62 2.2-1.08a3 3 0 0 1 3.06.21 1.07 1.07 0 0 0 .22.15 9.13 9.13 0 0 0 9.09.92 8.67 8.67 0 0 0 2.69-1.87 7.1 7.1 0 0 0 1.05-1.26 6.17 6.17 0 0 0 .61-1 6.65 6.65 0 0 0 .44-1 8.48 8.48 0 0 0 .51-2 8.86 8.86 0 0 0 -.54-4.83zm-3.67 5.55a4.53 4.53 0 0 1 -.6 1.13 4.38 4.38 0 0 1 -.83.94 4.73 4.73 0 0 1 -1.2.77l-.39.16a5.09 5.09 0 0 1 -4.08-.32 5.87 5.87 0 0 1 -.67-.43 6 6 0 0 0 -1.08-.66 6.9 6.9 0 0 0 -3-.71 7.35 7.35 0 0 0 -3.29.74l-3.91 1.91-1.37.66-.34.17-.34.17-.16.08-.13-.26-.07-.15-.19-.4-.26-.51-.86-1.77-.09-.18-3.09-6.32 5.89-2.88a7.1 7.1 0 0 0 4-6.56 5 5 0 0 1 3-4.79 5.08 5.08 0 0 1 5.92 7.95 2.66 2.66 0 0 0 2.15 4.41 5 5 0 0 1 4.51 2.29 5.21 5.21 0 0 1 .38.7 5 5 0 0 1 .33 3 5.69 5.69 0 0 1 -.23.86zm-11.82.88a7.35 7.35 0 0 0 -3.29.74l-3.91 1.91-1.37.66-.34.17-.34.17-.16.08.7 1.43.09.2a1.6 1.6 0 0 1 .1.23l1.21-.59.32-.16.16-.08.16-.07h.1s0 0 0 0c.17-.15.33-.3.51-.44a4.23 4.23 0 0 1 .41-.33q.45-.35.93-.66a13.86 13.86 0 0 1 1.5-.86l.52-.25.45-.2a15.15 15.15 0 0 1 5.18-1.16 6.9 6.9 0 0 0 -2.93-.79z" fill="#5e2323"/><path d="m246.2 182.94 7.63-3.72a4.61 4.61 0 0 1 6.17 2.12l6.06 12.41a4.62 4.62 0 0 1 -2.12 6.16l-7.63 3.73a16.07 16.07 0 0 0 -7.48 7.76c-7.91 17.09-29.25 30.69-47.34 23.1a23 23 0 0 1 -13.33-27.29c5.14-18.94 29-27.41 47.32-23.15a16 16 0 0 0 10.72-1.12z" fill="#e36836"/><path d="m263.94 199.91-7.63 3.73a16 16 0 0 0 -7.47 7.77c-7.92 17.09-29.25 30.68-47.36 23.09a22.94 22.94 0 0 1 -13.78-17.21 23 23 0 0 0 7.5 6.5c17.24 9.39 39.84-2 49.45-18.18a16.14 16.14 0 0 1 8.22-7l8-2.92a4.6 4.6 0 0 0 2.74-5.92l-1.7-4.63 4.19 8.58a4.62 4.62 0 0 1 -2.16 6.19z" fill="#5e2323" opacity=".3"/><path d="m261.48 184.17a4.6 4.6 0 0 0 -5.41-1l-7.63 3.73a16.07 16.07 0 0 1 -10.73 1.1c-12.21-2.84-26.86 0-36.81 7.75.36 3.2-2 7.5-6.51 6.85a27.65 27.65 0 0 0 -4 8.54 22.89 22.89 0 0 0 1.25 15.61 23 23 0 0 1 -3-18.75c5.15-18.94 29-27.4 47.33-23.14a16 16 0 0 0 10.72-1.13l7.63-3.72a4.61 4.61 0 0 1 6.16 2.12z" fill="#fff" opacity=".55"/><path d="m263 198.06-7.62 3.73a17.76 17.76 0 0 0 -5.76 4.52 18.81 18.81 0 0 0 -1.49 2.05 17.1 17.1 0 0 0 -1.13 2.06l-.06.12a41.55 41.55 0 0 1 -5.65 8.89 3.73 3.73 0 0 1 -.33.38 3.48 3.48 0 0 1 -.26.3c-.27.33-.56.66-.86 1-.64.71-1.31 1.39-2 2.06h2.89c.11-.11.22-.23.32-.35a2.27 2.27 0 0 0 .26-.28l.31-.32s0 0 0 0c.31-.34.61-.69.92-1h2.64a44.37 44.37 0 0 0 5.47-8.84 13.28 13.28 0 0 1 1-1.85 13.42 13.42 0 0 1 1.61-2.06 13.84 13.84 0 0 1 2.42-2.05 12.31 12.31 0 0 1 1.45-.83l5.72-2.79a14.86 14.86 0 0 1 .05-2.31 14.07 14.07 0 0 1 .3-2c0-.17.07-.33.12-.5a2.06 2.06 0 0 1 -.32.07zm5.54-2.69a.08.08 0 0 0 0 0 4.28 4.28 0 0 0 -.05-.49 5.58 5.58 0 0 0 -.13-.69c-.06-.22-.13-.45-.21-.67a1.54 1.54 0 0 0 -.08-.19 1.6 1.6 0 0 0 -.1-.23l-.09-.2-.7-1.43-.13-.26-.05-.21-.19-.4-.26-.51-.86-1.77-.09-.18-3.09-6.32-.67-1.37a4.31 4.31 0 0 0 -.26-.47 6.12 6.12 0 0 0 -1.35-1.63 6.66 6.66 0 0 0 -7.3-1l-7.63 3.73a14.09 14.09 0 0 1 -9.35 1l-1.31-.28c-1-.2-2-.36-3.06-.49s-2.23-.23-3.37-.28a46.23 46.23 0 0 0 -8 .28 48.6 48.6 0 0 0 -14.68 4c-.68.32-1.35.65-2 1s-1.34.71-2 1.1-1.51.92-2.24 1.43c-.4.27-.8.55-1.19.85-.55.4-1.09.82-1.61 1.26l-.89.77c-.23.19-.45.39-.66.59a30.46 30.46 0 0 0 -8.68 14c0 .12-.08.24-.11.36-.15.56-.28 1.13-.39 1.69s-.17.89-.23 1.34q-.06.36-.09.72a24.62 24.62 0 0 0 .24 7.23 24.06 24.06 0 0 0 .89 3.46c.22.7.49 1.38.78 2.06s.53 1.18.83 1.75c.06.1.11.2.16.3a25 25 0 0 0 9.33 9.66c.27.17.54.32.82.46a20.83 20.83 0 0 0 2.18 1c.39.16.78.32 1.17.45l.34.13a24.88 24.88 0 0 0 3.1.91 29.6 29.6 0 0 0 6.92.81 38.91 38.91 0 0 0 20.51-6.36q.57-.35 1.11-.72a0 0 0 0 0 0 0 1.38 1.38 0 0 0 .25-.17l.29-.2c.37-.24.73-.5 1.09-.77 1-.74 2-1.52 3-2.34s2.09-1.86 3.08-2.86l.22-.22.29-.3q.74-.75 1.41-1.53c.6-.67 1.17-1.36 1.73-2.06a44.37 44.37 0 0 0 5.47-8.84 13.28 13.28 0 0 1 1-1.85 13.42 13.42 0 0 1 1.61-2.06 13.84 13.84 0 0 1 2.42-2.05 12.31 12.31 0 0 1 1.45-.83l5.72-2.79 1.91-.93.12-.07a3.29 3.29 0 0 0 .52-.29 6.44 6.44 0 0 0 1.7-1.54 6.66 6.66 0 0 0 1.4-4c.08-.18.08-.33.07-.49zm-5.17 2.46a2.06 2.06 0 0 1 -.37.23l-7.62 3.73a17.76 17.76 0 0 0 -5.76 4.52 18.81 18.81 0 0 0 -1.49 2.05 17.1 17.1 0 0 0 -1.13 2.06l-.06.12a41.55 41.55 0 0 1 -5.65 8.89 3.73 3.73 0 0 1 -.33.38 3.48 3.48 0 0 1 -.26.3c-.27.33-.56.66-.86 1-.64.71-1.31 1.39-2 2.06s-1.49 1.4-2.27 2.05c-.48.42-1 .82-1.48 1.21l-1.11.83-.3.22-.25.18-.09.07-1 .7c-6.11 4-13.12 6.42-20.05 6.14a22.11 22.11 0 0 1 -2.43-.2l-.71-.1c-.3 0-.59-.09-.89-.15l-.72-.16s0 0 0 0a14.29 14.29 0 0 1 -1.43-.37 22.71 22.71 0 0 1 -2.8-1 21 21 0 0 1 -9.18-7.37 18.7 18.7 0 0 1 -1.25-2.05 18.36 18.36 0 0 1 -1-2.06c-.08-.19-.15-.37-.21-.56a19.54 19.54 0 0 1 -1.06-4.21 20.82 20.82 0 0 1 0-5.9c.1-.68.23-1.37.4-2.06 0-.2.1-.41.15-.61.13-.49.28-1 .44-1.44a26.73 26.73 0 0 1 6.74-10.6c.46-.45.94-.89 1.43-1.31l.1-.09c.51-.44 1-.87 1.59-1.28.38-.29.76-.56 1.16-.83a35.89 35.89 0 0 1 3.38-2.12c.65-.35 1.31-.68 2-1q1-.47 2-.87a44.66 44.66 0 0 1 12.88-3h.33.43c1-.07 2-.11 3-.11h1.23c.78 0 1.56.06 2.33.12a41 41 0 0 1 5.7.89 18.23 18.23 0 0 0 12.1-1.28l7.62-3.72a2.55 2.55 0 0 1 3.42 1.17l.22.45 1.8 3.68.71 1.46.18.38.18.36.78 1.59.23.49.25.51.93 1.91.72 1.47.12.27v.13a2.54 2.54 0 0 1 -.76 2.83zm-.37.23-7.62 3.73a17.76 17.76 0 0 0 -5.76 4.52 18.81 18.81 0 0 0 -1.49 2.05 17.1 17.1 0 0 0 -1.13 2.06l-.06.12a41.55 41.55 0 0 1 -5.65 8.89 3.73 3.73 0 0 1 -.33.38 3.48 3.48 0 0 1 -.26.3c-.27.33-.56.66-.86 1-.64.71-1.31 1.39-2 2.06h2.89c.11-.11.22-.23.32-.35a2.27 2.27 0 0 0 .26-.28l.31-.32s0 0 0 0c.31-.34.61-.69.92-1h2.64a44.37 44.37 0 0 0 5.47-8.84 13.28 13.28 0 0 1 1-1.85 13.42 13.42 0 0 1 1.61-2.06 13.84 13.84 0 0 1 2.42-2.05 12.31 12.31 0 0 1 1.45-.83l5.72-2.79a14.86 14.86 0 0 1 .05-2.31 14.07 14.07 0 0 1 .3-2c0-.17.07-.33.12-.5a2.06 2.06 0 0 1 -.32.07z" fill="#5e2323"/><path d="m228 196.51c1.29 2.65-2.86 4.21-7.76 6.6s-8.7 4.68-10 2 1.64-6.73 6.55-9.11 9.94-2.14 11.21.51z" fill="#fff" opacity=".2"/><path d="m311.85 209.61-17 4.06.78 2.84a12.73 12.73 0 0 1 -10.34 16l-.56.09a12.71 12.71 0 0 1 -14.18-9.1l-4.85-17a14.58 14.58 0 0 1 15.35-19.11l15.77 1.24a5.1 5.1 0 0 0 5.46-4.47l.12-16a2.74 2.74 0 0 1 5.29-1l11.16 28.58a10.15 10.15 0 0 1 -7 13.87z" fill="#e36836"/><path d="m311.86 209.62-17 4.06.78 2.84a12.74 12.74 0 0 1 -10.35 15.95l-.56.08a12.71 12.71 0 0 1 -14.18-9.1l-.3-1a12.73 12.73 0 0 0 10.88 3.52l.56-.09a12.72 12.72 0 0 0 10.31-15.99 2.85 2.85 0 0 1 2.08-3.53l14.17-3.36a10.17 10.17 0 0 0 7-13.84l-9.2-23.56a2.67 2.67 0 0 1 1.64 1.62l11.17 28.57a10.16 10.16 0 0 1 -7 13.83z" fill="#5e2323" opacity=".3"/><path d="m275.35 227.24a12.49 12.49 0 0 0 3.44 5.7 12.71 12.71 0 0 1 -7.83-8.45l-4.82-17a14.58 14.58 0 0 1 15.35-19.11l15.76 1.24a5.11 5.11 0 0 0 5.47-4.47l.12-16a2.74 2.74 0 0 1 5.29-1l.52 1.33a2.63 2.63 0 0 0 -1.42 2.39l-.12 16a5.1 5.1 0 0 1 -5.47 4.47l-15.76-1.24a14.58 14.58 0 0 0 -15.35 19.11z" fill="#fff" opacity=".55"/><path d="m280.69 189.05a6 6 0 0 0 -1.08-.66 15.15 15.15 0 0 0 -5.18 1.16l-.45.2-.52.25a13.86 13.86 0 0 0 -1.5.86q-.48.31-.93.66l-.41.33c-.18.14-.34.29-.51.44h-.1l-.16.07-.16.08-.32.16-1.21.59a1.54 1.54 0 0 1 .08.19c.08.22.15.45.21.67l-.25.33-.2.28-.19.27c-.1.16-.21.32-.3.49a4.91 4.91 0 0 0 -.28.5 1.82 1.82 0 0 1 -.65.2v.25c0 .08 0 .16-.05.25a4.58 4.58 0 0 1 -2.48 3.2l-1 .47a14.86 14.86 0 0 0 -.05 2.31 17.17 17.17 0 0 0 .57 3.62c.07.27.15.53.23.79l.36 1.26.59 2.06.8 2.81a7.28 7.28 0 0 1 1.94 1.88 13 13 0 0 1 1.6 3l.77 2.71v.27.14h2.14l-3-10.69-.58-2.06-.58-2.05-.11-.37a.24.24 0 0 1 0-.08 12.76 12.76 0 0 1 -.48-6c0-.22.07-.44.12-.65a11.69 11.69 0 0 1 1.28-3.35 2.61 2.61 0 0 1 .17-.28l.18-.3.11-.16c.13-.21.28-.41.43-.61a11.4 11.4 0 0 1 .84-1c.08-.08.15-.16.23-.23l.22-.23a11.88 11.88 0 0 1 1-.87 13.1 13.1 0 0 1 5.08-2.4 13.17 13.17 0 0 1 3-.34h1.06.47a5.87 5.87 0 0 1 -.75-.42zm40.08 6-11.16-28.57a4.8 4.8 0 0 0 -9.27 1.7l-.12 15.82a3 3 0 0 1 -3.24 2.56l-4.16-.33-2-.16-2.06-.16-3-.24-4.45-.35a16.71 16.71 0 0 0 -4.54.25 17.06 17.06 0 0 0 -8.28 4c-.34.3-.66.61-1 .94l-.23.24-.26.25-.05.06c-.29.33-.57.68-.84 1l-.32.45-.18.27s0 0 0 0l-.18.28a15.33 15.33 0 0 0 -1 1.91s0 0 0 0a15.23 15.23 0 0 0 -1 2.78c0 .17-.08.33-.12.5a14.07 14.07 0 0 0 -.3 2 14.86 14.86 0 0 0 -.05 2.31 17.17 17.17 0 0 0 .57 3.62c.07.27.15.53.23.79l.36 1.26.59 2.06.8 2.81.14.5.16.55 1.94 6.83.59 2.06.24.84c.12.41.25.81.4 1.21s.28.69.44 1a5 5 0 0 0 .26.52 5.06 5.06 0 0 0 .24.46 14.63 14.63 0 0 0 6.16 5.89 2.49 2.49 0 0 0 .28.15l.31.15c.37.16.74.32 1.12.45s.82.28 1.24.39l.33.08.31.07c.43.1.86.17 1.3.23a15.78 15.78 0 0 0 1.83.11 14.21 14.21 0 0 0 2.25-.17l.56-.08a14.82 14.82 0 0 0 10.16-6.57 13.79 13.79 0 0 0 1.37-2.71 12.44 12.44 0 0 0 .63-2.05 13.16 13.16 0 0 0 .32-2.06 14.68 14.68 0 0 0 -.46-5.14l-.22-.79 14.95-3.57a11.62 11.62 0 0 0 1.42-.43 11.32 11.32 0 0 0 2.1-1 10.79 10.79 0 0 0 1.69-1.24 12 12 0 0 0 2.85-3.67 12.15 12.15 0 0 0 .35-10.11zm-28.2 30.19c-.09.16-.18.32-.28.47a10.7 10.7 0 0 1 -7.33 4.74l-.56.09a10.59 10.59 0 0 1 -2.38.09 9.31 9.31 0 0 1 -1.29-.18 1.7 1.7 0 0 1 -.31-.06l-.34-.08a10.43 10.43 0 0 1 -1.23-.41 8.27 8.27 0 0 1 -1.24-.59 1.5 1.5 0 0 1 -.32-.19 1.4 1.4 0 0 1 -.28-.17 9 9 0 0 1 -1.48-1.14 10 10 0 0 1 -2-2.57 5.7 5.7 0 0 1 -.37-.69 8.92 8.92 0 0 1 -.53-1.36l-.09-.28-.51-1.78-3-10.69-.58-2.06-.58-2.05-.11-.37a.24.24 0 0 1 0-.08 12.76 12.76 0 0 1 -.48-6c0-.22.07-.44.12-.65a11.69 11.69 0 0 1 1.28-3.35 2.61 2.61 0 0 1 .17-.28l.18-.3.11-.16c.13-.21.28-.41.43-.61a11.4 11.4 0 0 1 .84-1c.08-.08.15-.16.23-.23l.22-.23a11.88 11.88 0 0 1 1-.87 13.1 13.1 0 0 1 5.08-2.4 13.17 13.17 0 0 1 3-.34h1.06.47l4.08.32 3.32.26 2.48.2 5.4.42a7.12 7.12 0 0 0 7.67-6.28 1.62 1.62 0 0 0 0-.22l.13-16a.68.68 0 0 1 1.31-.24l1.48 3.77 8.66 22.41 1 2.48a8.12 8.12 0 0 1 -3.31 10.11 7.91 7.91 0 0 1 -2.27.92l-3.14.75-8.64 2.06-3.83.91-.7.17-.69.16a1.89 1.89 0 0 0 -.6.26 2.25 2.25 0 0 0 -.65.69 2.06 2.06 0 0 0 -.21 1.59l.43 1.58.35 1.26a10.67 10.67 0 0 1 .3 4.05 7.06 7.06 0 0 1 -.15.92 7.35 7.35 0 0 1 -.3 1.14 9.86 9.86 0 0 1 -1.02 2.07zm-11.88-36.17a6 6 0 0 0 -1.08-.66 15.15 15.15 0 0 0 -5.18 1.16l-.45.2-.52.25a13.86 13.86 0 0 0 -1.5.86q-.48.31-.93.66l-.41.33c-.18.14-.34.29-.51.44h-.1l-.16.07-.16.08-.32.16-1.21.59a1.54 1.54 0 0 1 .08.19c.08.22.15.45.21.67l-.25.33-.2.28-.19.27c-.1.16-.21.32-.3.49a4.91 4.91 0 0 0 -.28.5 1.82 1.82 0 0 1 -.65.2v.25c0 .08 0 .16-.05.25a4.58 4.58 0 0 1 -2.48 3.2l-1 .47a14.86 14.86 0 0 0 -.05 2.31 17.17 17.17 0 0 0 .57 3.62c.07.27.15.53.23.79l.36 1.26.59 2.06.8 2.81a7.28 7.28 0 0 1 1.94 1.88 13 13 0 0 1 1.6 3l.77 2.71v.25.14h2.14l-3-10.69-.58-2.06-.58-2.05-.11-.37a.24.24 0 0 1 0-.08 12.76 12.76 0 0 1 -.48-6c0-.22.07-.44.12-.65a11.69 11.69 0 0 1 1.28-3.35 2.61 2.61 0 0 1 .17-.28l.18-.3.11-.16c.13-.21.28-.41.43-.61a11.4 11.4 0 0 1 .84-1c.08-.08.15-.16.23-.23l.22-.23a11.88 11.88 0 0 1 1-.87 13.1 13.1 0 0 1 5.08-2.4 13.17 13.17 0 0 1 3-.34h1.06.47a5.87 5.87 0 0 1 -.75-.42z" fill="#5e2323"/><path d="m295.31 215.67-11.93.74 11-4.74a2.09 2.09 0 0 1 1.66 3.84 2 2 0 0 1 -.73.16z" fill="#5e2323"/><path d="m266 208.94a1.63 1.63 0 0 1 -1.53-1.06c-.12-.28-.22-.57-.31-.85a1.64 1.64 0 1 1 3.11-1.07c.08.25.17.49.26.74a1.64 1.64 0 0 1 -.94 2.13 1.71 1.71 0 0 1 -.59.11z" fill="#5e2323"/><path d="m289.67 197c.92 2.05-2.28 3.14-6.07 4.85s-6.74 3.37-7.67 1.32 1.41-5.09 5.2-6.8 7.62-1.37 8.54.63z" fill="#fff" opacity=".2"/><path d="m132.82 166a7.21 7.21 0 0 1 .52-9.78 7.12 7.12 0 0 1 7.9-1.31.61.61 0 0 0 .85-.76 7.14 7.14 0 0 1 2.12-7.77 7.24 7.24 0 0 1 10.06.83 7.11 7.11 0 0 1 1.2 7.18 5 5 0 0 0 1.05 5.11l6 6.59-11 9.93-5.78-6.38a5 5 0 0 0 -5.26-1.48 7.1 7.1 0 0 1 -7.66-2.16z" fill="#fff"/><path d="m162.77 165.93-1.39-1.53-4.61-5.1a4.68 4.68 0 0 1 -1-4.77 7.43 7.43 0 0 0 -1.26-7.51 7.56 7.56 0 0 0 -10.52-.87 7.43 7.43 0 0 0 -2.23 8.13.26.26 0 0 1 -.06.3.3.3 0 0 1 -.33.05 7.46 7.46 0 1 0 -.82 13.87 4.69 4.69 0 0 1 4.91 1.38l4.45 4.9 1.39 1.54.17.19 6.21-5.62 5.25-4.76zm-12.4 8.36-4.4-4.87a5.48 5.48 0 0 0 -4-1.81 5 5 0 0 0 -1.58.25 7 7 0 0 1 -2.11.33 6.76 6.76 0 0 1 -5.17-2.4 6.85 6.85 0 0 1 .49-9.31 6.77 6.77 0 0 1 7.54-1.26.94.94 0 0 0 1.29-1.17 6.72 6.72 0 0 1 .34-5.23 6.62 6.62 0 0 1 1.69-2.17 6.88 6.88 0 0 1 9.59.79 6.8 6.8 0 0 1 1.14 6.84 5.35 5.35 0 0 0 1.11 5.45l4.59 5.06 1.15 1.28-3.85 3.48-6.64 6z" fill="#5e2323"/><path d="m154.27 147.22a7.11 7.11 0 0 1 1.2 7.18 5 5 0 0 0 1.05 5.11l6 6.59-4.09 3.7-5.89-6.52a5 5 0 0 1 -1.05-5.1 7.1 7.1 0 0 0 -1.2-7.18 7.2 7.2 0 0 0 -7.95-2 7.12 7.12 0 0 1 12-1.74z" fill="#5e2323" opacity=".3"/><path d="m164.36 165.3a1.76 1.76 0 0 0 -.36-.58l-1-1.16-5-5.43a3 3 0 0 1 -.65-3 9.18 9.18 0 0 0 -1.55-9.25 9.31 9.31 0 0 0 -13-1.06 9.1 9.1 0 0 0 -3.23 7.48 9.18 9.18 0 0 0 -7.73 2.43 9.32 9.32 0 0 0 -.67 12.6 9.16 9.16 0 0 0 9.85 2.79 3 3 0 0 1 3.1.9l4.75 5.25 1 1.13a2 2 0 0 0 .57.44 1.93 1.93 0 0 0 .85.23h.11a2.07 2.07 0 0 0 1.38-.53l.34-.31.05-.05.54-.48 8.59-7.7 1.2-1.09.18-.15.17-.16a2 2 0 0 0 .51-2.3zm-17.11 3a7.17 7.17 0 0 0 -5.31-2.39 6.66 6.66 0 0 0 -2.11.34 5.07 5.07 0 0 1 -5.44-1.54 5.12 5.12 0 0 1 .37-7 5 5 0 0 1 5.63-.94 2.67 2.67 0 0 0 2.93-.46 2.64 2.64 0 0 0 .71-2.84 5.05 5.05 0 0 1 .95-5 4.23 4.23 0 0 1 .56-.56 5.15 5.15 0 0 1 7.16.59 5 5 0 0 1 .85 5.11 7.09 7.09 0 0 0 1.44 7.23l4.58 5.06-2.57 2.37-5.37 4.86z" fill="#5e2323"/><path d="m157.26 188.48-5.69-6.29a4.62 4.62 0 0 1 .32-6.52l10.24-9.26a4.61 4.61 0 0 1 6.51.32l5.7 6.3a16.09 16.09 0 0 0 9.54 5c18.61 2.86 37.59 19.59 35.32 39.08a23 23 0 0 1 -22.51 20.38c-19.63.32-34.38-20.23-35.37-39a16.1 16.1 0 0 0 -4.06-10.01z" fill="#e36836"/><path d="m168.64 166.73 5.7 6.3a16.09 16.09 0 0 0 9.54 5c18.61 2.86 37.6 19.58 35.32 39.08a22.92 22.92 0 0 1 -12.7 18 22.94 22.94 0 0 0 4.16-9c4.24-19.17-12.95-37.72-31.19-42.46a16.11 16.11 0 0 1 -9-6l-5-6.84a4.6 4.6 0 0 0 -6.44-1l-4 2.92 7.07-6.41a4.62 4.62 0 0 1 6.54.41z" fill="#5e2323" opacity=".3"/><path d="m154.47 174.15a4.62 4.62 0 0 0 .52 5.48l5.7 6.29a16.08 16.08 0 0 1 4.05 10c.67 12.52 7.43 25.82 17.67 33.22 3-1.24 7.74-.2 8.38 4.35a27.83 27.83 0 0 0 9.32 1.47 23 23 0 0 0 14.65-5.54 22.93 22.93 0 0 1 -17.18 8.09c-19.63.32-34.37-20.24-35.37-39a16.08 16.08 0 0 0 -4.06-10l-5.69-6.3a4.59 4.59 0 0 1 .33-6.5z" fill="#fff" opacity=".55"/><path d="m221.23 210.42c0-.39-.1-.78-.17-1.17s-.1-.6-.16-.89-.15-.78-.25-1.17c-.07-.29-.14-.58-.22-.87s-.21-.76-.32-1.14c-.18-.58-.37-1.15-.58-1.71a32.31 32.31 0 0 0 -1.38-3.21 34.86 34.86 0 0 0 -2.15-3.8 41.16 41.16 0 0 0 -5.06-6.34c-.61-.64-1.24-1.26-1.9-1.87-.31-.28-.62-.57-.94-.84s-.51-.44-.77-.66c-.57-.48-1.16-1-1.76-1.41a49.52 49.52 0 0 0 -8.32-5.13c-1.12-.56-2.26-1.06-3.41-1.52-.51-.2-1-.39-1.52-.57l-.48-.17c-.65-.23-1.31-.44-2-.64a43 43 0 0 0 -5.68-1.28 14.14 14.14 0 0 1 -8.33-4.37l-5.69-6.3a6.68 6.68 0 0 0 -7.22-1.79 6.45 6.45 0 0 0 -1.58.83 1.64 1.64 0 0 0 -.26.2 1.16 1.16 0 0 0 -.25.2l-.11.09-1.15 1.11-2.57 2.27-5.37 4.86-1.13 1-.14.14a1.7 1.7 0 0 0 -.23.24 1.6 1.6 0 0 0 -.22.24 6.07 6.07 0 0 0 -1 1.51 6.67 6.67 0 0 0 1.09 7.29l5.7 6.29a14 14 0 0 1 3.52 8.72 43.31 43.31 0 0 0 1.14 7.74c.16.68.33 1.36.53 2s.41 1.38.63 2.06c.15.43.29.85.45 1.28a50.47 50.47 0 0 0 4.59 9.4c.44.69.9 1.38 1.37 2l.34.48c.39.53.78 1.06 1.18 1.57 6.61 8.44 16 14.35 26.75 14.35h.48a24.81 24.81 0 0 0 8.58-1.68 24.06 24.06 0 0 0 3.17-1.48 23.12 23.12 0 0 0 2.8-1.82 25 25 0 0 0 6.86-7.75c.21-.36.41-.72.59-1.1a4.66 4.66 0 0 0 .25-.5c.32-.67.61-1.35.87-2.05s.48-1.36.67-2.06a25.5 25.5 0 0 0 .73-3.74 29.36 29.36 0 0 0 .03-6.84zm-4.07 6.47a20.85 20.85 0 0 1 -.93 4.22 16.57 16.57 0 0 1 -.8 2.06 17.2 17.2 0 0 1 -1.05 2.05c-.26.45-.54.89-.83 1.31l-.25.35a20.35 20.35 0 0 1 -4.48 4.5 19.74 19.74 0 0 1 -3.74 2.2 20.38 20.38 0 0 1 -3.1 1.11 9.32 9.32 0 0 1 -.91.23 20.86 20.86 0 0 1 -2.53.42c-.61.06-1.23.1-1.86.11h-.42c-8.36 0-15.78-4.1-21.45-10.24-.37-.4-.73-.81-1.09-1.23s-.45-.54-.67-.82c-.54-.66-1.06-1.35-1.55-2.06a45.16 45.16 0 0 1 -5.58-10.69c-.19-.5-.36-1-.51-1.51-.07-.19-.13-.37-.18-.55-.22-.68-.41-1.36-.58-2.05a40 40 0 0 1 -1.25-7.95 18.93 18.93 0 0 0 -1.35-6.09 17.52 17.52 0 0 0 -3.23-5.17l-5.7-6.29a2.57 2.57 0 0 1 .13-3.56l.05-.05.54-.48 8.46-7.71 1.2-1.09.18-.15a2.56 2.56 0 0 1 1.53-.51h.13a2.55 2.55 0 0 1 1.77.83l5.69 6.3a18.28 18.28 0 0 0 10.75 5.68 38.89 38.89 0 0 1 6.25 1.5c.74.23 1.48.49 2.21.78l.34.13c.68.27 1.37.56 2 .86 1.12.51 2.23 1.07 3.31 1.67q2 1.11 3.86 2.4.9.63 1.77 1.29c.26.2.52.4.77.61l.93.77q1 .85 2 1.77a37.59 37.59 0 0 1 5.71 6.94 31.39 31.39 0 0 1 1.93 3.49 26.81 26.81 0 0 1 1.2 2.95c.12.33.23.66.33 1v.05c.2.65.37 1.31.52 2v.08c.14.64.26 1.29.34 1.94a.25.25 0 0 1 0 .12 25 25 0 0 1 .14 6.48z" fill="#5e2323"/><path d="m175.34 202.19c2.19-2 4.85 1.58 8.5 5.63s6.91 7.05 4.73 9-6.92.29-10.58-3.76-4.83-8.9-2.65-10.87z" fill="#fff" opacity=".2"/></g><rect fill="#ffbf00" height="14.8" rx="7.4" width="165.04" x="89.44" y="96.46"/><path d="m318.42 215.76a7.43 7.43 0 0 1 -7.4 7.41h-21.16a7.43 7.43 0 0 0 7.4-7.41 7.4 7.4 0 0 0 -7.4-7.4h21.14a7.4 7.4 0 0 1 7.42 7.4z" fill="#5e2323" opacity=".3" transform="translate(-63.94 -111.9)"/><path d="m168.19 223.17h-7.4a7.41 7.41 0 0 1 0-14.81h7.4a7.41 7.41 0 0 0 0 14.81z" fill="#fff" opacity=".55" transform="translate(-63.94 -111.9)"/><path d="m174.24 221.11.52.66.54.67.62.73h18.21c.35.22.71.42 1.07.62a26.48 26.48 0 0 0 3.06 1.43h22.05l1.21-.43h.07c.33-.12.65-.24 1-.38.55-.21 1.1-.44 1.64-.69l1-.46.13-.06h15.46c.11-.11.22-.23.32-.35a2.27 2.27 0 0 0 .26-.28l.31-.32s0 0 0 0c.31-.34.61-.69.92-1zm143.3-12.19a9.36 9.36 0 0 0 -1.66-1.27 9.67 9.67 0 0 0 -4.84-1.33h-150.64a9.45 9.45 0 0 0 -1.5 18.68 9 9 0 0 0 1.88.19h150.32a9.46 9.46 0 0 0 9.38-9.45 9.43 9.43 0 0 0 -2.94-6.82zm-6.54 12.19h-150.22a5.35 5.35 0 0 1 0-10.69h150.22a5.19 5.19 0 0 1 2.73.76 5.34 5.34 0 0 1 -2.73 9.93zm-136.78 0 .52.66.54.67.62.73h18.21c.35.22.71.42 1.07.62a26.48 26.48 0 0 0 3.06 1.43h22.05l1.21-.43h.07c.33-.12.65-.24 1-.38.55-.21 1.1-.44 1.64-.69l1-.46.13-.06h15.46c.11-.11.22-.23.32-.35a2.27 2.27 0 0 0 .26-.28l.31-.32s0 0 0 0c.31-.34.61-.69.92-1z" fill="#5e2323" transform="translate(-63.94 -111.9)"/><path d="m311.3 223.17-5.16 52.35-3.58 36.38-3.56 36.66-3.85 38.44a17.37 17.37 0 0 1 -17.28 15.67h-83.65a17.38 17.38 0 0 1 -17.3-15.67l-6.67-67.69-3.59-36.51-5.87-59.64z" fill="#e93b47" transform="translate(-63.94 -111.9)"/><path d="m242.2 163.62-3.58 36.38-2.85-1-26.67 9.87-26.67-9.87-26.68 9.87-26.66-9.87-22.78 8.42-3.59-36.51 26.35-9.74 26.67 9.87 26.68-9.87 26.66 9.87 26.68-9.87z" fill="#ffbf00"/><path d="m311.3 223.17-.94 9.53-11.36 115.86-3.85 38.44a17.37 17.37 0 0 1 -17.28 15.67h-64.6c35.75-1.92 60.16-15.77 64.08-51.2l8.57-87a32.18 32.18 0 0 0 -30-35.26l-95.17-6.06z" fill="#5e2323" opacity=".3" transform="translate(-63.94 -111.9)"/><path d="m200.25 402.68h-6a17.38 17.38 0 0 1 -17.33-15.68l-16.13-163.83h6l16.21 163.83a17.38 17.38 0 0 0 17.25 15.68z" fill="#fff" opacity=".55" transform="translate(-63.94 -111.9)"/><path d="m301.64 321.24.09-.88.06-.67.14-1.39.2-2.05.14-1.36h-2.07l-.14 1.36-.2 2.05-.1 1-.1 1v.4l-.21 2.05-.2 2.06-.35 3.55-1.09 11.12v.41.29l-.14 1.35v.34l-.13 1.31v.41.07l-.45 4.59v.21.2l-.15 1.57v.08l-.1 1-.06.64v.42l-.84 8.43-.22 2.28v.07l-.17 1.78-.14 1.41v.37l-.16 1.68-.2 2-.54 5.49-.06.69v.18l-.19 1.85h.1.47l.8.05.53.06h-.16l.2-2h.27 1.8l.07-.79.55-5.57.16-1.59v-.45l.13-1.31.07-.74.1-1v-.07l.22-2.28-1.94-.91.94-9.51h2.06v-.42h-2.06l.07-.68h2.05l.1-1 .05-.51.16-.88v-.25-.41l.41-4.12.05-.54v-.41l.15-1.47v-.18l.16-1.64v-.41l1-10.12.34-3.45.21-2.08.2-2.09c-.52-.24-1.22-.43-1.88-.59zm-28.52-96.71a8.92 8.92 0 0 1 -.53-1.36l-.09-.28-.51-1.78h-29.4c-.31.35-.61.7-.92 1s0 0 0 0l-.31.32a2.27 2.27 0 0 1 -.26.28c-.1.12-.21.24-.32.35h-15.48l-.13.06-1 .46c-.54.25-1.09.48-1.64.69-.32.14-.64.26-1 .38h-.07l-1.21.43h54.35l-.71-.31a7.85 7.85 0 0 1 -.77-.24zm40.2-1.73a2.1 2.1 0 0 0 -.5-1 2.05 2.05 0 0 0 -1.52-.68h-150.52a2.05 2.05 0 0 0 -1.52.68 2.08 2.08 0 0 0 -.51 1.09 2 2 0 0 0 0 .49l.16 1.66 3.83 38.85.75 7.56.45 4.56.29 3 .56 5.67v.34l.19 1.85.09 1 .54 5.39v.14l.11 1.09v.34.24.34l.14 1.44.24 2.35 1.45 14.81v.07l.11 1.05.09.95v.12l.2 2v.41l.46 4.75.56 5.6.06.6.2 2.1.28 2.85.88 8.89 1.82 18.46 2.28 23.21.21 2.09a19.36 19.36 0 0 0 10.87 15.61l.79.36a19.55 19.55 0 0 0 4.9 1.37 21 21 0 0 0 2.77.19h83.64a19.49 19.49 0 0 0 8.32-1.85l.44-.21a18.81 18.81 0 0 0 3.05-1.91l.17-.14a19.36 19.36 0 0 0 7.36-13.42l.31-3.17.28-2.8v-.23l.18-1.83v-.23l.18-1.81v-.25l.07-.79.55-5.57.16-1.59v-.45l.13-1.31.07-.74.1-1v-.07l.22-2.28 1.05-10.58v-.42l.06-.68.1-1 .05-.51.48-.85v-.25-.41l.41-4.12.05-.54v-.41l.15-1.47v-.18l.16-1.64v-.41l1-10.12.34-3.45.21-2.08.2-2.09.15-1.45v-.18l.19-1.88.2-2.05.13-1.36.21-2.06.11-1.11v-.39l.05-.54 1-9.8.18-1.9 1.51-15.33.25-2.46s0 0 0 0l1.36-13.8.11-1.12.09-1 .2-2.05 3.92-38.35.16-1.6a2.18 2.18 0 0 0 -.02-.6zm-8.17 41.79-.12 1.27-.08.78-.8 8.11-3.55 36v.42.08l-.11 1.11v.42l-.2 2.06-.14 1.36-.2 2.05-.1 1-.1 1v.4l-.21 2.05-.2 2.06-.35 3.55-1.09 11.12v.41.29l-.14 1.35v.34l-.13 1.31v.41.07l-.45 4.59v.21.2l-.15 1.57v.08l-.1 1-.06.64v.42l-.84 8.43-.22 2.28v.07l-.17 1.78-.14 1.41v.37l-.16 1.68-.2 2-.54 5.49-.06.69v.18l-.19 1.85v.21l-.18 1.84v.22l-.26 2.66-.31 3.14a15.26 15.26 0 0 1 -15.25 13.82h-84.13c-.2 0-.4 0-.6 0a13.57 13.57 0 0 1 -1.92-.19c-.24 0-.46-.08-.7-.13a15.26 15.26 0 0 1 -12-13.48l-.45-4.56-1.82-18.08-1.82-18.46-2.34-23.74-.29-2.9v-.35l-.07-.7v-.1l-.08-.78v-.16l-.06-.61-.14-1.35-.11-1.09-.1-1.06-.21-2.09-.84-8.54v-.43-.42l-.37-3.76-.3-1.46v-.35-.3l-.15-1.51-.15-1.52-.14-1.42-.14-1.41-.15-1.55-.09-.87-.18-1.81-.17-1.78-.14-1.41-1.25-12.71-.78-7.86-.74-7.57-.56-5.61-2.27-23.09h145.91l-3.68 37.33zm-31.26-39.68a7.85 7.85 0 0 1 -.77-.38 8.92 8.92 0 0 1 -.53-1.36l-.09-.28-.51-1.78h-29.4c-.31.35-.61.7-.92 1s0 0 0 0l-.31.32a2.27 2.27 0 0 1 -.26.28c-.1.12-.21.24-.32.35h-15.48l-.13.06-1 .46c-.54.25-1.09.48-1.64.69-.32.14-.64.26-1 .38h-.07l-1.21.43h54.35zm27.75 96.33.09-.88h-2.07v.4l-.21 2.05-.2 2.06-.35 3.55-1.09 11.12v.41.29l-.14 1.35v.34l-.13 1.31v.41.07l-.45 4.59v.21.2l-.15 1.57v.08l-.1 1-.06.64v.42l-.84 8.43-.22 2.28v.07l-.17 1.78-.14 1.41v.37l-.16 1.68-.2 2-.54 5.49-.06.69v.18l-.19 1.85h.1.47l.8.05.53.06h-.16l.2-2h.27 1.8l.07-.79.55-5.57.16-1.59v-.45l.13-1.31.07-.74.1-1v-.07l.22-2.28-1.94-.97.94-9.51h2.06v-.42h-2.06l.07-.68h2.05l.1-1 .05-.51.16-.88v-.25-.41l.41-4.12.05-.54v-.41l.15-1.47v-.18l.16-1.64v-.41l1-10.12.34-3.45.21-2.08.2-2.09c-.52-.24-1.22-.43-1.88-.59z" fill="#5e2323" transform="translate(-63.94 -111.9)"/><path d="m146.1 326-13-.63 3.29-62.49a3.72 3.72 0 0 1 3.89-3.53l5.55.27a3.72 3.72 0 0 1 3.53 3.9z" fill="#fec828" transform="translate(-63.94 -111.9)"/><path d="m149.9 263.53-3.29 62.47-13-.62v-.27l8.1.4 2.31-42.2.41-8.48.57-11.8a3.68 3.68 0 0 0 -2.17-3.57l3.49.17a3.7 3.7 0 0 1 3.58 3.9z" fill="#5e2323" opacity=".3" transform="translate(-63.94 -111.9)"/><path d="m140 263.68-3.26 61.82-3.6-.17 3.29-62.48a3.71 3.71 0 0 1 3.89-3.53l5.54.27a3.69 3.69 0 0 1 2.09.76l-4.06-.2a3.73 3.73 0 0 0 -3.89 3.53z" fill="#fff" opacity=".55" transform="translate(-63.94 -111.9)"/><path d="m136.85 323.74-1.83-.09v-.59l-1.77.1-.09 1.74 2.19-.12a1.73 1.73 0 0 0 1.22-.58 1.31 1.31 0 0 0 .26-.4l-.08 1.47 5 .25.08-1.54zm9.09-65.92-5.54-.27a5.49 5.49 0 0 0 -5.74 5.2l-.72 13.71-.33 6.32-.26 4.85-.88 16.6-.31 6.05-.13 2.34-.12 2.29-.34 6.49-.09 1.77-.09 1.74v.25a1.76 1.76 0 0 0 1.67 1.85l10.34.5 1.76.09h.86.09a1.69 1.69 0 0 0 .83-.22 1.74 1.74 0 0 0 .93-1.46l.33-6.23.06-1.24.05-.82v-.54l.08-1.52.14-2.58 1.58-30v-.21l.41-7.86.61-11.51a5.49 5.49 0 0 0 -5.19-5.59zm-10.94 65.24.12-2.1.22-4.28v-.61l.09-1.56.11-2.25.42-7.89 2.17-41.35a2 2 0 0 1 .64-1.35 1.92 1.92 0 0 1 1.41-.5l1 .05 3.51.17 1.06.05a1.94 1.94 0 0 1 1.85 2l-2.6 49.41-.12 2.35-.09 1.65v.43.4l-.09 1.67-.25 4.76h-.66l-1.93-.1-5-.24-1.83-.09zm1.83.68-1.83-.09v-.59l-1.77.1-.09 1.74 2.19-.12a1.73 1.73 0 0 0 1.22-.58 1.31 1.31 0 0 0 .26-.4l-.08 1.47 5 .25.08-1.54z" fill="#5e2323" transform="translate(-63.94 -111.9)"/><path d="m128.42 324.58-12.88 1.56-7.27-62.14a3.71 3.71 0 0 1 3.24-4.13l5.51-.67a3.73 3.73 0 0 1 4.14 3.24z" fill="#fec828" transform="translate(-63.94 -111.9)"/><path d="m121.68 262.41 7.26 62.14-12.88 1.56v-.26l8-1-4.83-42-1-8.44-1.42-11.73a3.69 3.69 0 0 0 -2.74-3.15l3.47-.42a3.73 3.73 0 0 1 4.14 3.3z" fill="#5e2323" opacity=".3" transform="translate(-63.94 -111.9)"/><path d="m111.93 264.22 7.18 61.49-3.57.43-7.27-62.14a3.71 3.71 0 0 1 3.24-4.14l5.51-.66a3.66 3.66 0 0 1 2.18.4l-4 .48a3.73 3.73 0 0 0 -3.27 4.14z" fill="#fff" opacity=".55" transform="translate(-63.94 -111.9)"/><path d="m125.87 323.29v-.18l-2 .24-.7.09h.7zm-1.93.34-1.13.06v-.2l-.51.06-1.76.21-1.61.2-1.83.22-2.93-25.09-.19-1.56h-1.77l.07.58 3.28 28 .52-.06 3-.37v-.23l2.25-.28 2.73-.33-.14-1.21zm6.24.75-.12-1.05v-.23l-.18-1.53-1-8.38-.32-2.68-.33-2.82-3.53-30.21v-.18l-.18-1.58-.21-1.76-1.37-11.71a5.48 5.48 0 0 0 -6.1-4.78l-5.51.67a5.48 5.48 0 0 0 -4.78 6.09l3.45 29.71.17 1.42.07.64.18 1.53.07.53 3.3 28.29a1.83 1.83 0 0 0 .66 1.18 1.77 1.77 0 0 0 1.1.38h.21l12.89-1.55a1.75 1.75 0 0 0 1.47-1.28 1.41 1.41 0 0 0 .06-.7zm-16.18-26.85-.12-1.1v-.38l-.22-1.88-3.66-30.39a2 2 0 0 1 1.7-2.17l1-.12 3.5-.42 1-.12h.24a2 2 0 0 1 1.93 1.71l1.42 12.11.24 2 .87 7.49 2.35 20 .36 3.11.35 2.95.34 2.95 1 8.37.15 1.31-.61.07-2 .24-.7.09-.4.05-.51.06-1.76.21-1.61.2-1.83.22-2.93-25.09zm10 26.13-1.13.06v-.2l-.51.06-1.76.21-1.61.2-1.83.22-2.93-25.09-.19-1.56h-1.77l.07.58 3.28 28 .52-.06 3-.37v-.23l2.25-.28 2.73-.33zm1.92-.55-2 .24-.7.09h.7l2-.11z" fill="#5e2323" transform="translate(-63.94 -111.9)"/><path d="m173.2 296.1-12.86-1.76 6-43.71a3.71 3.71 0 0 1 4.19-3.18l5.49.75a3.72 3.72 0 0 1 3.18 4.19z" fill="#fec828" transform="translate(-63.94 -111.9)"/><g opacity=".3" transform="translate(-63.94 -111.9)"><path d="m173.71 296.2-12.85-1.76v-.26l8 1.1 3.24-23.59c-1.51-3.12-1.16-5.92 1.15-8.4l1.6-11.72a3.69 3.69 0 0 0 -1.85-3.74l3.46.47a3.71 3.71 0 0 1 3.18 4.19z" fill="#6b184e"/><path d="m175.09 249.86a3.47 3.47 0 0 0 -.6-1.2l-.49-.07a3.68 3.68 0 0 1 .91 3l-1.6 11.72a6.88 6.88 0 0 0 -2.06 4.9l.11 1.07a8.64 8.64 0 0 0 .8 2.43l-.33 2.39.14 1.41.53-3.85-.05-.09a6.61 6.61 0 0 1 1.1-8l.07-.08 1.62-11.81a4 4 0 0 0 -.15-1.82zm4.16-.32a4 4 0 0 0 -2.68-1.56l-5.21-.72.72.4.81.45a2.9 2.9 0 0 1 .6.44 3.34 3.34 0 0 1 .85 1.19 3.4 3.4 0 0 1 .23 1.77l-1.57 11.63a7.83 7.83 0 0 0 -1.9 3.44 7.44 7.44 0 0 0 .45 4.55c.08.2.17.41.27.62l-.12.88-1.2 8.76-.31 2.3-.48 3.5v.34l-.27 2-.58 4.23-.16 1.19-.8-.11-.6-.08-1.49-.21h-.34l-1.42-.2h-.28-.06l-1.18-.16-.53-.19h-.07l-1.29-.18-.07.56v.36l1.2.16h.17l.51.07 1.08.15h.16l1.59.22.64.08 1.19.17.9.12 1.99.29 1.67.22.33.05.33.05h.32l1.32.18v-.2l.34-2.52.73-5.33.17-1.22v-.3-.32l.05-.34.2-1.44.21-1.52.57-4.17.64-4.67.25-1.83.24-1.78 2.52-18.4a4 4 0 0 0 -.64-2.92zm.12 2.91-2.54 18.55-.25 1.85-.29 2.09-.61 4.45v.09l-.72 5.27-.2 1.45v.3.33.3l-.15 1.1-.22 1.59-.5 3.66-.32 2.31h-.19l-.58-.08h-.16-.32l-.34-.05-1.88-.25-.7-.1.2-1.46.2-1.47.69-5v-.29l.2-1.47v-.17-.13l.2-1.45.37-2.7.77-5.64.53-3.85-.05-.09a6.61 6.61 0 0 1 1.1-8l.07-.08 1.62-11.81a4 4 0 0 0 -.15-1.76 3.47 3.47 0 0 0 -.6-1.2 2.88 2.88 0 0 0 -.27-.34l2.26.31a3.48 3.48 0 0 1 1.35.49 3.86 3.86 0 0 1 .66.55.05.05 0 0 1 0 0 1.43 1.43 0 0 1 .2.23 3.36 3.36 0 0 1 .62 2.47z" fill="#5e2323"/></g><path d="m169.81 251.77-5.9 43.06-3.57-.49 6-43.71a3.71 3.71 0 0 1 4.19-3.18l5.49.76a3.69 3.69 0 0 1 2 .94l-4-.56a3.74 3.74 0 0 0 -4.21 3.18z" fill="#fff" opacity=".55" transform="translate(-63.94 -111.9)"/><path d="m174.25 289.88v-1.13-.52-1.15-1-1.51l-.14-4.44-.06-2-.29 2.12-.56 4.07-.11.81-.09.65v.29l-.07.5v.13.33l-.1.76-.11.82-.75 5.46-1.88-.26-.35-.05h-.33-.33l-1.08-.15h-.22l-1.83-.25-1.48-.2h-.23-.07l-1.24-.17-.14 1.2v.32.23l1.12.16h.12.26l1.37.19.52.07 1.3.18.79.1 2.09.29 1.78.24.33.05h.33.24l1 .14.17-1.25-.13-1.39zm2-43.43-5.49-.75a5.51 5.51 0 0 0 -6.18 4.69l-.65 4.7-1.2 8.77-1.44 10.48-.23 1.72v.05l-.07.56-.19 1.33-2.21 16.14a1.81 1.81 0 0 0 .34 1.31 1.75 1.75 0 0 0 1 .65h.14l1.28.18h.32l.52.07.92.13h.32l1.43.2 1.09.15.74.1 1.35.18 2.09.29 1.22.17h.33l.33.05.67.09h.24.24a1.76 1.76 0 0 0 1-.28 1.37 1.37 0 0 0 .29-.24s0 0 0 0a1.71 1.71 0 0 0 .47-1l.44-3.19.49-3.63.1-.67.18-1.33v-.17-.2-.14l.05-.35.19-1.4.88-6.39.13-.92.35-2.55a0 0 0 0 1 0 0l.12-.88.24-1.77.25-1.77 2.5-18.28a5.49 5.49 0 0 0 -4.59-6.1zm-10.83 23.78 1.2-8.73 1.46-10.63a1.94 1.94 0 0 1 1.31-1.58 1.9 1.9 0 0 1 .89-.09l1 .13 3.11.42.38.05.36.05.69.09a2 2 0 0 1 1.66 2.2l-2.68 19.55-.38 2.78-.5 3.65-.29 2.12-.56 4.07-.11.81-.09.65v.29l-.07.5v.13.33l-.1.76-.11.82-.75 5.46-1.88-.26-.35-.05h-.33-.33l-1.08-.15h-.22l-1.83-.25-1.48-.2h-.23-.07l-1.24-.17h-.28l.28-2.06 1.22-8.89v-.12l.37-2.74.3-2.2.9-6.57zm8.83 19.65v-1.13-.52-1.15-1-1.51l-.14-4.44-.06-2-.29 2.12-.56 4.07-.11.81-.09.65v.29l-.07.5v.13.33l-.1.76-.11.82-.75 5.46-1.88-.26-.35-.05h-.33-.33l-1.08-.15h-.22l-1.83-.25-1.48-.2h-.23-.07l-1.24-.17-.14 1.2v.32.23l1.12.16h.12.26l1.37.19.52.07 1.3.18.79.1 2.09.29 1.78.24.33.05h.33.24l1 .14.17-1.25-.13-1.39z" fill="#5e2323" transform="translate(-63.94 -111.9)"/><path d="m135.25 323-13 .7-2.37-44.06a3.71 3.71 0 0 1 3.51-3.91l5.54-.3a3.71 3.71 0 0 1 3.91 3.51z" fill="#fec828" transform="translate(-63.94 -111.9)"/><path d="m135.77 323-13 .7v-.26l8.1-.44-1.28-23.78a7 7 0 0 1 -.45-8.47l-.62-11.75a3.68 3.68 0 0 0 -2.52-3.32l3.49-.19a3.71 3.71 0 0 1 3.91 3.51z" fill="#5e2323" opacity=".3" transform="translate(-63.94 -111.9)"/><path d="m123.55 280.12 2.33 43.4-3.59.2-2.37-44.06a3.71 3.71 0 0 1 3.51-3.91l5.54-.3a3.74 3.74 0 0 1 2.15.55l-4.06.21a3.73 3.73 0 0 0 -3.51 3.91z" fill="#fff" opacity=".55" transform="translate(-63.94 -111.9)"/><path d="m131.57 321.45h-.76l-1 .05-1.25.07h-.52l-1.76.09.15 1.31-.61.07v.18l-2 .11h-.7l-.4.05v.2l1.13-.06.86-.05 3.48-.18h.52l1.25-.07 1.43-.08 1.77-.09.09-1.78zm5.37.12-.24-4.38-.12-2.27-.13-2.33-.44-8.28-.9-16.58-.47-8.79a5.31 5.31 0 0 0 -.7-2.41 5.44 5.44 0 0 0 -1.11-1.38 5.37 5.37 0 0 0 -4-1.39l-4.6.24-.94.05h-.3a3 3 0 0 0 -.52.08 5.19 5.19 0 0 0 -1.7.66 5.51 5.51 0 0 0 -1.27 1.05 5 5 0 0 0 -1 1.54 5.32 5.32 0 0 0 -.42 2.41l1 19 .18 3.39.17 3.21 1 18.37v.05a1.76 1.76 0 0 0 .81 1.39 1.23 1.23 0 0 0 .4.19h.07a1.43 1.43 0 0 0 .46.07h.09l7.73-.42 1.27-.07 1.77-.09 2.19-.12a1.73 1.73 0 0 0 1.22-.58 1.31 1.31 0 0 0 .26-.4.09.09 0 0 0 0-.06 1.55 1.55 0 0 0 .16-.82zm-15.26-42a1.93 1.93 0 0 1 .5-1.41 1.74 1.74 0 0 1 .76-.5 1.28 1.28 0 0 1 .51-.13h.07l1-.05h.2l3.33-.18 1-.06h.1a1.91 1.91 0 0 1 1.3.5 1.93 1.93 0 0 1 .65 1.35l1.35 25.22.35 6.44.13 2.46.13 2.38.28 5.32v.43l-1.77.1h-.76l-1 .05-1.25.07h-.52l-1.76.09h-.53l-1.84.1-.69-12.93-.12-2.82-.16-3-1-18.7zm9.89 41.89h-.76l-1 .05-1.25.07h-.52l-1.76.09.15 1.31-.61.07v.18l-2 .11h-.7l-.4.05v.2l1.13-.06.86-.05 3.48-.18h.52l1.25-.07 1.43-.08 1.77-.09.09-1.78z" fill="#5e2323" transform="translate(-63.94 -111.9)"/><path d="m156.58 342.22-12.91-1.39 6.94-62.18a3.73 3.73 0 0 1 4.1-3.3l5.51.59a3.72 3.72 0 0 1 3.3 4.1z" fill="#fec828" transform="translate(-63.94 -111.9)"/><path d="m164 280.12-6.94 62.18-12.9-1.38v-.26l8.06.86 4.77-42 .91-8.45 1.26-11.75a3.67 3.67 0 0 0 -2-3.68l3.48.37a3.7 3.7 0 0 1 3.36 4.11z" fill="#5e2323" opacity=".3" transform="translate(-63.94 -111.9)"/><path d="m154.13 279.69-6.88 61.53-3.57-.39 6.94-62.18a3.71 3.71 0 0 1 4.09-3.3l5.51.6a3.71 3.71 0 0 1 2 .88l-4-.44a3.72 3.72 0 0 0 -4.09 3.3z" fill="#fff" opacity=".55" transform="translate(-63.94 -111.9)"/><path d="m164.52 276.82a5.24 5.24 0 0 0 -.59-.81 4.87 4.87 0 0 0 -1-.85 5.31 5.31 0 0 0 -1.68-.8 5.07 5.07 0 0 0 -.88-.17l-5.52-.6a5.47 5.47 0 0 0 -4 1.19c-.11.09-.23.19-.33.29a5.21 5.21 0 0 0 -1.35 2 5.46 5.46 0 0 0 -.32 1.34l-.49 4.36-3.35 30-.26 2.32-.18 1.64-.05.42v.37l-.19 1.69-.53 4.79-.2 1.76-.19 1.73-1.46 13.05a1.77 1.77 0 0 0 1.56 1.95l12.88 1.51h.19a1.76 1.76 0 0 0 1.75-1.57l.95-8.54.16-1.4v-.33-.23-.33l.14-1.21.44-3.92.76-6.81v-.18l.22-1.93.09-.82.14-1.28.64-5.68 1.47-13.15.15-1.39v-.34-.23-.32l.07-.56.07-.6.88-7.93.05-.42.5-4.47a5.43 5.43 0 0 0 -.54-3.54zm-11.44.71a1.93 1.93 0 0 1 1.44-.42l.95.1 3.51.38 1.05.11a1.85 1.85 0 0 1 .77.26 1.94 1.94 0 0 1 1 1.88l-1.8 16.22-1.45 13-.75 6.67-.15 1.34-.08.74-.19 1.67v.4l-.59 5.23-.63 5.63v.33.23.33l-.16 1.4-.8 7.18-2.57-.28-5-.53-1.83-.2 1.31-11.76.87-7.73.14-1.26.09-.79.05-.53.17-1.51.29-2.57 3.83-34.28a2 2 0 0 1 .53-1.24z" fill="#5e2323" transform="translate(-63.94 -111.9)"/><path d="m193.75 328.77-12.91-1.39 6.94-62.19a3.72 3.72 0 0 1 4.1-3.29l5.51.59a3.72 3.72 0 0 1 3.3 4.09z" fill="#fec828" transform="translate(-63.94 -111.9)"/><path d="m201.2 266.67-6.94 62.18-12.9-1.39v-.26l8.06.87 4.77-42 .91-8.44 1.26-11.75a3.7 3.7 0 0 0 -2-3.69l3.48.37a3.72 3.72 0 0 1 3.36 4.11z" fill="#5e2323" opacity=".3" transform="translate(-63.94 -111.9)"/><path d="m191.3 266.24-6.88 61.52-3.58-.38 6.95-62.18a3.7 3.7 0 0 1 4.09-3.3l5.51.59a3.65 3.65 0 0 1 2 .89l-4-.44a3.71 3.71 0 0 0 -4.09 3.3z" fill="#fff" opacity=".55" transform="translate(-63.94 -111.9)"/><path d="m197.58 260.73-5.52-.59a5.48 5.48 0 0 0 -6 4.86l-.7 6.26-.18 1.63v.25l-.26 2.31s0 0 0 0l-.07.65-2.18 19.5-1.3 11.69-.13 1.12-.18 1.66-.3 2.68-.21 1.87-.1.94-.36 3.15-.17 1.54v.23l-.19 1.74-.55 4.92a1.77 1.77 0 0 0 1.56 1.95l12.91 1.39h.19a1.64 1.64 0 0 0 .63-.12 1.76 1.76 0 0 0 1.03-1.36l1.84-16.46.17-1.53 1.24-11.06.14-1.25.06-.6.23-2.06.07-.64.16-1.42 2-17.77 1-9.4a5.5 5.5 0 0 0 -4.83-6.08zm-14.38 61.43.19-1.75v-.23l.17-1.54.15-1.31.35-3.09.19-1.71.27-2.48.33-2.94.22-1.91.12-1.16.54-4.78 1.38-12.34.4-3.63.91-8.14v-.38l1-9.36a2 2 0 0 1 .71-1.31 1.93 1.93 0 0 1 1.44-.42l1 .1 3.5.38 1 .11a2 2 0 0 1 1.74 2.14l-.95 8.53-2.15 19.23-.14 1.26-.11 1v.05l-.28 2.5-.51 4.49-.87 7.82-1.74 15.59-2.57-.28-5-.53-1.83-.2z" fill="#5e2323" transform="translate(-63.94 -111.9)"/><path d="m188.18 320.23-13 .41-1.38-44.1a3.7 3.7 0 0 1 3.59-3.83l5.55-.18a3.72 3.72 0 0 1 3.83 3.6z" fill="#fec828" transform="translate(-63.94 -111.9)"/><path d="m188.7 320.25-13 .4v-.26l8.11-.25-.75-23.8a6.94 6.94 0 0 1 -.27-8.48l-.34-11.86a3.7 3.7 0 0 0 -2.46-3.38l3.5-.11a3.71 3.71 0 0 1 3.83 3.6z" fill="#5e2323" opacity=".3" transform="translate(-63.94 -111.9)"/><path d="m177.45 277.09 1.36 43.44-3.6.11-1.38-44.1a3.71 3.71 0 0 1 3.6-3.83l5.54-.17a3.71 3.71 0 0 1 2.14.59l-4.06.13a3.71 3.71 0 0 0 -3.6 3.83z" fill="#fff" opacity=".55" transform="translate(-63.94 -111.9)"/><path d="m176.72 312.67v-1.3-1l-.19-5.85-.11-3.67v-1.34-1.32-.77l-.26-8.54v-1.38-1-1.51l-.05-1.6-.07-2-.06-1.9v-.08-1.13l-.18 1.29-.71 5.16-.2 1.45v.3l-.05.32v.3l-.15 1.1-.07.5v1.14l-.5 3.66.13 1.41.15 1.45.12 1.21a1.76 1.76 0 0 1 -1 .28h-.24-.24l.2 6.31.22 7.07v.77.12l.34-.15.38-.18 1-.49v.09.95 1.23l.69-.34.22 2.2.89-.44zm13-.54-.11-3.56-.09-3-.09-2.88-.06-2v-1l-.38-12.25-.35-11.4a5 5 0 0 0 -.12-1 2 2 0 0 0 -.08-.33 5.35 5.35 0 0 0 -1.44-2.31 1.85 1.85 0 0 0 -.14-.14 5.33 5.33 0 0 0 -1.51-1 5.54 5.54 0 0 0 -2.41-.49l-4.48.14h-.93-.34-.34-.19a5.26 5.26 0 0 0 -1.88.69 5.16 5.16 0 0 0 -1.22 1 5.5 5.5 0 0 0 -1.48 3.73v.19l.13 4.18.11 3.39v1.51.57.45 1.08.85l.12 3.78v1.35 1.32.62.68 1.42l.2 6.31.22 7.07v.77.12 1.06.14 1 .31l.06 1.91v.92.72.11l.08 2.41a1.75 1.75 0 0 0 .56 1.24 1.77 1.77 0 0 0 1.2.47h.06 1.33l3-.1 1.78-.05h1.78l1.85-.06 3.18-.1a1.76 1.76 0 0 0 1.71-1.82zm-12.21-37.66h.49.51l3.51-.11h1.06.06a1.88 1.88 0 0 1 1.33.53 1.8 1.8 0 0 1 .44.62s0 0 0 0a1.51 1.51 0 0 1 .16.56.88.88 0 0 1 0 .17l.33 10.59v.05l.39 12.4.13 4.15v1l.05 1.74.09 2.68.07 2.45v.93 1.24l.16 5.1h-.91l-1.67.05h-.19l-1.78.05-1.78.06h-1.28l-1.84.06-.06-1.94v-.62-1.3l-.07-2.29v-1.3-1l-.19-5.85-.11-3.67v-1.34-1.32-.77l-.26-8.54v-1.38-1-1.51l-.05-1.6-.07-2-.06-1.9v-.08-1.13l-.06-1.78a1.87 1.87 0 0 1 .48-1.33l.05-.06a.8.8 0 0 1 .17-.15 1.27 1.27 0 0 1 .37-.25 1.22 1.22 0 0 1 .36-.14 1.77 1.77 0 0 1 .14-.07z" fill="#5e2323" transform="translate(-63.94 -111.9)"/><path d="m168 334-12.67-2.84 9.67-43.02a3.71 3.71 0 0 1 4.44-2.81l5.41 1.21a3.72 3.72 0 0 1 2.81 4.44z" fill="#fec828" transform="translate(-63.94 -111.9)"/><g opacity=".3" transform="translate(-63.94 -111.9)"><path d="m168.52 334.18-12.66-2.84v-.26l7.91 1.78 5.23-23.24a6.93 6.93 0 0 1 1.86-8.28l2.59-11.53a3.72 3.72 0 0 0 -1.53-3.89l3.41.77a3.71 3.71 0 0 1 2.81 4.44z" fill="#6b184e"/><path d="m178 288.15c-.06-.1-.13-.19-.19-.28a4 4 0 0 0 -1.51-1.22 2.5 2.5 0 0 0 -.38-.15 3.5 3.5 0 0 0 -.46-.14l-.33-.07-.32-.08h-.19l-.43-.09-1.14-.26h-.16l-.49-.11-1.71-.39-.32-.07.3.2.38.26.77.52a3 3 0 0 1 .57.49 3 3 0 0 1 .27.35 2.74 2.74 0 0 1 .44.89 3.31 3.31 0 0 1 .07 1.77l-.6 2.7-.72 3.18-.06.3-.07.33-.31 1.38-.79 3.53-.06.06a7.89 7.89 0 0 0 -1.82 2.44 7.48 7.48 0 0 0 0 6l-1 4.41v.08l-.26 1.16-.23 1-.51 2.26-.07.3-2.78 12.38-.26 1.18-4-.9-.55-.13-.67-.15-.51-.11-1.73-.39-.43-.1-.11.55-.07.36.51.11 1.73.39.51.12 1.22.27 9.33 2.09.64-2.86 1.43-6.37 1.43-6.39.09-.39.2-.88.21-.93.47-2.11.08-.34.29-1.33.27-1.19.91-4.06.24-1 1.31-5.84 1.62-7.2.54-2.42a4.08 4.08 0 0 0 -.59-3.11zm-.12 2.91-1.59 7.1-1.44 6.39-.11.49-1.57 6.96v.14l-.27 1.19-.29 1.29-.5 2.24-.11.14-.18.84-.22 1-1 4.41-1.43 6.37-.94 4.17h-.18l-3.93-.88.32-1.43 2.85-12.65.08-.37.48-2.14v-.13l.24-1.07.28-1.23.88-3.94.06-.28v-.1l-.09-.25s0 0 0 0a7.11 7.11 0 0 1 -.39-4s0 0 0 0a6.47 6.47 0 0 1 1.75-3.19c.16-.16.32-.33.5-.49l.08-.07.85-3.79.31-1.37.07-.34.06-.3.14-.6.88-3.91.29-1.31a4.18 4.18 0 0 0 0-1.76 3.67 3.67 0 0 0 -.51-1.25 3.75 3.75 0 0 0 -.24-.36l1.08.24.32.07.19.05.64.14a3.14 3.14 0 0 1 .61.21 1.26 1.26 0 0 1 .26.13 2.8 2.8 0 0 1 .43.27 3.2 3.2 0 0 1 .61.61 1.37 1.37 0 0 1 .18.24 3.38 3.38 0 0 1 .42 1 3.09 3.09 0 0 1 0 1.42.68.68 0 0 1 .11.1z" fill="#5e2323"/></g><path d="m168.39 289.58-9.52 42.42-3.52-.79 9.65-43.07a3.71 3.71 0 0 1 4.44-2.81l5.41 1.22a3.65 3.65 0 0 1 1.92 1.11l-4-.9a3.73 3.73 0 0 0 -4.38 2.82z" fill="#fff" opacity=".55" transform="translate(-63.94 -111.9)"/><path d="m178.69 287.24a5.27 5.27 0 0 0 -1-1.13 5.12 5.12 0 0 0 -1.26-.86 4.66 4.66 0 0 0 -.61-.26l-.26-.08-.33-.09-.31-.07h-.19l-.68-.15-1.05-.24h-.19l-.54-.12-1.47-.33-.33-.07-.32-.07-.34-.08a4.79 4.79 0 0 0 -1.05-.13 5.34 5.34 0 0 0 -3.08.84l-.4.28c-.17.13-.34.28-.5.43l-.08.08a5.49 5.49 0 0 0 -1.44 2.64l-.22 1-.46 2-.57 2.57-.15.65-.07.32v.23l-.07.33-.31 1.38-2.87 12.8-1.54 6.67-.31 1.37-.16.71-.36 1.61-.1.47-2.44 10.86a1.8 1.8 0 0 0 .23 1.34 1.77 1.77 0 0 0 1.1.77l.86.19 1.73.39.51.12 1.22.27 8.35 1.88a1.72 1.72 0 0 0 .39 0 1.74 1.74 0 0 0 .94-.27 1.65 1.65 0 0 0 .73-1 .34.34 0 0 0 .05-.14l1.39-6.18 1.44-6.39.79-3.55v-.12l.18-.78.24-1.06.56-2.5.31-1.38.24-1.08v-.11l1.52-6.76 1.62-7.21 1.33-5.91a5.45 5.45 0 0 0 -.67-4.08zm-11.55.49s0 0 0 0a1.61 1.61 0 0 1 .45-.41 2 2 0 0 1 1.47-.26h.07l.56.12.31.07.33.08 2.06.46h.14l.54.13h.11l.26.06.36.08.38.09h.08.19a1.18 1.18 0 0 1 .3.1 1.37 1.37 0 0 1 .32.16 1.81 1.81 0 0 1 .6.6 1.38 1.38 0 0 1 .18.39 1.89 1.89 0 0 1 .08 1.08l-.57 2.55-.91 4.05v.15l-.22 1-1.3 5.79-1.46 6.49-.53 2.38-.27 1.21-.27 1.18-.4 1.72-.15.7-.14.62-1.14 5-1.91 8.52-2.2-.49-.32-.08-.33-.07-4.15-.93-.42-.1-.81-.18-.43.01-.49-.11 1-4.43 1-4.59.25-1.12.06-.27.41-1.85.19-.81.29-1.32 1.3-5.76 2.9-12.95.31-1.37.08-.34.05-.23.08-.32.23-1.05v-.13l1.07-4.76a1.73 1.73 0 0 1 .41-.86z" fill="#5e2323" transform="translate(-63.94 -111.9)"/><path d="m210.05 302.33-6.72 41.76-2.56 15.91-6.15 38.23a5.44 5.44 0 0 1 -5.39 4.59h-8.54a5 5 0 0 1 -3.06-1c-14.08-10.79-31.86-10.22-45.86 0a5.28 5.28 0 0 1 -3.11 1h-8.61a5.47 5.47 0 0 1 -5.4-4.59l-5.86-36.44-2.94-18.32-6.62-41.14a5.46 5.46 0 0 1 5.39-6.33h7.1a5.42 5.42 0 0 1 4.33 2.15c9.88 13 22.1 20.43 38.59 19.77 16.55-.2 28.71-6.82 38.6-19.77a5.41 5.41 0 0 1 4.33-2.15h7.09a5.45 5.45 0 0 1 5.39 6.33z" fill="#e93b47" transform="translate(-63.94 -111.9)"/><path d="m139.4 232.19-2.57 15.91-4.42-1.99-15.97 7.81-15.97-7.81-15.96 7.81-15.97-7.81-15.98 7.81-7.71-4.03-2.94-18.32 10.65 4.77 15.97-7.81 15.96 7.81 15.97-7.81 15.97 7.81 15.97-7.81z" fill="#ffbb34"/><path d="m120 399.76a5.34 5.34 0 0 0 1 2.42h-1.52a5.47 5.47 0 0 1 -5.4-4.59l-15.42-95.9a5.46 5.46 0 0 1 5.39-6.33h7.1a5.42 5.42 0 0 1 4.33 2.15h-5.57a5.45 5.45 0 0 0 -5.39 6.32z" fill="#fff" opacity=".55" transform="translate(-63.94 -111.9)"/><path d="m207.77 297.53h-5.56a5.4 5.4 0 0 0 -4.33 2.14c-9.88 13-22 19.57-38.6 19.78a42 42 0 0 1 -19.57-3.69 43.56 43.56 0 0 0 13.69 1.52c16.55-.2 28.72-6.82 38.6-19.77a5.41 5.41 0 0 1 4.33-2.15h7.09a5.41 5.41 0 0 1 4.35 2.17z" fill="#fff" opacity=".55" transform="translate(-63.94 -111.9)"/><path d="m175.68 313.2-.53.26-.16.08v-1.22-.95-.09l-1 .49-.38.18-.34.15-.22.09c-.41.18-.83.35-1.25.51l-.74.29c-.41.16-.83.3-1.25.44q-.61.21-1.23.39l-.37.12-.28 1.23-.37.11-.23 1c-.76.19-1.52.37-2.3.53s-1.79.34-2.71.48l-.45 2-.8.05v.18l.79-.1c.52-.06 1-.14 1.53-.22 1.17-.19 2.31-.4 3.44-.66l.36-.09.37-.1.68-.17c.6-.15 1.19-.32 1.78-.51l.22-.07c.59-.18 1.16-.37 1.73-.57l.03-.03h.06l.31-.12.38-.14.53-.2.5-.21c.42-.17.84-.35 1.25-.54l.84-.38zm34.71-16.61a7.52 7.52 0 0 0 -5.73-2.65h-7.09a7.65 7.65 0 0 0 -1.73.2 7.54 7.54 0 0 0 -2.68 1.24 7.25 7.25 0 0 0 -1.56 1.52c-.75 1-1.51 1.93-2.3 2.83-.39.47-.79.92-1.2 1.36-.16.19-.33.37-.5.55l-.29.3c-.47.49-.94 1-1.42 1.44-.22.22-.45.43-.67.63-.61.58-1.23 1.13-1.85 1.65l-.11.1c-.64.54-1.28 1.05-1.94 1.54-.93.7-1.88 1.36-2.85 2-.6.38-1.2.74-1.81 1.07-.39.23-.78.44-1.18.65l-.53.26-1 .49-.38.18-.34.15-.22.09c-.41.18-.83.35-1.25.51l-.74.29c-.41.16-.83.3-1.25.44q-.61.21-1.23.39l-.37.12-.36.1a44.37 44.37 0 0 1 -5 1.11l-1.29.2-.66.08-.61.07c-.17 0-.35 0-.53.06l-.71.07-1.08.08h-.76c-.59 0-1.19.06-1.8.07h-.64c-1.52.06-3 .05-4.47 0-.57 0-1.13-.08-1.69-.14h-.15l-1.09-.13-.51-.07h-.14c-.54-.08-1.07-.17-1.6-.27h-.14q-1.22-.23-2.4-.54a37.63 37.63 0 0 1 -5-1.66c-.31-.13-.63-.26-.94-.41s-.57-.25-.86-.39l-.41-.2-.54-.26-.77-.41c-.35-.18-.7-.38-1.05-.58s-.44-.25-.66-.39c-.68-.41-1.35-.84-2-1.29s-1.29-.9-1.92-1.38q-.7-.54-1.38-1.11c-.2-.15-.39-.31-.58-.48-.47-.39-.92-.8-1.38-1.22l-.6-.55c-.45-.43-.9-.87-1.34-1.32s-1.06-1.09-1.57-1.66q-.16-.17-.3-.33c-.64-.71-1.27-1.44-1.89-2.2s-1-1.24-1.5-1.89a7.57 7.57 0 0 0 -2.16-1.92 6.82 6.82 0 0 0 -2-.81 7.16 7.16 0 0 0 -1.8-.23h-7.15a7.53 7.53 0 0 0 -7.42 8.71l15.42 95.91a7.16 7.16 0 0 0 .66 2.07 7.37 7.37 0 0 0 2.25 2.75 7.5 7.5 0 0 0 4.52 1.5h8.61a7.32 7.32 0 0 0 4.32-1.44l.15-.11a40.74 40.74 0 0 1 4-2.57c11.41-6.41 24.27-6.4 35.23 0a36.94 36.94 0 0 1 3.66 2.44l.33.24a7 7 0 0 0 4.31 1.43h8.54a7.34 7.34 0 0 0 2.21-.33 7.46 7.46 0 0 0 2.59-1.39c.18-.15.36-.31.53-.48a6.5 6.5 0 0 0 .64-.75 6.06 6.06 0 0 0 .72-1.16.37.37 0 0 0 .07-.14 7.47 7.47 0 0 0 .65-2.07l13.11-81.47 2.32-14.44a7.49 7.49 0 0 0 -1.77-6.05zm-17.8 101.32a3.41 3.41 0 0 1 -1.37 2.23l-.23.15a3.36 3.36 0 0 1 -1.76.48h-8.54a2.94 2.94 0 0 1 -1.81-.58 39.18 39.18 0 0 0 -23.95-8.25 41.29 41.29 0 0 0 -24.36 8.18 3.43 3.43 0 0 1 -1.53.62 2.43 2.43 0 0 1 -.38 0h-8.61a3.31 3.31 0 0 1 -.77-.09 3.4 3.4 0 0 1 -2.6-2.77l-.58-3.58-5-31.34-3-18.51-6.84-42.45a3.4 3.4 0 0 1 3.36-3.94h7.1a2.47 2.47 0 0 1 .54.05 3.28 3.28 0 0 1 1.89 1 2.55 2.55 0 0 1 .26.3c.63.82 1.25 1.61 1.91 2.38q1.58 1.91 3.21 3.61c.62.64 1.24 1.26 1.87 1.85.24.24.48.46.73.68s.75.69 1.13 1c.57.5 1.15 1 1.73 1.44l.19.16c.58.45 1.16.89 1.75 1.31l.57.41c.45.31.91.62 1.37.91s1 .65 1.54 1 1 .57 1.5.84.77.41 1.17.6a5.6 5.6 0 0 0 .55.27c.42.21.84.4 1.26.58l.47.2a.09.09 0 0 0 .07 0c.42.19.84.36 1.27.52l.46.17a40.69 40.69 0 0 0 5 1.51c.72.17 1.44.32 2.17.45a2.5 2.5 0 0 0 .38.06c.45.09.9.16 1.36.21l.38.05.51.07.86.09h.39c.47.05 1 .08 1.44.11 1 .06 2 .09 3 .09h2.08.06 1.34l1.23-.05h.6l1.19-.08h.52.13l1.14-.12.79-.1c.52-.06 1-.14 1.53-.22 1.17-.19 2.31-.4 3.44-.66l.36-.09.37-.1.68-.17c.6-.15 1.19-.32 1.78-.51l.22-.07c.59-.18 1.16-.37 1.73-.57l.16-.24h.06l.31-.12.38-.14.53-.2.5-.21c.42-.17.84-.35 1.25-.54l.84-.38.89-.44c.62-.3 1.23-.63 1.82-1s1.4-.81 2.09-1.24 1.29-.84 1.92-1.29c.31-.22.62-.44.92-.67s.68-.5 1-.78c.51-.38 1-.8 1.51-1.22l.53-.45c.4-.35.79-.71 1.18-1.08l.51-.48c.41-.38.81-.77 1.21-1.18 1-1 1.93-2 2.87-3.11.86-1 1.7-2 2.52-3.11a3.12 3.12 0 0 1 .43-.46 3.42 3.42 0 0 1 1.86-.84h.39 7.09a3.42 3.42 0 0 1 3.39 3.94l-2.19 13.64-4.42 27.44-2.58 16.05zm-16.91-84.71-.53.26-.16.08v-1.22-.95-.09l-1 .49-.38.18-.34.15-.22.09c-.41.18-.83.35-1.25.51l-.74.29c-.41.16-.83.3-1.25.44q-.61.21-1.23.39l-.37.12-.28 1.23-.37.11-.23 1c-.76.19-1.52.37-2.3.53s-1.79.34-2.71.48l-.45 2-.8.05v.18l.79-.1c.52-.06 1-.14 1.53-.22 1.17-.19 2.31-.4 3.44-.66l.36-.09.37-.1.68-.17c.6-.15 1.19-.32 1.78-.51l.22-.07c.59-.18 1.16-.37 1.73-.57l.03-.03h.06l.31-.12.38-.14.53-.2.5-.21c.42-.17.84-.35 1.25-.54l.84-.38z" fill="#5e2323" transform="translate(-63.94 -111.9)"/><path d="m210.1 300.89a4.34 4.34 0 0 0 -.09-.52 2.12 2.12 0 0 0 -.13-.51.06.06 0 0 0 0 0 4.59 4.59 0 0 0 -.17-.48 3.11 3.11 0 0 0 -.2-.41 5.45 5.45 0 0 0 -4.84-2.93h-7.09a5.13 5.13 0 0 0 -2 .4 5.43 5.43 0 0 1 3.35 5.93l-9 55.9c-3.45 16.54-10.11 25.94-19.71 28.85a22.07 22.07 0 0 1 -9.77.47c-9.82-1.51-20 1.1-28.66 7.42a5.28 5.28 0 0 1 -3.11 1h-8.61a5.47 5.47 0 0 1 -5.4-4.59l-14.89-92.49a5.44 5.44 0 0 0 -.55 3.4l15.42 95.9a5.47 5.47 0 0 0 5.4 4.59h8.61a5.28 5.28 0 0 0 3.11-1c14-10.18 31.78-10.75 45.86 0a4.66 4.66 0 0 0 1.77.84 3.71 3.71 0 0 0 .48.1h.4.41 8.54a5.44 5.44 0 0 0 5.39-4.59l15.43-95.9a5.46 5.46 0 0 0 .07-.9 4.87 4.87 0 0 0 -.02-.48z" fill="#5e2323" opacity=".3" transform="translate(-63.94 -111.9)"/><rect fill="#ffbf00" height="9.87" rx="4.93" width="100.07" x="257.14" y="161.69"/><path d="m421.15 278.42v.21a4.83 4.83 0 0 1 -4.83 4.83h-20a4.82 4.82 0 0 0 4.82-4.83v-.21a4.83 4.83 0 0 0 -4.82-4.83h20a4.83 4.83 0 0 1 4.83 4.83z" fill="#5e2323" opacity=".3" transform="translate(-63.94 -111.9)"/><path d="m375.32 265.5-10.58-1.5 5.81-36.12a5.34 5.34 0 0 1 3.9-4.4l31.85-8.58a4.86 4.86 0 0 1 5.95 3.43l.25.94a4.86 4.86 0 0 1 -3.42 6l-28.44 7.65z" fill="#fff" transform="translate(-63.94 -111.9)"/><path d="m412.83 219.18-.26-.94a5.2 5.2 0 0 0 -6.36-3.67l-31.84 8.58a5.67 5.67 0 0 0 -4.15 4.67l-5.13 31.92-.66 4.12-.07.41 11.24 1.61.33-2 .33-2.06.34-2.06 4.33-26.6 28.23-7.6a5.2 5.2 0 0 0 3.67-6.38zm-37.78 45.95-8.88-1.27-1.05-.15.31-1.91.17-1.09.16-1 5.12-31.82a5 5 0 0 1 3.66-4.13l31.84-8.58a4.44 4.44 0 0 1 2.11-.05 4.53 4.53 0 0 1 3.44 3.25l.25.94a4.53 4.53 0 0 1 -3.18 5.58l-28.64 7.71-4.42 27.13-.34 2.06-.33 2.06z" fill="#5e2323" transform="translate(-63.94 -111.9)"/><path d="m412.5 219.26-.25-.94a4.85 4.85 0 0 0 -3.85-3.52l.12.48a4.86 4.86 0 0 1 -3.42 6l-25.87 7a4.13 4.13 0 0 0 -3 3.33l-4.89 30-6.06-.86-.54 3.33 10.58 1.51 5.32-32.63 28.44-7.65a4.86 4.86 0 0 0 3.42-6.05z" fill="#5e2323" opacity=".3" transform="translate(-63.94 -111.9)"/><path d="m414.49 218.73-.25-.94a6.93 6.93 0 0 0 -8.48-4.88l-31.84 8.57a7.37 7.37 0 0 0 -5.4 6.07l-5.18 32.19-.34 2.06-.3 1.87a1.23 1.23 0 0 0 0 .19 2 2 0 0 0 1.76 2.17l10.54 1.51h.3a2 2 0 0 0 2-1.73l.32-2 .34-2.06.33-2.06 4.11-25.23 27.16-7.31a6.92 6.92 0 0 0 4.93-8.42zm-40.65 43.07-.22 1.38-6.52-.93.07-.45.14-.85.19-1.21 5.09-31.58a3.28 3.28 0 0 1 2.4-2.71l31.84-8.57a2.73 2.73 0 0 1 1.83.14 2.76 2.76 0 0 1 1.61 1.84l.25.94a2.81 2.81 0 0 1 -2 3.43l-28.44 7.66a2.05 2.05 0 0 0 -1.49 1.65l-4.43 27.2z" fill="#5e2323" transform="translate(-63.94 -111.9)"/><path d="m405.45 261.8h-68.67a5.48 5.48 0 0 0 -5.37 4.36l-1.55 7.43h82.52l-1.56-7.43a5.48 5.48 0 0 0 -5.37-4.36z" fill="#ffbf00" transform="translate(-63.94 -111.9)"/><path d="m412.38 273.59h-13l-1.56-7.42a5.48 5.48 0 0 0 -5.37-4.37h13a5.48 5.48 0 0 1 5.37 4.37z" fill="#5e2323" opacity=".3" transform="translate(-63.94 -111.9)"/><path d="m332.22 283.46h-6.3a4.84 4.84 0 0 1 -4.84-4.83v-.21a4.84 4.84 0 0 1 4.84-4.83h6.3a4.83 4.83 0 0 0 -4.83 4.83v.21a4.83 4.83 0 0 0 4.83 4.83z" fill="#fff" opacity=".55" transform="translate(-63.94 -111.9)"/><path d="m343.08 261.8a5.49 5.49 0 0 0 -5.37 4.37l-1.55 7.42h-6.3l1.55-7.42a5.48 5.48 0 0 1 5.37-4.37z" fill="#fff" opacity=".55" transform="translate(-63.94 -111.9)"/><path d="m416.32 271.53h-90.4a5.15 5.15 0 0 0 -1 .08 5.81 5.81 0 0 0 -1.45.36 6.16 6.16 0 0 0 -1.15.57 6.86 6.86 0 0 0 -3.32 5.88v.21a6.9 6.9 0 0 0 6.89 6.89h90.4a6.9 6.9 0 0 0 6.89-6.89v-.21a6.9 6.9 0 0 0 -6.86-6.89zm-90.4 9.87a2.78 2.78 0 0 1 -2.78-2.77v-.21a2.78 2.78 0 0 1 2.78-2.77h90.4a2.77 2.77 0 0 1 2.77 2.77v.21a2.77 2.77 0 0 1 -2.77 2.77z" fill="#5e2323" transform="translate(-63.94 -111.9)"/><path d="m414.39 273.17-.34-1.64-1.21-5.79a7.59 7.59 0 0 0 -7.39-6h-68.67a7.57 7.57 0 0 0 -7.38 6l-1.15 5.49-.07.3-.34 1.64v.2a1.55 1.55 0 0 0 0 .22 2.06 2.06 0 0 0 .46 1.3 1.56 1.56 0 0 0 .35.33 2 2 0 0 0 1.25.43h82.52a2.06 2.06 0 0 0 2.05-2.06 2 2 0 0 0 -.08-.42zm-77.61-9.31h68.67a3.44 3.44 0 0 1 3.36 2.72l1 4.95h-77.42l1-4.95a3.44 3.44 0 0 1 3.39-2.72z" fill="#5e2323" transform="translate(-63.94 -111.9)"/><path d="m412.38 283.46-2.72 39.4-1.66 23.52-3 43.79a13.44 13.44 0 0 1 -13.4 12.51h-41a13.43 13.43 0 0 1 -13.4-12.51l-2.55-37.17-1.75-25.4-3-44.14z" fill="#e93b47" transform="translate(-63.94 -111.9)"/><path d="m345.72 210.96-1.62 23.52-.93-.51-14.05 8.6-14.05-8.6-14.06 8.6-14.04-8.6-14.06 8.6-2.2-1.45-1.75-25.42 3.94 2.15 14.05-8.59 14.05 8.59 14.05-8.59 14.05 8.59 14.06-8.59z" fill="#ffbf00"/><path d="m412.38 283.46-7.38 106.71a13.44 13.44 0 0 1 -13.4 12.51h-15.55a13.45 13.45 0 0 0 13.41-12.51l7.36-106.71z" fill="#5e2323" opacity=".3" transform="translate(-63.94 -111.9)"/><path d="m355.55 402.68h-4.93a13.43 13.43 0 0 1 -13.4-12.51l-7.36-106.71h4.93l7.36 106.71a13.45 13.45 0 0 0 13.4 12.51z" fill="#fff" opacity=".55" transform="translate(-63.94 -111.9)"/><path d="m338.4 377.35v-.46l-.44-6.36-.14-2-.14-2.05-.6-8.73-.11-1.64-.11-1.6v-.05l-.13-2v-.42l-.12-1.64-.11-1.63v-.41l-.32-4.66v-.41l-.11-1.65-.11-1.64v-.41l-.96-10.82-.17-2.5-.18-2.69-.17-2.33-.06-.88-.14-2.06-.14-2.05-.09-1.36-.15-2.06-.08-1.16-.06-.88h-2.06l.06.86.08 1.18.14 2.06h-1.98l.09 1.36.15 2.05.14 2.06.26 3.8.14 2.08.15 2.07.77 11.24v.41l.12 1.64.11 1.65v.41l.32 4.66v.41l.11 1.65.06.8v.15.68.42l.18 2.6.24 3.36.55 8 .14 2.05.14 2 .44 6.36.08 1.15.07.91h4.12zm75.48-95.29a2 2 0 0 0 -1.5-.66h-82.52a2 2 0 0 0 -1 .26l-.26.17a2.73 2.73 0 0 0 -.25.23 2 2 0 0 0 -.55 1.4v.14l.13 1.92.54 7.81 1.21 17.44.05.83.09 1.21.14 2.06.09 1.36.15 2.05.14 2.06.26 3.8.14 2.08.15 2.07.77 11.24v.41l.12 1.64.11 1.65v.41l.32 4.66v.41l.11 1.65.06.8v.15.68.42l.18 2.6.24 3.36.55 8 .14 2.05.14 2 .44 6.36.08 1.15.07.91.1 1.44v.61l.14 2.08.5 7.22a15.32 15.32 0 0 0 4 9.32c.37.4.75.78 1.15 1.14.15.14.31.27.47.4a14.86 14.86 0 0 0 1.9 1.35l.35.21a15.44 15.44 0 0 0 7.6 2h41a15.35 15.35 0 0 0 7.87-2.17 14.77 14.77 0 0 0 2.44-1.8 15.4 15.4 0 0 0 5.14-10.45l7.23-104.79.13-1.92c0-.05 0-.1 0-.14a2 2 0 0 0 -.36-1.28zm-7.88 64.51-3 43.43a11.4 11.4 0 0 1 -11.34 10.59h-41a10.89 10.89 0 0 1 -2.69-.33 10.36 10.36 0 0 1 -1.46-.47 11.76 11.76 0 0 1 -2-1 12.09 12.09 0 0 1 -1.65-1.3 11.38 11.38 0 0 1 -3.56-7.49l-.59-8.49v-.53l-.11-1.56v-.5l-.11-1.6v-.46l-.44-6.36-.14-2-.14-2.05-.6-8.73-.11-1.64-.11-1.6v-.05l-.13-2v-.42l-.12-1.64-.11-1.63v-.41l-.32-4.66v-.41l-.11-1.65-.11-1.64v-.41l-1.05-10.79-.17-2.5-.18-2.69-.17-2.33-.06-.88-.14-2.06-.14-2.05-.09-1.36-.15-2.06-.08-1.16-.06-.88-1.74-25.26h78.11l-2.49 36zm-67.6 30.78v-.46l-.44-6.36-.14-2-.14-2.05-.6-8.73-.11-1.64-.11-1.6v-.05l-.13-2v-.42l-.12-1.64-.11-1.63v-.41l-.32-4.66v-.41l-.11-1.65-.11-1.64v-.41l-.96-10.82-.17-2.5-.18-2.69-.17-2.33-.06-.88-.14-2.06-.14-2.05-.09-1.36-.15-2.06-.08-1.16-.06-.88h-2.06l.06.86.08 1.18.14 2.06h-1.98l.09 1.36.15 2.05.14 2.06.26 3.8.14 2.08.15 2.07.77 11.24v.41l.12 1.64.11 1.65v.41l.32 4.66v.41l.11 1.65.06.8v.15.68.42l.18 2.6.24 3.36.55 8 .14 2.05.14 2 .44 6.36.08 1.15.07.91h4.12z" fill="#5e2323" transform="translate(-63.94 -111.9)"/><path d="m350.44 386.09a16.59 16.59 0 0 1 -16.59 16.59h-76.74a16.6 16.6 0 0 1 -16.6-16.59 7.13 7.13 0 0 1 2.09-5l.34-.31a7.1 7.1 0 0 1 4.71-1.78h95.66a7.12 7.12 0 0 1 7.13 7.14z" fill="#f6b041" transform="translate(-63.94 -111.9)"/><path d="m350.44 386.09a16.59 16.59 0 0 1 -16.59 16.59h-20.32a16.62 16.62 0 0 0 15.8-11.51 3.22 3.22 0 0 0 -1.75-3.86 28.56 28.56 0 0 0 -2.41-1.72 10.78 10.78 0 0 0 -4.06-1.49 11 11 0 0 0 -6.33.93l-.41.2c-.25.13-.51.25-.76.35-3 1.28-6.34 1.05-9.89 0-9.34-3-17.2-2.59-23.12 2.36-3.43 2.58-6.9 2.73-10.39.51a36.15 36.15 0 0 0 -6-3.27 10.72 10.72 0 0 0 -7-.4c-6.33 1.77-12 .5-14.24-4a7.1 7.1 0 0 1 4.71-1.78h95.66q.35 0 .69 0h.33a5 5 0 0 1 .67.13l.28.07c.23.07.45.14.67.23a5.46 5.46 0 0 1 .6.27l.46.26.18.11.47.32.5.43a7.14 7.14 0 0 1 2.25 5.27z" fill="#5e2323" opacity=".3" transform="translate(-63.94 -111.9)"/><path d="m262.09 402.68h-5a16.6 16.6 0 0 1 -16.6-16.59 7.14 7.14 0 0 1 7.14-7.14h5a7.14 7.14 0 0 0 -7.14 7.14 16.59 16.59 0 0 0 16.6 16.59z" fill="#fff" opacity=".55" transform="translate(-63.94 -111.9)"/><path d="m338.54 379.45v-.5h-4.12l-.07-.91-.08-1.15h-38.12l-.2 2c-.7-.08-1.38-.13-2.05-.15a21.91 21.91 0 0 0 -4.17.21h-4.67a17.47 17.47 0 0 0 -1.75 1.29 12.69 12.69 0 0 1 -1.14.77h56.48zm10.23-.76a9.23 9.23 0 0 0 -1.83-1.05 8.8 8.8 0 0 0 -2.56-.68 7.59 7.59 0 0 0 -1.07-.07h-95.66a7.45 7.45 0 0 0 -1.16.08 8.92 8.92 0 0 0 -2.36.62 8.76 8.76 0 0 0 -1.82 1 9.19 9.19 0 0 0 -3.85 7.48 18.7 18.7 0 0 0 7 14.54l.18.14a17.78 17.78 0 0 0 3 1.91l.64.32a18.5 18.5 0 0 0 7.87 1.74h76.74a18.6 18.6 0 0 0 8.42-2l.4-.21a16.85 16.85 0 0 0 2-1.24c.23-.16.46-.33.68-.51.39-.3.76-.62 1.12-.95a4.27 4.27 0 0 0 .38-.36 18.56 18.56 0 0 0 5.67-13.37 9.21 9.21 0 0 0 -3.79-7.39zm-5.94 18.83a14.76 14.76 0 0 1 -3.68 2.11 14.36 14.36 0 0 1 -5.3 1h-76.74a14.55 14.55 0 0 1 -14.54-14.54 5 5 0 0 1 1.53-3.62 4.8 4.8 0 0 1 1.73-1.11 4.68 4.68 0 0 1 1.79-.35h95.69a5.08 5.08 0 0 1 5.08 5.08 14.53 14.53 0 0 1 -4.23 10.25 16.49 16.49 0 0 1 -1.33 1.18z" fill="#5e2323" transform="translate(-63.94 -111.9)"/><path d="m338.15 379.4a4.5 4.5 0 0 0 -4.07 1.39c-2 2.21-4.13 2.73-6.52 1.58a26.45 26.45 0 0 0 -2.41-1.72 10.45 10.45 0 0 0 -4.06-1.49 11 11 0 0 0 -6.33.93l-.41.19a6.53 6.53 0 0 1 -.76.36c-3 1.27-6.34 1-9.89 0-9.34-3-17.2-2.59-23.12 2.36-3.43 2.58-6.9 2.73-10.39.52a36.15 36.15 0 0 0 -6-3.27 10.72 10.72 0 0 0 -7-.41c-8.93 2.5-16.6-1-15.05-11.3h85.85 21c1.01 10.38-4.61 11.79-10.84 10.86z" fill="#8cc34b" transform="translate(-63.94 -111.9)"/><path d="m314.31 380.31c-3.17 1.64-6.77 1.45-10.61.31-9.34-3-17.2-2.59-23.12 2.36-3.43 2.58-6.9 2.73-10.39.52a36.15 36.15 0 0 0 -6-3.27 10.72 10.72 0 0 0 -7-.41c-8.93 2.5-16.6-1-15.05-11.3h2.54c.11 8.14 7.17 10.81 15.24 8.56a10.65 10.65 0 0 1 7 .41 36.84 36.84 0 0 1 6 3.26c3.49 2.22 7 2.08 10.39-.51 5.93-5 13.79-5.38 23.12-2.37 2.46.74 5.31 2.04 7.88 2.44z" fill="#fff" opacity=".55" transform="translate(-63.94 -111.9)"/><path d="m275.05 387.1a11 11 0 0 1 -6-1.87 34 34 0 0 0 -5.71-3.1 8.61 8.61 0 0 0 -5.65-.33c-5.81 1.62-11 .88-14.31-2-2-1.8-4.27-5.27-3.32-11.55a2.05 2.05 0 1 1 4.06.61c-.37 2.46-.33 5.82 2 7.86s6.11 2.37 10.49 1.15a12.82 12.82 0 0 1 8.34.49 38.35 38.35 0 0 1 6.36 3.45c2.72 1.73 5.27 1.61 8-.41 6.21-5.16 14.64-6.07 25-2.71 3.69 1.11 6.67 1 9.06-.2a13 13 0 0 1 12.83.45c.77.48 1.58 1 2.41 1.69 1.09.48 2.32.61 3.89-1.17a6.54 6.54 0 0 1 5.92-2.07c3.38.5 5.66.14 7-1.1s1.91-3.88 1.55-7.59a2.05 2.05 0 0 1 4.09-.4c.49 5-.45 8.73-2.81 11s-5.69 2.89-10.41 2.19a2.48 2.48 0 0 0 -2.23.72c-2.55 2.89-5.73 3.62-8.95 2.07a3 3 0 0 1 -.38-.24 27.15 27.15 0 0 0 -2.23-1.59 8.83 8.83 0 0 0 -8.75-.28c-3.39 1.77-7.38 1.92-12.19.48-9.16-3-16.09-2.32-21.22 2l-.08.06a11.19 11.19 0 0 1 -6.76 2.39z" fill="#5e2323" transform="translate(-63.94 -111.9)"/><path d="m353.26 327.25v5.41a8.94 8.94 0 0 1 -8.94 8.94h-97.68a8.94 8.94 0 0 1 -8.94-8.94v-5.41a8.36 8.36 0 0 1 .07-1.13 9 9 0 0 1 8.87-7.82h97.68a8.93 8.93 0 0 1 8.9 8.23 5.69 5.69 0 0 1 .04.72z" fill="#c3512c" transform="translate(-63.94 -111.9)"/><path d="m353.26 327.25v5.41a8.94 8.94 0 0 1 -8.94 8.94h-23.14a8.94 8.94 0 0 0 8.94-8.94v-.58a5.53 5.53 0 0 1 -2.38-.59 26.45 26.45 0 0 0 -2.41-1.72 10.88 10.88 0 0 0 -10.79-.36c-3.19 1.65-6.81 1.48-10.66.32-9.33-3-17.2-2.59-23.12 2.37-3.43 2.59-6.9 2.73-10.39.51a36.84 36.84 0 0 0 -6-3.26 10.71 10.71 0 0 0 -7-.41c-9.79 2.67-18.17 1.43-19.59-2.82a9 9 0 0 1 8.87-7.82h97.68a8.93 8.93 0 0 1 8.9 8.23 5.69 5.69 0 0 1 .03.72z" fill="#5e2323" opacity=".3" transform="translate(-63.94 -111.9)"/><path d="m251.62 341.6h-5a8.94 8.94 0 0 1 -8.94-8.94v-5.41a9 9 0 0 1 8.94-8.95h5a9 9 0 0 0 -8.94 8.95v5.41a8.94 8.94 0 0 0 8.94 8.94z" fill="#fff" opacity=".55" transform="translate(-63.94 -111.9)"/><rect fill="#c3512c" height="18.09" rx="6.99" width="115.56" x="173.76" y="238.48"/><path d="m353.26 357.37v4.11a7 7 0 0 1 -7 7h-17.06a6.87 6.87 0 0 0 3.08-.71l-9.46-.21-1.3.92h-16.39l-17.45-9.57a15.44 15.44 0 0 0 -7.43-1.9h-1.54a13.29 13.29 0 0 1 -6.73-1.83l-6.55-3.83h67.32a7 7 0 0 0 -3.55-1h17.07a7 7 0 0 1 6.99 7.02z" fill="#5e2323" opacity=".3" transform="translate(-63.94 -111.9)"/><path d="m249.67 368.47h-5a7 7 0 0 1 -7-7v-4.11a7 7 0 0 1 7-7h5a7 7 0 0 0 -7 7v4.11a7 7 0 0 0 7 7z" fill="#fff" opacity=".55" transform="translate(-63.94 -111.9)"/><path d="m279.71 318.3-5.56 2.06h25.51l.1-1 .1-1zm74.92 5.15q-.13-.37-.3-.75a11.18 11.18 0 0 0 -1.24-2.09 12 12 0 0 0 -1.9-1.94 10.91 10.91 0 0 0 -6.88-2.42h-97.67a11 11 0 0 0 -6.12 1.86 9.36 9.36 0 0 0 -1.06.82 10.23 10.23 0 0 0 -1.7 1.84 10.91 10.91 0 0 0 -2.12 6.48v5.41a11 11 0 0 0 4.82 9.1 10.57 10.57 0 0 0 1.47.84 10.28 10.28 0 0 0 2.06.73 9.86 9.86 0 0 0 1.64.28c.33 0 .67.05 1 .05h97.67a10.57 10.57 0 0 0 2.65-.33 11.16 11.16 0 0 0 2.06-.72 11.18 11.18 0 0 0 1.47-.84 11 11 0 0 0 4.81-9.1v-5.41a10.94 10.94 0 0 0 -.66-3.81zm-10.32 16.1h-97.67a4.9 4.9 0 0 1 -.77-.05 6.89 6.89 0 0 1 -6.11-6.84v-5.41a6.91 6.91 0 0 1 2.62-5.4 6.46 6.46 0 0 1 2-1.1 6.13 6.13 0 0 1 1.48-.34 6.84 6.84 0 0 1 .79-.05h97.67a6.84 6.84 0 0 1 4.11 1.37 5.72 5.72 0 0 1 .65.55 6.33 6.33 0 0 1 .95 1.12 6.7 6.7 0 0 1 .89 1.87 6.82 6.82 0 0 1 .29 2v5.41a6.9 6.9 0 0 1 -6.9 6.87z" fill="#5e2323" transform="translate(-63.94 -111.9)"/><path d="m338.15 322.75a4 4 0 0 0 -4.07 1.4c-2 2.21-4.13 2.73-6.52 1.58a28.56 28.56 0 0 0 -2.41-1.72 10.9 10.9 0 0 0 -10.8-.36 12.57 12.57 0 0 1 -8.57.85c-.68-.14-1.38-.32-2.07-.52-9.34-3-17.2-2.59-23.12 2.37-3.43 2.58-6.9 2.73-10.39.51a36.15 36.15 0 0 0 -6-3.27 10.78 10.78 0 0 0 -7-.41c-15.25 4.17-27.09-1.18-14.47-12.57l76.49.88 29.81.35c9.78 9.61 1.41 14.83-10.88 10.91z" fill="#8cc34b" transform="translate(-63.94 -111.9)"/><path d="m314.84 323.41-.49.24c-3.18 1.65-6.8 1.49-10.65.33-9.34-3-17.2-2.59-23.12 2.37-3.43 2.58-6.9 2.73-10.39.51a36.15 36.15 0 0 0 -6-3.27 10.78 10.78 0 0 0 -7-.41c-14.69 4-26.21-.8-15.77-11.33-5.49 8.35 5.14 11.85 18.31 8.25a10.71 10.71 0 0 1 7 .41 36.84 36.84 0 0 1 6 3.26c3.49 2.22 7 2.07 10.39-.51 5.92-5 13.78-5.39 23.12-2.37 2.76.84 5.89 2.37 8.6 2.52z" fill="#fff" opacity=".55" transform="translate(-63.94 -111.9)"/><path d="m334.58 352h-36v.42h36zm16.4-2.37a8.58 8.58 0 0 0 -1.49-.73 9.34 9.34 0 0 0 -1.92-.5l-.69-.07h-.6-101.59a9.11 9.11 0 0 0 -1.29.09 9.43 9.43 0 0 0 -1.93.5 9.8 9.8 0 0 0 -1.49.73 9.07 9.07 0 0 0 -4.34 7.73v4.11a9 9 0 0 0 4.36 7.71 8.46 8.46 0 0 0 2 .91 8.57 8.57 0 0 0 2 .39h.69 101.58a7 7 0 0 0 .8 0 8.6 8.6 0 0 0 2-.42 8.93 8.93 0 0 0 2-1 9 9 0 0 0 4.18-7.63v-4.11a9 9 0 0 0 -4.25-7.69zm.22 11.83a4.94 4.94 0 0 1 -4.93 4.94h-101.58a4.94 4.94 0 0 1 -4.93-4.94v-4.11a4.93 4.93 0 0 1 4.93-4.93h101.58a4.93 4.93 0 0 1 4.93 4.93z" fill="#5e2323" transform="translate(-63.94 -111.9)"/><path d="m275.05 330.46a11 11 0 0 1 -6-1.87 34 34 0 0 0 -5.71-3.1 8.76 8.76 0 0 0 -5.66-.33c-10.36 2.84-19.06 1.57-21.64-3.15-1.37-2.5-1.57-6.77 5.25-12.92a2.06 2.06 0 1 1 2.76 3.05c-3.66 3.3-5.3 6.25-4.4 7.9 1.32 2.42 8.18 3.55 16.95 1.16a12.91 12.91 0 0 1 8.33.49 38.35 38.35 0 0 1 6.36 3.45c2.72 1.73 5.26 1.61 8-.41 6.21-5.16 14.64-6.07 25-2.71 3.69 1.11 6.67 1.05 9.06-.2a13 13 0 0 1 12.83.45 28.22 28.22 0 0 1 2.41 1.69c1.09.48 2.32.61 3.89-1.17a6 6 0 0 1 6.24-2c6.26 2 11.14 1.3 12.24-.52.84-1.4-.48-4.07-3.44-7a2.06 2.06 0 1 1 2.89-2.93c6.18 6.07 5.2 10.14 4.07 12-2.38 3.94-9 4.85-17 2.32a2.09 2.09 0 0 0 -1.92.8c-2.55 2.89-5.73 3.63-8.95 2.07a2.45 2.45 0 0 1 -.38-.24 24.12 24.12 0 0 0 -2.23-1.59 8.83 8.83 0 0 0 -8.75-.28c-3.39 1.77-7.38 1.92-12.19.48-9.16-3-16.09-2.31-21.22 2l-.08.06a11.12 11.12 0 0 1 -6.71 2.5z" fill="#5e2323" transform="translate(-63.94 -111.9)"/><path d="m343.31 312.82h-95.26a7.51 7.51 0 0 1 -7.25-9.54c6.49-22.74 28.51-39.48 54.68-39.48a59.22 59.22 0 0 1 23.29 4.72c15.29 6.51 27 19.23 31.39 34.76a7.51 7.51 0 0 1 -6.85 9.54z" fill="#f6b041" transform="translate(-63.94 -111.9)"/><path d="m320.25 269.18a59.5 59.5 0 0 0 -20.25-3.52c-26.17 0-48.19 16.74-54.68 39.48a7.45 7.45 0 0 0 2.29 7.68 7.51 7.51 0 0 1 -6.81-9.53c6.49-22.74 28.51-39.48 54.68-39.48a59.32 59.32 0 0 1 24.77 5.37z" fill="#fff" opacity=".55" transform="translate(-63.94 -111.9)"/><path d="m331.88 312.83-.08-1.18-.06-.86h-83.74a5.08 5.08 0 0 1 -1.1-.12 4.81 4.81 0 0 1 -1.23-.41 5 5 0 0 1 -1.45-1 2.08 2.08 0 0 1 .53 1.4 2.11 2.11 0 0 1 0 .25 1 1 0 0 1 -.05.24 1.83 1.83 0 0 1 -.18.46 1.14 1.14 0 0 1 -.15.23 1.82 1.82 0 0 0 .27.15h.08l.29.13h.09l.29.12.28.1h.13l.45.12h.15a5.12 5.12 0 0 0 .54.1 4.6 4.6 0 0 0 .52.06h.12c-.15-.13-.29-.27-.43-.41l-.27-.29a3.92 3.92 0 0 1 -.37-.46 1.72 1.72 0 0 1 -.23-.32c-.08-.11-.15-.22-.22-.33l.28-.1 5.22 1.93h42.9-.09.85 5.15l-.2 2.06h31.83zm20.25-10.1a53.46 53.46 0 0 0 -8.5-17.21c-.51-.7-1-1.39-1.59-2.06s-1.16-1.39-1.76-2.06a59.09 59.09 0 0 0 -6-5.75c-.84-.7-1.69-1.37-2.58-2-.52-.39-1.05-.76-1.58-1.14s-.92-.62-1.39-.92l-.46-.3a60.54 60.54 0 0 0 -18.85-7.89c-.67-.15-1.34-.3-2-.42s-1.35-.26-2-.37a62 62 0 0 0 -19.29-.07 60.82 60.82 0 0 0 -10.62 2.62c-.59.2-1.18.41-1.76.63l-.56.22-.74.29-.49.19c-.69.29-1.37.59-2 .89l-1 .46-.92.46c-1.1.56-2.19 1.15-3.25 1.77-.82.48-1.64 1-2.43 1.5l-.31.2-.31.2c-1.1.74-2.19 1.52-3.24 2.34-.41.31-.81.62-1.2.94l-.29.25a3.47 3.47 0 0 0 -.29.25c-.31.25-.61.51-.91.77l-.28.24a54.77 54.77 0 0 0 -16.54 26 9.42 9.42 0 0 0 1.12 7.69c.14.22.29.44.45.65a8.73 8.73 0 0 0 .84 1 6.51 6.51 0 0 0 .54.51 10.76 10.76 0 0 0 1 .77 9.58 9.58 0 0 0 5.22 1.53h94.87a9.45 9.45 0 0 0 4.9-1.35 9 9 0 0 0 1.66-1.24 9.27 9.27 0 0 0 1.1-1.23 4.15 4.15 0 0 0 .24-.34 9.39 9.39 0 0 0 1.2-8.02zm-104.09 8a5.08 5.08 0 0 1 -1.1-.12 4.81 4.81 0 0 1 -1.23-.41 5 5 0 0 1 -1.45-1 1 1 0 0 1 -.18-.18 4.19 4.19 0 0 1 -.39-.45 5.37 5.37 0 0 1 -.89-4.74 49.6 49.6 0 0 1 7.78-15.8c.81-1.11 1.66-2.18 2.57-3.22.41-.48.83-.94 1.26-1.4.65-.7 1.31-1.38 2-2l.62-.58.45-.42c.48-.44 1-.87 1.45-1.28s.76-.64 1.15-.94q1-.84 2.13-1.62l.3-.22.31-.22a54.39 54.39 0 0 1 6.82-4.08c.41-.22.82-.42 1.24-.62l.31-.15.31-.14c.42-.19.83-.38 1.26-.55a56.8 56.8 0 0 1 22-4.67h.67a58.09 58.09 0 0 1 9.47.78c.68.11 1.35.24 2 .37s1.35.29 2 .45a57 57 0 0 1 13.35 5.07c.75.4 1.48.81 2.21 1.25.33.19.65.38 1 .59.66.39 1.29.81 1.93 1.25l.54.37a52.84 52.84 0 0 1 6.54 5.38c.7.66 1.37 1.35 2 2.06s1.23 1.35 1.82 2.06a50 50 0 0 1 9.76 18.34 5.37 5.37 0 0 1 -.89 4.74 5.46 5.46 0 0 1 -4.38 2.18zm83.84 2.05-.08-1.18-.06-.86h-83.74a5.08 5.08 0 0 1 -1.1-.12 4.81 4.81 0 0 1 -1.23-.41 5 5 0 0 1 -1.45-1 2.08 2.08 0 0 1 .53 1.4 2.11 2.11 0 0 1 0 .25 1 1 0 0 1 -.05.24 1.83 1.83 0 0 1 -.18.46 1.82 1.82 0 0 1 -.15.23 1.82 1.82 0 0 0 .27.15h.08l.29.13h.09l.29.12.25.08h.13l.45.12h.15a5.12 5.12 0 0 0 .54.1 4.6 4.6 0 0 0 .52.06h.12c-.15-.13-.29-.27-.43-.41a2.44 2.44 0 0 1 -.27-.29 3.92 3.92 0 0 1 -.37-.46 1.72 1.72 0 0 1 -.23-.32c-.08-.11-.15-.22-.22-.33l.28-.1 5.22 1.93h29.57l-.21 2.06h51.11z" fill="#5e2323" transform="translate(-63.94 -111.9)"/><rect fill="#e93b47" height="8.78" rx="4.11" width="109.93" x="176.57" y="229.7"/><path d="m193.64 230.6h5.41v7.88h-5.41z" fill="#fff" opacity=".55"/><path d="m202.15 230.6h2.71v7.88h-2.71z" fill="#fff" opacity=".55"/><path d="m256.31 230.6h5.41v7.88h-5.41z" fill="#fff" opacity=".55"/><path d="m264.83 230.6h2.71v7.88h-2.71z" fill="#fff" opacity=".55"/><path d="m338.15 322.75a4 4 0 0 0 -4.07 1.4c-2 2.21-4.13 2.73-6.52 1.58a28.56 28.56 0 0 0 -2.41-1.72 10.9 10.9 0 0 0 -10.8-.36 12.57 12.57 0 0 1 -8.57.85c7.18.73 11-2.85 10.77-11.68l2.65-1.33 29.81.35c9.8 9.61 1.43 14.83-10.86 10.91z" fill="#5e2323" opacity=".3" transform="translate(-63.94 -111.9)"/><path d="m298.75 345.72v.55a4.11 4.11 0 0 0 4.11 4.11h10.14a4.11 4.11 0 0 1 -4.11-4.11v-.55a4.12 4.12 0 0 1 4.11-4.12h-10.14a4.12 4.12 0 0 0 -4.11 4.12z" fill="#5e2323" opacity=".3" transform="translate(-63.94 -111.9)"/><path d="m249.15 350.38h-4.53a4.11 4.11 0 0 1 -4.11-4.11v-.55a4.12 4.12 0 0 1 4.11-4.12h4.53a4.12 4.12 0 0 0 -4.11 4.12v.55a4.11 4.11 0 0 0 4.11 4.11z" fill="#fff" opacity=".55" transform="translate(-63.94 -111.9)"/><path d="m296.86 348.73-.15 1.57v.08h3.2a4.85 4.85 0 0 0 .63-.72 4.93 4.93 0 0 0 .46-.66v-.25zm53.64-7a5.62 5.62 0 0 0 -1.82-1.3 5.72 5.72 0 0 0 -2.35-.5h-101.71a5.74 5.74 0 0 0 -2.34.5 5.62 5.62 0 0 0 -1.82 1.3 5.73 5.73 0 0 0 -1.59 4v.55a5.86 5.86 0 0 0 2.68 4.86 5.74 5.74 0 0 0 3.07.89h101.71a5.78 5.78 0 0 0 3.08-.89 5.68 5.68 0 0 0 1.57-1.48 5.57 5.57 0 0 0 1.09-3.07 1.62 1.62 0 0 0 0-.31v-.55a5.73 5.73 0 0 0 -1.57-3.97zm-105.88 7a2.41 2.41 0 0 1 -1.22-.32 2.45 2.45 0 0 1 -1.24-2.14v-.55a2.47 2.47 0 0 1 1.83-2.39 2.59 2.59 0 0 1 .63-.08h101.71a2.59 2.59 0 0 1 .63.08 2.47 2.47 0 0 1 1.84 2.39v.55a2.23 2.23 0 0 1 -.24 1 2.39 2.39 0 0 1 -1 1.11 2.53 2.53 0 0 1 -1.23.32z" fill="#5e2323" transform="translate(-63.94 -111.9)"/><path d="m295.89 348.73h1v-.2a2.5 2.5 0 0 1 -1 .2zm5.55-4.53a4.27 4.27 0 0 0 -.18-.54 3 3 0 0 0 -.17-.41 5.47 5.47 0 0 0 -.56-.93 4.85 4.85 0 0 0 -.63-.72 1.26 1.26 0 0 0 -.24-.22 5.56 5.56 0 0 0 -2-1.13 5.72 5.72 0 0 0 -1.81-.29h-51.23a5.74 5.74 0 0 0 -2.34.5 5.62 5.62 0 0 0 -1.82 1.3 5.73 5.73 0 0 0 -1.59 4v.55a5.86 5.86 0 0 0 2.68 4.86 5.74 5.74 0 0 0 3.07.89h51.27a4.63 4.63 0 0 0 .65 0 5.62 5.62 0 0 0 2.07-.64h.07a5.51 5.51 0 0 0 1.22-.92 4.85 4.85 0 0 0 .63-.72 4.93 4.93 0 0 0 .47-.78l.12-.25a3 3 0 0 0 .18-.41 5.61 5.61 0 0 0 .38-2.05v-.55a5.42 5.42 0 0 0 -.24-1.54zm-56.82 4.53a2.41 2.41 0 0 1 -1.22-.32 2.45 2.45 0 0 1 -1.24-2.14v-.55a2.47 2.47 0 0 1 1.83-2.39 2.59 2.59 0 0 1 .63-.08h51.27a2.45 2.45 0 0 1 1.36.41l.1.07a2.47 2.47 0 0 1 1 2v.55a2.44 2.44 0 0 1 -1.11 2.05 2.22 2.22 0 0 1 -.37.21 2.5 2.5 0 0 1 -1 .2z" fill="#5e2323" transform="translate(-63.94 -111.9)"/><path d="m300 345.72v.55a4.11 4.11 0 0 1 -4.11 4.11h-10.14a4.11 4.11 0 0 0 4.11-4.11v-.55a4.12 4.12 0 0 0 -4.11-4.12h10.14a4.12 4.12 0 0 1 4.11 4.12z" fill="#5e2323" opacity=".3" transform="translate(-63.94 -111.9)"/><path d="m350.45 345.72v.55a4.11 4.11 0 0 1 -4.11 4.11h-10.15a4.12 4.12 0 0 0 4.12-4.11v-.55a4.13 4.13 0 0 0 -4.12-4.12h10.15a4.12 4.12 0 0 1 4.11 4.12z" fill="#5e2323" opacity=".3" transform="translate(-63.94 -111.9)"/><path d="m340.81 350.38v2.33a3.31 3.31 0 0 1 -3.31 3.29 16.1 16.1 0 0 0 -9.34 3l-13.32 9.46-.25.18a10.82 10.82 0 0 1 -11.5.66l-1.52-.84-19.21-10.53a15.44 15.44 0 0 0 -7.43-1.9h-1.54a13.39 13.39 0 0 1 -6.73-1.83l-6.55-3.83z" fill="#fec828" transform="translate(-63.94 -111.9)"/><path d="m315.55 368-.71.5-.25.18a10.82 10.82 0 0 1 -11.5.66l-1.52-.84-19.21-10.53a15.44 15.44 0 0 0 -7.43-1.9h-1.54a13.39 13.39 0 0 1 -6.73-1.83l-6.55-3.83h7.7l2.82 1.65a13.39 13.39 0 0 0 6.73 1.83h1.55a15.43 15.43 0 0 1 7.42 1.9l19.21 10.53 1.53.84a10.78 10.78 0 0 0 8.48.84z" fill="#fff" opacity=".55" transform="translate(-63.94 -111.9)"/><path d="m305 368.38.17.09h.1zm35.85-19.65h-80.7a1.66 1.66 0 0 0 -1.59 1.22 1.54 1.54 0 0 0 -.06.43 1.67 1.67 0 0 0 .82 1.42l.38.22.71.42 5.46 3.19a15 15 0 0 0 7.56 2.05h1.54a12.08 12.08 0 0 1 1.47.09 13.63 13.63 0 0 1 5.17 1.61l12.84 7 .67.37 2 1.08 1.1.6h.05l.81.45 2.9 1.59.4.22a12.44 12.44 0 0 0 6 1.54 12.63 12.63 0 0 0 6.42-1.76c.28-.17.55-.35.82-.54l2.12-1.51 2.89-2.05 8.54-6.06a14.49 14.49 0 0 1 3.86-2 15.68 15.68 0 0 1 2-.5 14 14 0 0 1 2.05-.21h.46a5 5 0 0 0 2.37-.6 5 5 0 0 0 1.14-.86 4.93 4.93 0 0 0 1.45-3.51v-2.33a1.65 1.65 0 0 0 -1.69-1.57zm-4.06 5.67a18.44 18.44 0 0 0 -2 .2 17.46 17.46 0 0 0 -2 .44 17.69 17.69 0 0 0 -5.53 2.63l-12.3 8.75-1 .71-.26.18a9.32 9.32 0 0 1 -2.19 1.14h-.06-.05a9.23 9.23 0 0 1 -6 0h-.06l-.27-.09a8.4 8.4 0 0 1 -1.05-.5l-2.64-1.45-1.9-1-2-1.07-2-1.08-9-4.93-3.28-1.8a17 17 0 0 0 -6.2-2 15.12 15.12 0 0 0 -2-.13h-1.54a11.6 11.6 0 0 1 -3.88-.67 10.85 10.85 0 0 1 -2-.93l-.6-.35-.71-.42h73v.69a1.45 1.45 0 0 1 0 .37 1.67 1.67 0 0 1 -1.63 1.31h-.75z" fill="#5e2323" transform="translate(-63.94 -111.9)"/><path d="m298.65 280.71c.05 1.42-.24 2.59-.66 2.6s-.8-1.12-.85-2.55.24-2.59.66-2.6.8 1.12.85 2.55z" fill="#fff" transform="translate(-63.94 -111.9)"/><path d="m279.16 277.68c-1.33.52-2.52.64-2.68.25s.79-1.13 2.12-1.66 2.52-.64 2.67-.25-.79 1.13-2.11 1.66z" fill="#fff" transform="translate(-63.94 -111.9)"/><path d="m315.36 277c1.19.8 1.95 1.72 1.72 2.07s-1.38 0-2.56-.81-1.95-1.73-1.72-2.07 1.38-.01 2.56.81z" fill="#fff" transform="translate(-63.94 -111.9)"/><path d="m308.58 282.74c.63 1.27.84 2.46.47 2.64s-1.2-.69-1.83-2-.84-2.46-.47-2.65 1.25.73 1.83 2.01z" fill="#fff" transform="translate(-63.94 -111.9)"/><ellipse cx="286.34" cy="281.33" fill="#fff" rx="2.58" ry=".76" transform="matrix(.43082613 -.90243495 .90243495 .43082613 -154.85 306.61)"/><path d="m343.31 312.82h-55.44c47.5 2.19 49-35.21 30.88-44.29 15.29 6.51 27 19.23 31.39 34.76a7.51 7.51 0 0 1 -6.83 9.53z" fill="#5e2323" opacity=".3" transform="translate(-63.94 -111.9)"/><path d="m338.15 379.4a4.5 4.5 0 0 0 -4.07 1.39c-2 2.21-4.13 2.73-6.52 1.58a26.45 26.45 0 0 0 -2.41-1.72 10.45 10.45 0 0 0 -4.06-1.49c5-1.44 7.74-4.63 6.78-10.64h.11 21c1.02 10.4-4.6 11.81-10.83 10.88z" fill="#5e2323" opacity=".3" transform="translate(-63.94 -111.9)"/><circle cx="202.56" cy="188.11" fill="#5e2323" opacity=".3" r="1.85"/><circle cx="250.94" cy="182.19" fill="#5e2323" opacity=".3" r="1.85"/><path d="m273.63 294.2a.92.92 0 1 1 -.92-.92.92.92 0 0 1 .92.92z" fill="#5e2323" opacity=".3" transform="translate(-63.94 -111.9)"/><path d="m313.26 300.76a.92.92 0 1 1 -.92-.92.92.92 0 0 1 .92.92z" fill="#5e2323" opacity=".3" transform="translate(-63.94 -111.9)"/><circle cx="209.78" cy="188.11" fill="#5e2323" opacity=".3" r="1.24"/><circle cx="242.63" cy="188.2" fill="#5e2323" opacity=".3" r="1.24"/></svg>