<svg viewBox="0 0 516.23 426.34" xmlns="http://www.w3.org/2000/svg"><path d="m104.23 471.88-41.34.24s-63.83-60.44-58-202.29 104.6-217.83 174.65-222.47c85.46-5.72 101 39 166.86 51.65 57.66 11.06 94.6 34.57 120.6 92.19 24.87 55.09 34.31 174.48-20.34 280.68z" fill="#ffefe0" transform="translate(-4.48 -46.85)"/><path d="m173.85 472.29c1.67-1.06 29.05-43 47.08-23.16 0 0 27-72.67 64.09-69.23s5.68 57.34 5.68 57.34 31.71-10.3 24.37 16.91c0 0 40.23-4.75 37.22 18.24z" fill="#258d8c" transform="translate(-4.48 -46.85)"/><ellipse cx="331.39" cy="406.71" fill="#258d8c" rx="12.51" ry="6.66" transform="matrix(.78510078 -.61936804 .61936804 .78510078 -185.17 245.81)"/><ellipse cx="336.57" cy="423.74" fill="#258d8c" rx="7.41" ry="3.94" transform="matrix(.78510078 -.61936804 .61936804 .78510078 -194.6 252.68)"/><path d="m271 390.8a.42.42 0 0 1 -.27-.09.26.26 0 0 1 0-.43c.27-.22 6.7-5.43 13.61-5.43.22 0 .39.13.39.3a.35.35 0 0 1 -.39.31c-6.57 0-13 5.19-13.06 5.25a.42.42 0 0 1 -.28.09z" transform="translate(-4.48 -46.85)"/><path d="m276.21 390.38a.42.42 0 0 1 -.27-.09.26.26 0 0 1 0-.43c.12-.1 3.11-2.47 9.35-3.23a.39.39 0 0 1 .44.26c0 .17-.11.32-.32.35-6 .72-8.89 3-8.92 3.05a.42.42 0 0 1 -.28.09z" transform="translate(-4.48 -46.85)"/><path d="m143.81 472.33c-.91-.58-16-23.64-25.9-12.74 0 0-14.88-40-35.27-38.1s-12.18 30.3-12.18 30.3c-2.49-1.58-9.3-1.52-6.69 6.49-9.57-4.54-16.38 7.13-6.81 14.11z" fill="#258d8c" transform="translate(-4.48 -46.85)"/><path d="m19.43 424.74h443.09v1.6h-443.09z" fill="#4c222e"/><path d="m255.21 132.51c0-.11 0-.21 0-.31a6.87 6.87 0 0 0 -6.38-6.52h-152.43a6.87 6.87 0 0 0 -6.4 6.52 3 3 0 0 0 0 .31v322.05a6 6 0 0 0 5.93 6.07h153.35a6 6 0 0 0 5.93-6.07v-322zm-165.11 17.11v-9.73h9.9a2.11 2.11 0 0 0 .93.21 2.15 2.15 0 0 0 .94-.21h5.18a2.19 2.19 0 0 0 1.87 0h5.19a2.08 2.08 0 0 0 .93.21 2.12 2.12 0 0 0 .94-.21h109.32v.21h17.93v-.21h11.92v9.73z" fill="#d0f6fc" transform="translate(-4.48 -46.85)"/><path d="m245.25 118.67h-145.25a17.12 17.12 0 0 0 -17 17.33v318.3a17.12 17.12 0 0 0 17 17.29h145.3a17.11 17.11 0 0 0 16.93-17.29v-318.3a17.11 17.11 0 0 0 -16.98-17.33zm10 332.56a9.3 9.3 0 0 1 -9.2 9.4h-146.85a9.3 9.3 0 0 1 -9.2-9.4v-315.09a10.37 10.37 0 0 1 10.26-10.48h144.74a10.37 10.37 0 0 1 10.26 10.48z" fill="#20111d" transform="translate(-4.48 -46.85)"/><path d="m255.21 149.59v305a6 6 0 0 1 -5.93 6.06h-153.35a6 6 0 0 1 -5.93-6.08v-305h.1 165.05z" fill="#d0f6fc" transform="translate(-4.48 -46.85)"/><path d="m132.73 149.62h-5.73v53.38h-37v5.88h37v39.44h-37v5.88h37v60.59h-37v5.87h37.05v57h-37.05v5.88h37.08v77.15h5.75v-58.33h75.47v24.19h-31.2v34.14h5.75v-28.33h72.36v-5.87h-41.16v-24.19h41v-5.88h-79.47v-27.12h61.82v-78.38h17.81v-5.87h-17.81v-30.89h17.8v-5.88h-17.8v-39.44h17.78v-5.84h-17.75v-23.45h17.78v-5.88h-122.47zm0 59.22h62.27v21.4a21 21 0 0 0 -17.67 18h-44.56zm65.1 27.07a15.32 15.32 0 1 1 -15 15.31 15.17 15.17 0 0 1 15.02-15.31zm-65.08 18.25h44.55a21 21 0 0 0 17.67 18v12.84h-62.18zm.07 142.26-.05-105.5h36.94l.1 105.5zm98.78-33h-56.05l-.07-72.5h56.17zm0-78.37h-30.87v-12.84a21 21 0 0 0 17.66-18h13.27zm0-36.77h-13.21a21 21 0 0 0 -17.66-18v-21.4h30.94zm-40.6-68.73h40.69v23.45h-40.69zm-5.77 23.45h-52.48v-23.45h52.49z" fill="#fff" transform="translate(-4.48 -46.85)"/><path d="m211.93 430.82h-27.26v-2.48h24.84v-27.22h-38.17v-35.89h61.8v-75.49h-36.66v-18.6c-6.22-.39-11.29-3.78-14.71-9.87a31.47 31.47 0 0 1 -3.25-8.66h-49.89v-41.45h2.43v39h49.5l.16 1.05a29.07 29.07 0 0 0 3.18 8.91c3.24 5.71 7.88 8.6 13.8 8.6h1.21v18.56h36.65v80.42h-61.79v30.94h38.16z" fill="#80c4a4" transform="translate(-4.48 -46.85)"/><g fill="#d0f6fc"><path d="m133.55 166.47h51.8v10.21h-51.8z"/><path d="m189.28 256.19h11.21v10.21h-11.21z"/><path d="m235.32 250.93h11.21v10.21h-11.21z"/><path d="m197.46 284.65h11.21v10.21h-11.21z"/><path d="m213.82 362.93h11.21v10.21h-11.21z"/><path d="m236.54 362.93h11.21v10.21h-11.21z"/><path d="m184.44 391.08h62.7v10.21h-62.7z"/><path d="m87.81 229.27h11.21v10.21h-11.21z"/><path d="m135.67 217.52h11.21v10.21h-11.21z"/><path d="m87.81 245.98h11.21v10.21h-11.21z"/><path d="m159.6 217.52h11.21v10.21h-11.21z"/><path d="m211.7 224.32h11.21v10.21h-11.21z"/><path d="m135.67 184.1h11.21v10.21h-11.21z"/><path d="m156.87 184.1h11.21v10.21h-11.21z"/><path d="m211.7 167.71h11.21v10.21h-11.21z"/><path d="m165.35 139.24h11.21v10.21h-11.21z"/><path d="m90.23 166.47h28.78v10.21h-28.78z"/><path d="m90.23 187.51h28.78v10.21h-28.78z"/><path d="m87.81 212.57h28.78v10.21h-28.78z"/><path d="m105.98 106.14h11.21v43.31h-11.21z"/><path d="m87.81 106.14h11.21v43.31h-11.21z"/><path d="m202.91 139.24h11.21v10.21h-11.21z"/><path d="m133.85 111.09h116.92v10.21h-116.92z"/><path d="m148.99 139.24h11.21v10.21h-11.21z"/><path d="m132.64 139.24h11.21v10.21h-11.21z"/><path d="m174.74 325.8h24.23v10.21h-24.23z"/><path d="m148.99 250.93h11.21v35.58h-11.21z"/><path d="m107.5 344.05h11.21v35.58h-11.21z"/><path d="m132.64 359.52h11.21v35.58h-11.21z"/><path d="m156.87 375.92h11.21v35.58h-11.21z"/><path d="m176.98 395.69h11.45v42.71h-11.45z" transform="matrix(0 1 -1 0 595.28 187.49)"/><path d="m108.71 385.82h11.21v15.47h-11.21z"/><path d="m148.99 299.19h11.21v10.21h-11.21z"/><path d="m181.41 302.91h32.11v10.21h-32.11z"/><path d="m213.51 249.69h11.21v63.42h-11.21z"/><path d="m203.22 325.8h32.11v10.21h-32.11z"/><path d="m235.32 272.59h11.21v63.42h-11.21z"/><path d="m105.07 279.39h11.21v10.21h-11.21z"/><path d="m87.81 279.39h11.21v10.21h-11.21z"/><path d="m87.81 315.59h11.21v10.21h-11.21z"/><path d="m148.99 318.68h11.21v10.21h-11.21z"/></g><path d="m122.38 192.93 7.27 14.73 7.63-14.54c2.25-5.33-1.37-11.42-7.06-11.66h-.22a1 1 0 0 0 -.25 0c-5.75.09-9.49 6.08-7.37 11.47zm7.53-6.86a3.85 3.85 0 1 1 -3.81 3.8 3.83 3.83 0 0 1 3.81-3.8z" fill="#ed2b47" transform="translate(-4.48 -46.85)"/><path d="m173.27 417.85 7.27 14.74 7.63-14.59c2.25-5.33-1.37-11.41-7.06-11.66h-.5c-5.69.13-9.47 6.12-7.34 11.51zm7.53-6.85a3.85 3.85 0 1 1 -3.81 3.8 3.8 3.8 0 0 1 3.81-3.8z" fill="#ed2b47" transform="translate(-4.48 -46.85)"/><path d="m248.25 125.66h-151.35a7 7 0 0 0 -6.9 7.05v16.91h165.15v-16.91a7 7 0 0 0 -6.9-7.05z" fill="#4cb7d8" transform="translate(-4.48 -46.85)"/><g fill="#fff" opacity=".7"><g transform="translate(-4.48 -46.85)"><path d="m103.5 137.77a2.31 2.31 0 0 1 -1.37 2.12 2.18 2.18 0 0 1 -1 .21 2.23 2.23 0 0 1 -1-.21 2.33 2.33 0 1 1 3.28-2.12z"/><path d="m110.71 137.77a2.31 2.31 0 0 1 -1.37 2.12 2.21 2.21 0 0 1 -1 .21 2.17 2.17 0 0 1 -.95-.21 2.3 2.3 0 0 1 -1.38-2.12 2.33 2.33 0 1 1 4.66 0z"/><path d="m117.92 137.77a2.32 2.32 0 0 1 -1.38 2.12 2.17 2.17 0 0 1 -1 .21 2.21 2.21 0 0 1 -1-.21 2.33 2.33 0 1 1 3.29-2.12z"/><path d="m228.19 133.58v1.66h-.94v2.86h.94v2h18.31v-6.52zm.63.53h17.05v5.46h-17.05z"/></g><path d="m238.55 88.11h1.81v3.73h-1.81z"/><path d="m235.52 88.11h1.81v3.73h-1.81z"/><path d="m232.4 88.11h1.81v3.73h-1.81z"/></g><path d="m520.7 180.26c-119 40.47-131.57 43.62-140.93 42.65l-17.41-4.29-2.2 1.55-.1-.23-1.2 1.69-6.67 7.48.64 1c-7.24 10.2-49.27 10.77-52.11 14.61-4.46 6-55.77 18.51-55 26s68 64.22 68 64.22 32.32-2.86 38.86-7.24c3.67-2.45 53.06-21.56 53.06-21.56 3.42-1.62 4.37-2.47 12.83-7.83 3-1.88 17.17-7 20.57-7.92 23.25-6.37 53-12.82 81.66-18.9z" fill="#fe9f73" transform="translate(-4.48 -46.85)"/><path d="m364 277.38a.66.66 0 0 0 .09-.29.57.57 0 0 0 -.56-.57c-.06 0-6.43-.11-16.31-3.62-9.12-3.23-23.17-10.09-38.34-24.41a.55.55 0 0 0 -.78 0 .55.55 0 0 0 0 .79c15.33 14.48 29.55 21.41 38.79 24.68 10 3.54 16.35 3.65 16.61 3.66a.56.56 0 0 0 .5-.24z" transform="translate(-4.48 -46.85)"/><path d="m406 306.54a.47.47 0 0 0 0-.33.45.45 0 0 0 -.6-.26l-51.63 20.61a.47.47 0 1 0 .35.87l51.62-20.62a.48.48 0 0 0 .26-.27z" transform="translate(-4.48 -46.85)"/><path d="m238.73 239.55-6.16 9.68-.4.64-6.17 9.68 105.1 77.64a6.34 6.34 0 0 0 9.12-1.69l15.67-24.64a6.33 6.33 0 0 0 -2.32-9z" fill="#ef3a4c" transform="translate(-4.48 -46.85)"/><path d="m242.21 239.23-13.82 21.71c-.86 1.35-4.6 2.95-5.95 2.09l-10.92-6.47 18.26-28.69 11.54 7.35a2.91 2.91 0 0 1 .89 4.01z" fill="#3f9896" transform="translate(-4.48 -46.85)"/><path d="m238.8 245.63-9.93 15.61a5.94 5.94 0 0 1 -8.18 1.82l-9.47-6 .61-1 9.46 6a4.8 4.8 0 0 0 6.62-1.47l9.94-15.59z" fill="#21111d" transform="translate(-4.48 -46.85)"/><ellipse cx="167.39" cy="208.62" fill="#88dfed" opacity=".5" rx="62.11" ry="62.16" transform="matrix(.97614467 -.21712114 .21712114 .97614467 -45.78 -5.54)"/><ellipse cx="150.69" cy="167.18" fill="#f3fffe" opacity=".57" rx="23.34" ry="11.15" transform="matrix(.92514348 -.37961763 .37961763 .92514348 -56.66 22.86)"/><path d="m279.89 234.74h1.13v129.68h-1.13z" fill="#21111d" transform="matrix(.59566426 -.80323352 .80323352 .59566426 -131.72 299.53)"/><path d="m134 261a62.13 62.13 0 1 1 85.81-19 62.13 62.13 0 0 1 -85.81 19zm94.12-13.76a72 72 0 1 0 -99.43 22.1 72 72 0 0 0 99.46-22.06z" fill="#3f9896" transform="translate(-4.48 -46.85)"/><path d="m228.62 247.59a72.58 72.58 0 1 1 -78.62-109.44l.27 1.09a71.46 71.46 0 1 0 87.28 56l1.11-.22a72.26 72.26 0 0 1 -10.04 52.57z" fill="#21111d" transform="translate(-4.48 -46.85)"/><path d="m291.26 242.63 31.91 9.3 49.95-30.75s-43.12-14.81-51.49-13.27-24.61 5.85-33.33 5.9-16.55 8-25.6 13.39-20-.32-20.25 7.75 13.11 19 26 15 22.81-7.32 22.81-7.32z" fill="#fe9f73" transform="translate(-4.48 -46.85)"/><path d="m375.53 222.07a.48.48 0 0 0 -.29-.6c-.19-.06-18.57-6.22-35.34-11-14.79-4.18-18.74-3.23-25.29-1.65-1 .24-2.05.49-3.21.74-4.44 1-9.5 1.62-14.4 2.26-4.56.59-8.86 1.14-12.05 1.88-6.56 1.51-20 11.77-20.61 12.21a.45.45 0 0 0 -.09.65.47.47 0 0 0 .65.09c.14-.11 13.9-10.58 20.25-12 3.15-.73 7.43-1.29 12-1.87 4.92-.64 10-1.3 14.48-2.27 1.17-.25 2.22-.5 3.23-.75 6.4-1.54 10.26-2.47 24.81 1.65 16.75 4.73 35.12 10.89 35.3 10.95a.47.47 0 0 0 .56-.29z" transform="translate(-4.48 -46.85)"/><path d="m291.65 242.77a.44.44 0 0 0 0-.3.47.47 0 0 0 -.59-.3l-9.39 3.14c-17.6 7.44-25.91 3.78-26 3.74-7-3-10.1-6.89-11.52-9.6a11.15 11.15 0 0 1 -1.43-5.18.48.48 0 0 0 -.44-.49.47.47 0 0 0 -.49.44 11.73 11.73 0 0 0 1.5 5.6c1.48 2.86 4.77 6.92 12 10.08.34.16 8.69 3.89 26.71-3.73l9.34-3.12a.43.43 0 0 0 .31-.28z" transform="translate(-4.48 -46.85)"/><path d="m245.23 236.76a31.93 31.93 0 0 1 -.8-5.66c3.2-1.85 9.77-.32 16-2.78a14.31 14.31 0 0 1 -.57 6.06c-1 2.79-2.43 3.34-2.43 3.34l-8.61 1.28a3.14 3.14 0 0 1 -3.59-2.24z" fill="#f07162" transform="translate(-4.48 -46.85)"/><path d="m372.69 236.52a.41.41 0 0 0 -.07-.41c-3.31-4.07-11.29-6.54-11.63-6.64a.43.43 0 0 0 -.53.28.43.43 0 0 0 .28.54c.08 0 8.07 2.49 11.22 6.36a.43.43 0 0 0 .6.06.5.5 0 0 0 .13-.19z" transform="translate(-4.48 -46.85)"/><path d="m373.37 242.36a.45.45 0 0 0 0-.34c-2.35-4.68-9.61-8.81-9.92-9a.43.43 0 0 0 -.58.17.42.42 0 0 0 .16.58c.07 0 7.34 4.17 9.58 8.63a.43.43 0 0 0 .57.19.45.45 0 0 0 .19-.23z" transform="translate(-4.48 -46.85)"/><path d="m284.31 228.09a.46.46 0 0 0 0-.26 33.45 33.45 0 0 1 -.44-9.9.46.46 0 0 0 -.92-.11 33.92 33.92 0 0 0 .45 10.22.46.46 0 0 0 .56.34.44.44 0 0 0 .35-.29z" transform="translate(-4.48 -46.85)"/><path d="m288.23 226.57a.46.46 0 0 0 0-.26 33.28 33.28 0 0 1 -.43-9.9.48.48 0 0 0 -.41-.51.46.46 0 0 0 -.52.4 34.07 34.07 0 0 0 .46 10.22.46.46 0 0 0 .88 0z" transform="translate(-4.48 -46.85)"/><path d="m252.82 316.43c5.2 5.71 12.68 7.07 16.3 3.74l37.58-33.69a11.94 11.94 0 0 0 .93-16.36c-4.52-5.63-12.43-6.59-17.27-2.25l-36.75 32.95a11 11 0 0 0 -1.07 15.3c.09.1.18.21.28.31z" fill="#fe9f73" transform="translate(-4.48 -46.85)"/><path d="m273.39 329.67c5.1 5.8 12.64 7.16 13.86 6.12l40.68-35a11.89 11.89 0 0 0 1.25-16.31c-4.43-5.71-12.33-6.82-17.26-2.58l-38.92 34.69a8.44 8.44 0 0 0 -2.31 3.85 10.47 10.47 0 0 0 2.7 9.23z" fill="#fe9f73" transform="translate(-4.48 -46.85)"/><path d="m297.44 337.81c4 4.65 9.38 6.09 13.83 2.56l29.73-24.9a9.4 9.4 0 0 0 1.14-12.91c-3.46-4.57-9.72-5.52-13.68-2.21l-32.24 27.72a3.32 3.32 0 0 0 -1.09 1.84 9.1 9.1 0 0 0 2.31 7.9z" fill="#fe9f73" transform="translate(-4.48 -46.85)"/><path d="m240.69 297.38c4.29 4.72 8.95 6.43 11.51 4.84l33-29.57a9.84 9.84 0 0 0 .77-13.5c-3.73-4.65-10.27-5.44-14.26-1.86l-30.51 27.35a8.82 8.82 0 0 0 -1.14 12q.27.36.63.74z" fill="#fe9f73" transform="translate(-4.48 -46.85)"/><path d="m329.65 284.81a.56.56 0 0 0 0-.64 13.74 13.74 0 0 0 -9.37-5.3 11.39 11.39 0 0 0 -8.69 2.64l-30.8 27.57a.56.56 0 0 0 0 .79.56.56 0 0 0 .78 0l30.79-27.56a10.31 10.31 0 0 1 7.85-2.37 12.58 12.58 0 0 1 8.6 4.87.56.56 0 0 0 .78.1.86.86 0 0 0 .06-.1z" transform="translate(-4.48 -46.85)"/><path d="m293.55 331.08a.56.56 0 0 0 -.83-.73l-4.72 4c-2.64 2.2-9.28.49-14.19-5.1a.56.56 0 0 0 -.84.74c5.49 6.24 12.7 7.75 15.75 5.21l4.72-4.05z" transform="translate(-4.48 -46.85)"/><path d="m342.62 302.86a.56.56 0 0 0 0-.64 11 11 0 0 0 -7.47-4.33 9.22 9.22 0 0 0 -7 2l-32.25 27.72a.57.57 0 0 0 -.06.79.55.55 0 0 0 .78.06l32.25-27.72a8.09 8.09 0 0 1 6.13-1.74 9.87 9.87 0 0 1 6.7 3.89.55.55 0 0 0 .78.11.57.57 0 0 0 .14-.14z" transform="translate(-4.48 -46.85)"/><path d="m287.21 271.12a10.56 10.56 0 0 0 -.83-12.32.56.56 0 1 0 -.87.69 9.29 9.29 0 0 1 -.71 12.75l-19.64 17.61a.56.56 0 0 0 .75.83l19.64-17.61a9.59 9.59 0 0 0 1.66-1.95z" transform="translate(-4.48 -46.85)"/><path d="m252.67 302.52a.59.59 0 0 0 0-.6.57.57 0 0 0 -.77-.18c-2.44 1.52-6.89-.43-10.81-4.74a.56.56 0 0 0 -.79 0 .55.55 0 0 0 0 .78c4.36 4.79 9.28 6.77 12.23 4.94a.55.55 0 0 0 .14-.2z" transform="translate(-4.48 -46.85)"/><path d="m310.74 276.34a.57.57 0 0 0 .09-.36c-.58-5.39-5.81-9.92-10.33-11a12.43 12.43 0 0 0 -10.5 2.48c-1.89 1.7-9.63 8.77-9.71 8.84a.56.56 0 0 0 0 .79.54.54 0 0 0 .78 0c.08-.07 7.82-7.14 9.71-8.83a11.35 11.35 0 0 1 9.51-2.26c3.48.85 8.9 4.65 9.48 10.06a.56.56 0 0 0 .61.5.57.57 0 0 0 .36-.22z" transform="translate(-4.48 -46.85)"/><path d="m269.59 320.48a.57.57 0 0 0 0-.67.57.57 0 0 0 -.79-.06c-3.89 3.31-10.26.78-13.59-1.72a.55.55 0 0 0 -.78.11.57.57 0 0 0 .11.78c3.62 2.72 10.59 5.41 15 1.68z" transform="translate(-4.48 -46.85)"/><path d="m278.28 274.62 6.8-6.48c1.36-1.27 1-5.74-1.41-8.29s-6.83-3.21-8.19-1.93l-6.8 6.47c-1 .93 0 4.2 2.33 6.71s6.22 4.5 7.27 3.52z" fill="#f07162" transform="translate(-4.48 -46.85)"/><path d="m300.58 285.37 6.43-5.3c1.36-1.28.63-6.11-2.12-9.05s-7.54-4-8.9-2.69l-5.99 5.67c-1.62 1.24-.5 5.32 2.15 8.21s6.49 4.29 8.43 3.16z" fill="#f07162" transform="translate(-4.48 -46.85)"/><path d="m322.3 300.88 6.79-6.48c1.36-1.28.64-6.12-2.12-9s-7.54-4-8.9-2.69l-6.79 6.48c-1 .94.33 4.53 3 7.42s6.97 5.26 8.02 4.27z" fill="#f07162" transform="translate(-4.48 -46.85)"/><path d="m336.21 316.63 5.93-5.43c1.19-1.07.65-5.23-1.66-7.79s-6.39-3.53-7.57-2.46l-5.91 5.43c-.87.79.2 3.89 2.43 6.4s5.86 4.68 6.78 3.85z" fill="#f07162" transform="translate(-4.48 -46.85)"/></svg>