<svg viewBox="0 0 2000 2000" xmlns="http://www.w3.org/2000/svg"><path d="m0 0h2000v2000h-2000z" fill="#fff"/><path d="m1225.47 739.91c-6.36 8.54-14.9 14.75-21.3 23.14-8.25 10.78-16 19.17-26.92 27.46-2.43 1.44-5 2.78-7.5 4a10.87 10.87 0 0 0 0 1.3 94.1 94.1 0 0 0 .9 10.42 100.62 100.62 0 0 0 7 26c.1.15.1.2.1.2 4.72 8.64-15.64 24.38-31.43 29.35-45 14.1-48.92-4-42.51-23.09l6.8-36.9c-23-8.29-33.86-31.43-35.8-59.49a138.11 138.11 0 0 1 .3-23.19 81.48 81.48 0 0 1 4.81-21.85c5.66-14.2 10.58-26.31 15.4-36.35 2.73 3.68 6.65 7.11 9.58 9.79 11.72 10.57 33.77 8.74 49.26 11.82 35.41 7 43.8 44.14 43.8 44.14 13.36-19.03 40.72-4.58 27.51 13.25z" fill="#f5ae9e"/><path d="m1726.62 675.46c-10 29.39-25.53 34.95-30.24 36-1.89 40.27-28.31 58-70.27 68-23.69 5.61-56.16-.2-70.12-9.39-14.4-9.43-21-21.15-23.09-36.79-3.13-23.44 6.71-39.53 8.69-48.67 0 0 16.09 27.76 30.19 19.37 9.93-5.86 22.2-2 30.69.69 40.42 12.57 65 2.24 72.3-22.84 0 0 3.23-.94 7-2.28l-1.54-3.73c2.93-.84 7.25-3.52 12.31-11.42 1.49-2.28 3.58-4.47 5.07-6.85a12.34 12.34 0 0 0 .34-12.86c-2.18-3.93-6.1-6.56-10.77-3.88-3.88 2.24-6.61 5.22-7.7 9.54-.69 2.73-.59 4.47-3.87 5a8.84 8.84 0 0 1 -4-.39l-2.19-5.32c-8.19-3.87-14.35-14.25-16.19-19.81-1.44-4.32-.44-12.61.5-18.22l-1.29-3.08c.15-.1.1-.15 0-.15v.15c-.7 1.14-15.64 9.68-18.23 11-7.89 4.17-20 4.82-28.65 2.83a30 30 0 0 1 -20.56-16.77c-7.15 8.54-8.14 17.23-39.38 26.51a210.67 210.67 0 0 0 -1.93 21.41 115.26 115.26 0 0 0 .94 19.86 9.67 9.67 0 0 1 -1.69-.5c-4.76-1.93-8.44-5.86-11.47-10-4.52-6.21-8-13.26-9-20.8a31 31 0 0 1 2.83-18.33 30 30 0 0 1 -7.39-11.47c-3.18-9 5.21-18.82 14-19.61-8.79-10.53-8.24-28.06.1-38.79s22.89-14.35 35.4-10.48c3.48 1.1 7.3 2.69 10.48.9 1.64-.94 2.78-2.68 4-4.22 11.62-14.9 35.51-15.49 48-1.14 1.2 1.34 2.29 2.83 3.83 3.52 1.88.9 4 .5 6 .35 11.42-.84 26.51-1.94 32.12 13.21 1.25 3.38 1.39 7.2 3.13 10.33 0 0 18.87-2.19 27.61 6 16.79 15.74 17.93 21.89 17.18 36.15-.05.03 21.01 25.15 6.86 66.97z" fill="#c6236d"/><path d="m1277.81 783.81-60.93 53.93-14.24 6.61-21.91-9-3-2.83s-9.54-29.79-8-36.69c15-10.08 24.39-19.72 34.37-32.78 6.4-8.39 14.94-14.6 21.3-23.14 13.21-17.83-14.15-32.28-27.51-13.16 0 0-8.39-37.14-43.8-44.14-15.49-3.08-37.54-1.25-49.26-11.82-4.52-4.07-11.27-9.93-12.66-15.84-4.47-19.47 20.85-33.82 37.54-35.11 3.13-.25 9-17.88 43.45-19.82 27.86-1.53 56.41 8.4 77.22 34.91 15 19.17 14.65 42.56 15.74 64.26 1.14 22.25-6.7 43.5-2.43 65.55 1.51 7.26 8.76 13.16 14.12 19.07z" fill="#dc74aa"/><path d="m407.24 968.26 85.31-44.85a18.84 18.84 0 0 1 27.33 19.86l-16.29 95a18.84 18.84 0 0 0 5.42 16.68l69 67.27a18.85 18.85 0 0 1 -10.44 32.14l-95.39 13.86a18.84 18.84 0 0 0 -14.18 10.3l-42.65 86.43a18.84 18.84 0 0 1 -33.79 0l-42.66-86.43a18.81 18.81 0 0 0 -14.18-10.3l-95.38-13.86a18.85 18.85 0 0 1 -10.44-32.14l69-67.27a18.87 18.87 0 0 0 5.42-16.68l-16.3-95a18.84 18.84 0 0 1 27.34-19.86l85.31 44.85a18.81 18.81 0 0 0 17.57 0z" fill="#f7af4d"/><path d="m768.82 1771.8c-18.92 0-42.76 7.94-53.53 11.92-3.88 1.39-7.95 4.57-12.07 4.57h-42.41c-9.14.09-15.79.69-21 0-4.47-.6-8.94-7.9-9.54-12.37-.69-5.31-1.49-11.62-1.49-11.62-.2-15.84 21.21-21.4 33.47-23.19 17.73-2.63 25.13-5.41 41.62-13 2.83-1.29 14-10.18 22.54-15.79l17 .3c2.54 2.68 3.83 6.85 3.23 12.46-.6 5.41 2 7 9.39 9.14 0 0 36.64 5.21 49.75-8.1a1.62 1.62 0 0 1 1.39 1.34s8.59 9.19 7.85 41.22c-.2 8.29 0 19.66 0 19.66h-46.35z" fill="#313b84"/><path d="m1022.57 1764.9s-.85 6-1.54 11.12c-.6 4.32-3.48 11.67-7.95 12.27-5.21.64-10.33.19-19.46.09h-45.54c-4.12 0-8.19-3.57-12.06-4.91-10.78-3.78-35.11-11.42-54-11.42l.94 16.24h-47.1s.24-11.23 0-19.17c-.75-30.64 9.13-40.82 9.63-41.52v.75c13.16 12.76 49.76 7.75 49.76 7.75 7.35-2 9.93-3.53 9.38-8.74-.89-8.84 3.38-13.61 9.49-14.85l6.25-.1c8.49 4.62 23.69 16.39 27 17.88 16.48 7.25 28.85 9.88 46.58 12.36 12.33 1.74 28.77 7.1 28.62 22.25z" fill="#313b84"/><path d="m904.68 1727.36c.55 5.21-2 6.7-9.38 8.74 0 0-36.6 5-49.76-7.75l.1-14.75 68.58-1.09c-6.16 1.19-10.43 6.01-9.54 14.85z" fill="#f5ae9e"/><path d="m950.42 1712-108.36 1.69-7.3-245.36-.69-23.29-6.51-219.14a.55.55 0 0 0 -1.09 0l-18 487.79-108.38-1.69 8-567.44c12.81 5.81 45.28 20.06 56.76 20.36 26.36.7 80.79-6.3 107.06-3.82a105.39 105.39 0 0 0 62.81-14.25z" fill="#e73680"/><path d="m1069.1 543.32c1.69 6.6-25 14.3-36 32.82-5 8.29-14.8 10.53-22.7 10.87l-5.46-2.83-33.17-17 24.73-76c5.66-13.36 21.75-19.37 35.26-13.11l6.4 3c13.51 6.21 18.72 22.1 11.42 34.77l-12.06 19.36a.93.93 0 0 0 1 1.39c8.13-2.51 27.65-4.59 30.58 6.73z" fill="#f5ae9e"/><path d="m1373.9 788.72a34.29 34.29 0 0 1 -6.86 9.09l-11.32 10.78-117.14 111.48-1.58 11.62-34.22 146.31.64.8a397.28 397.28 0 0 1 89.09 168.2l14.1 56.31s-34.21 24-46.43 30.59c-57.65 30.93-154 22.24-187.66 17.43-54.57-7.7-51.49-31.63-87.29-42-12.47-3.63-61.18-8.94-68.93-31.14v-1.19s35.16-48.07 62.12-113c16.24-39.13 46.68-80 62.77-92.56 3-2.39 4.17-6 5.21-9.79 3.63-13.11 6.86-90.87 5.27-93-17.43-22.39-20.16-48.11-10.88-70.41l-91.79-133.55c-4.57-4.47-6.46-11.17-7-18.13a89 89 0 0 1 .55-17.67c.35-3.28.79-6.11 1-8l27-154.28 50.85 26.07-5.51 57.55-1.59 16.54-5.17 54 7 9.24v-.01l4.32 5.71 70.91 93.7 13.86.9-1.39 8.44c-6.41 19.07-2.53 37.19 42.51 23.09 14.25-4.47 32.27-17.78 32.12-26.67l26 9.15 100.95-85-24.28-93.66-11.72-45.29 53.14-20.37 51.74 156.13a34.25 34.25 0 0 1 3 8.89 35 35 0 0 1 -3.39 23.7z" fill="#313b84"/><path d="m1307.55 926.62s-54.12 3.58-70.41 4.18l1.44-10.73 36.25-34.51 15.25-14.5c5.8 8.79 13.7 16.83 17.47 26.07a39.28 39.28 0 0 1 0 29.49z" fill="#dc74aa"/><path d="m221.28 1194.77c-9 7.24-13.93 60.59-14 60.85-3.86 17.27 15.89 35.88 31.78 37.67 10.85.73 22.47-43.53 23.23-53 0 0 6 7.47 9.11 10 2.21 1.84 10.36 3.76 11.94 2.65 4.81-3.41 4.8-5.37 1.52-8.34-6-5.45-10.06-21.18-10.78-24.52-1-4.76-8.27-18.53-12.14-22z" fill="#f5ae9e"/><path d="m805.76 1726.16c-13.11 13.31-49.75 8.1-49.75 8.1-7.35-2.14-10-3.73-9.39-9.14.6-5.61-.69-9.78-3.23-12.46l62.27.94z" fill="#f5ae9e"/><path d="m871 1760.73h-25.86a2.48 2.48 0 1 1 0-5h25.86a2.48 2.48 0 0 1 0 5z" fill="#2b2150"/><path d="m944.76 1773.25a2.44 2.44 0 0 1 -1.34-.4c-9.2-5.91-34.26-12.43-55.56-12.11a2.48 2.48 0 0 1 0-5c22.53-.32 48.3 6.47 58.29 12.9a2.48 2.48 0 0 1 -1.34 4.57z" fill="#2b2150"/><path d="m1049 1041.78c-.8 9.19-1.69 16.59-2.59 19.86-1 3.78-2.18 7.4-5.21 9.79-7.1 5.51-16.93 16.53-27.11 30.44l-35.31-14.95a18.22 18.22 0 0 1 -8.69-7.8l-38.73-68.62-1.36 67.18 11.77 64.46s-28.56 22.79-69.82 18.92c-26.27-2.48-80.7 4.52-107.06 3.82-14.41-.35-62.08-22.84-62.08-22.84s14-55.22 15.6-72.6c4.51-46.48-2.54-175.14 0-170-.15-.3-54.83-98.87-84.47-141.52-3.53-5-8-9.29-8.3-15.45l33.72-211.84h57.26l-13.85 195.08 68.58 101.4 13.51-3v7.7c0 20.61 37.79 37.34 37.79 37.34s37.09-16.73 37.09-37.34v-8.94l17.4 7.94 67.61 29.05 77.82 169.78z" fill="#2bb19e"/><path d="m228.84 1158c-.65-.1-1.29-.2-1.89-.35-1.54 11.87-3 23.14-4.37 33l38.19 3.88 3.13.3 1.39.14 5.36-30.88zm373.08-165.33-7.2-13.31-77.37-144.8a13.44 13.44 0 0 0 -9-6.51l-25.12-5.16c.1.25.19.5.29.74 3.53 9.24 2.64 19.47-2.43 28.76a45.1 45.1 0 0 1 -23.83 20.26c-16.29 6.15-36.58 2-47.25-8.41l-2.21 2.6c-6.81 5.81-16 8.93-25.73 8.93a47.85 47.85 0 0 1 -16.78-3.12 45.09 45.09 0 0 1 -23.84-20.26c-5.11-9.29-6-19.52-2.48-28.71.15-.39-26 4-26 4a27.89 27.89 0 0 0 -16.09 18.22l-54.28 195.35c-.14 1.15-3.72 27.86-8.19 60.64l53.13-52.39a14.78 14.78 0 0 0 2.09-10.58l-16.29-95a22.06 22.06 0 0 1 4.92-18.27 22.67 22.67 0 0 1 27.81-5.51l85.35 44.86a15.39 15.39 0 0 0 14.1 0l85.31-44.84a38 38 0 0 1 9.59-3.25c6.07-1.28 14.52 4.3 18.22 8.71a22.22 22.22 0 0 1 4.92 18.32l-4.07 23.84 25.51 38.22 6.41-2.93a3.74 3.74 0 0 1 3.12 6.8l-114.25 52.13 12.81 49.86 131-61.48a40.59 40.59 0 0 0 22.15-26.52c2.76-10.48.84-21.66-4.32-31.19z" fill="#789ed3"/><path d="m550.27 1788.43c-.69 2.49-1.49 5.17-3.32 6.81s-4.12 2-6.41 2.28a165.42 165.42 0 0 1 -49.26-1.59c-5.11-.94-10.33-2.23-14.65-5.46-9.19-7-11.72-20.71-18.22-30.79a47.59 47.59 0 0 0 -14.65-14s-1.74 36.8-1.74 36.9c-.4 8.54-13.61 8.58-13.95 0l-2.14-45.59s-1-4.82-1.29-6.65c-2.53-15.25-3.18-31.64 2.73-45.69a38 38 0 0 1 15.35-18l.14 2.69c.6 11.52 8.4 27 17.38 34.21 21.11 16.88 38 9.63 38.34-7.6l.1-5.06c.1.3.15.64.25.94 4.81 19.37 7.05 43 22.79 52.49 9.39 5.61 22.3 5 28.5 14.75 5.27 8.26 2.78 19.63.05 29.36z" fill="#f7af4d"/><path d="m503.79 1424.59-5.21 271.33c-.35 17.23-17.23 24.48-38.34 7.6-9-7.2-16.78-22.69-17.38-34.21l-3.67-70.62a830.49 830.49 0 0 1 -10.28-136.06l.2-38z" fill="#f5ae9e"/><path d="m395.14 1737.09s-2.13 45.54-2.13 45.63c-.4 8.55-13.54 8.56-14 0l-1.73-36.89a46.61 46.61 0 0 0 -14.6 14c-6.51 10.08-9 23.84-18.23 30.79-4.32 3.28-9.53 4.52-14.7 5.46a163.44 163.44 0 0 1 -49.21 1.64c-2.28-.3-4.67-.69-6.45-2.28s-2.58-4.32-3.28-6.86c-2.73-9.68-5.21-21.1.05-29.34 6.16-9.74 19.07-9.14 28.45-14.8 15.79-9.49 18-33.12 22.85-52.49.1-.3.14-.65.24-.94l.1 5.06c.3 17.23 17.19 24.53 38.29 7.65 9-7.2 16.78-22.7 17.43-34.26l.15-2.64a38.08 38.08 0 0 1 15.34 18c5.91 14 5.27 30.39 2.73 45.63-.3 1.82-1.3 6.64-1.3 6.64z" fill="#f7af4d"/><path d="m391.91 1424.59.25 38.19a836 836 0 0 1 -10.28 136.11l-3.67 70.57c-.65 11.56-8.39 27.06-17.43 34.26-21.1 16.88-38 9.58-38.29-7.65l-5.26-271.48z" fill="#f5ae9e"/><path d="m519.44 1185.29v.1c0 2.43 0 4.82-.1 7.3l-.05 1.79-1.29 38.73-.7 20.21-1.24 36.6-.75 22-1.14 35.06-.79 23.29-1.14 34-.55 16.44h-202.5l-.6-17.43-.25-7.6s0 0 0 0l-6.7-202.26a180.38 180.38 0 0 1 .84-24.82l7.45 1.09 14.1 2 .2.05a15.25 15.25 0 0 1 11.37 8.3l20 40.42 7.34 14.9 15.35 31.08a22.39 22.39 0 0 0 20.21 12.56 5.86 5.86 0 0 0 .94-.05 22.47 22.47 0 0 0 19.27-12.51l3.92-7.94 18.72-37.89 20-40.57a15.33 15.33 0 0 1 11.42-8.3l4-.59 8.34-1.19 33-4.82c.49 3.87.79 7.85 1 11.77a2.39 2.39 0 0 1 .05.59c.18 2.58.28 5.21.28 7.69z" fill="#262f64"/><path d="m351.83 819.44c.29 1.24.57 2.2 2.47 5.1 9.82 15 27.07 24.56 44.46 27.4a76 76 0 0 0 14.91.93c34.94-1.18 55.95-27.43 55.95-36.08l-1.52-.57 7.9 1.48a28.72 28.72 0 0 1 4.13 7.32c6.42 16.87-4.37 36.65-24.15 44.16-17.54 6.61-36.22 1.38-44.68-11.74-8.42 13.12-27.1 18.35-44.64 11.74-19.83-7.51-30.66-27.29-24.2-44.18a27.36 27.36 0 0 1 3.57-6.61z" fill="#c13e89"/><path d="m487.41 697.11a112 112 0 0 1 -3.43 26 94.54 94.54 0 0 1 -2.73 9.28h-.05c-8.39 24.43-24.78 43.85-45.83 50.31l3.52 24.53a5.12 5.12 0 0 0 4.27 4.37c7.75 1.14 24.93 3.82 24.93 4.61l.15 3.23a10.87 10.87 0 0 1 -.8 3.78s0 0 0 0c-6.21 11.17-25.38 28.65-53.74 29.59a41.15 41.15 0 0 1 -4.31 0h-.45c-33-1.09-49.81-21.1-54.63-28.4-.44-.75-.84-1.34-1.14-1.84-.05-.05-.05-.05-.05-.1a48.22 48.22 0 0 1 -1.24-6.36c4.62-.84 17.53-3.12 24.38-4.36a6.07 6.07 0 0 0 4.92-5.27l3.33-31.08c-1.44-1.39-20-25.23-20.66-26.52-2.29-4.37-.65-9.78 1.59-14.2s5.06-8.69 5.26-13.66c.35-9.53-9.33-17.88-7.05-27.11a35.89 35.89 0 0 1 2.63-6.16c4.72-10.63.8-25.08-4.42-31.68l115.75-3a98.29 98.29 0 0 1 9.8 44.04z" fill="#f5ae9e"/><path d="m395.46 699.59a3.73 3.73 0 0 1 -3.73-3.72v-6a3.73 3.73 0 0 1 7.45 0v6a3.73 3.73 0 0 1 -3.72 3.72z" fill="#2b2150"/><path d="m452.13 699.1a3.73 3.73 0 0 1 -3.73-3.72v-5.07a3.73 3.73 0 0 1 7.45 0v5.07a3.73 3.73 0 0 1 -3.72 3.72z" fill="#2b2150"/><path d="m422.76 730c-3.55 0-7.32-.76-10.17-3.5a3.72 3.72 0 1 1 5.15-5.37c2.4 2.29 8.14 1.25 11.23.69-.06-.19.26-1 .23-1.16l-6.61-42.47a3.72 3.72 0 1 1 7.36-1.14l6.58 42.22a7.88 7.88 0 0 1 -6.23 9.87 41.44 41.44 0 0 1 -7.54.86z" fill="#2b2150"/><path d="m419.66 754.72c-7.14 0-14.34-1.62-19.15-4.64-.64-.4-1.23-.82-1.82-1.23l-.41-.3a3.88 3.88 0 0 1 -1-5.3 3.56 3.56 0 0 1 5-1l.34.25c.86.61 1.34 1 1.85 1.28 5.85 3.66 17.39 4.6 25.18 2.05a21.08 21.08 0 0 0 7.37-4.05 3.73 3.73 0 0 1 4.92 5.6 28.54 28.54 0 0 1 -10 5.53 40.23 40.23 0 0 1 -12.28 1.81z" fill="#2b2150"/><path d="m451.33 723.28a16.34 16.34 0 0 0 29.88 9.16l.05-.05c1.07-3 2-6.12 2.75-9.29a16.34 16.34 0 0 0 -32.68.18z" fill="#ee7e94"/><path d="m369.33 723.28a16.34 16.34 0 1 0 16.34-16.34 16.35 16.35 0 0 0 -16.34 16.34z" fill="#ee7e94"/><path d="m460.82 677.4a3.61 3.61 0 0 1 -1.25-.21 31.42 31.42 0 0 0 -11.7-1.74 3.6 3.6 0 0 1 -3.87-3.55 3.73 3.73 0 0 1 3.56-3.89 38 38 0 0 1 14.52 2.16 3.72 3.72 0 0 1 -1.24 7.23z" fill="#2b2150"/><path d="m387.44 676.41a3.73 3.73 0 0 1 -1.25-7.24 39 39 0 0 1 14.53-2.17 3.73 3.73 0 0 1 3.55 3.89 3.65 3.65 0 0 1 -3.89 3.55 31.29 31.29 0 0 0 -11.7 1.75 3.84 3.84 0 0 1 -1.24.22z" fill="#2b2150"/><path d="m511.14 790.51c-19.76.55-51.94-.35-74.68-.1l-1.09-7.69c21.05-6.46 37.44-25.88 45.83-50.31h.05a94.54 94.54 0 0 0 2.73-9.28 112 112 0 0 0 3.43-26 98.29 98.29 0 0 0 -9.84-44l-115.75 3c5.22 6.6 9.14 21 4.42 31.68a35.89 35.89 0 0 0 -2.63 6.16c-2.28 9.23 7.4 17.58 7.05 27.11-.2 5-3 9.29-5.26 13.66s-3.88 9.83-1.59 14.2c.69 1.29 19.22 25.13 20.66 26.52l-2.47 19.67h-99.63c-5.81-10.73-.4-38 4.87-49 1.83-3.83 4.86-7 6-11 3.77-13.9-14.65-29.74 4-47.12 25.82-24.09-28.31-40.22 42.11-99.12 40.67-34.06 105.12-18.67 117 .85 0 0 9.14.89 21.6 13.16 13 12.81 18.23 31.23 18.23 49.8l-3.73.1c7.85 6.46 13.76 16.14 12.47 24.88-.85 6-5.56 12.22-5.27 18.22.5 10.43 6.41 17 7.5 27.37.9 8.74-4.22 16.78-7.65 24.82-5.5 12.68 8.96 28.91 11.64 42.42z" fill="#f7af4d"/><path d="m955.08 423.54-92.76 26.32a18.76 18.76 0 0 0 -12.66 12.14l-30.94 91.27a18.82 18.82 0 0 1 -33.47 4.47l-53.68-80.05a18.7 18.7 0 0 0 -10.67-7.69c.94-4.87 1.74-8.89 2-11.27-3.07-4.67-7.49-3.08-7.49-3.08-1.84 1.79-7 7.9-11.48 13.56l-12-.15-52.93-.68-19.17-.25a18.84 18.84 0 0 1 -14.59-30.49l59.53-75.77a18.84 18.84 0 0 0 3.18-17.23l-28.65-92c-4.67-14.9 9.83-28.65 24.48-23.29l90.48 33.22a18.88 18.88 0 0 0 17.38-2.33l78.66-55.67a18.81 18.81 0 0 1 29.69 16l-3.62 96.34a18.72 18.72 0 0 0 7.54 15.79l77.32 57.6c12.48 9.36 8.85 29.02-6.15 33.24z" fill="#f7af4d"/><path d="m1407.91 1676.61-.1.1a6.91 6.91 0 0 1 -9.78 1l-30.09-24.24a53.19 53.19 0 0 0 1.29 21.66c3.57 12.26 12.71 23.88 12 36.2-.3 5.76-2.78 10.87-5.47 15.69a171.85 171.85 0 0 1 -31.43 41.11c-1.69 1.64-3.57 3.33-6.06 3.63s-5.11-.89-7.54-2.09c-9.39-4.51-20-10.38-23-20.41-3.52-11.81 5.52-21.89 7.3-33.42 3.08-19.36-22.54-70.06-23.63-74.78 27.85 48.81 39.52-18.08 37.29-30.29-.55.15-2.53-3.82-5.71-10.78 16.83-.89 37.49 11.08 45.58 27.26a43.14 43.14 0 0 0 4.44 5.75l34.32 33.47a7.61 7.61 0 0 1 .59 10.14z" fill="#2bb19e"/><path d="m1177.75 1721.4v48.76a7.25 7.25 0 0 1 -6.8 7.4h-.1a7.21 7.21 0 0 1 -7.45-6.7l-3.58-39.33a49 49 0 0 0 -14.35 15.69c-6.16 11-8.09 25.87-17.13 33.72-4.27 3.67-9.58 5.26-14.8 6.5a161.16 161.16 0 0 1 -50.4 4.07c-2.33-.2-4.82-.44-6.7-2.13s-2.89-4.47-3.73-7.15c-3.28-10.23-6.4-22.25-1.44-31.34 5.86-10.67 19.17-10.67 28.5-17.13 15.7-10.87 16.84-36.25 20.81-57.15 0-.35.15-.7.2-1l.35 5.46c1.19 18.38 18.87 25.33 39.67 6.31 8.89-8.14 16.09-25 16.14-37.39v-2.88c7 3.77 13 10.53 16.69 18.52 6.75 14.7 6.9 32.23 5.06 48.62-.2 1.93-.94 7.15-.94 7.15z" fill="#2bb19e"/><path d="m1291.47 1641.1s-78.76-95.69-129.11-159a894.14 894.14 0 0 1 -5.07 92.31l-.3 75.53c0 12.36-7.25 29.25-16.14 37.39-20.8 19-38.48 12.07-39.67-6.31l-19.92-307.38-1-21.3c27.86 3.43 80.65 7.25 128.12-1.49-2.78 24.78-5.07 40.77-5.07 40.77l12.12 7c42.8 38 109.84 213.13 113.32 212.19 2.25 12.19-9.43 79.1-37.28 30.29z" fill="#f5ae9e"/><path d="m1347.82 770.11a2.52 2.52 0 0 1 -1.68-.65c-7.6-7-25.88-6.59-28.47-5.78a2.52 2.52 0 0 1 -3.13-1.59 2.47 2.47 0 0 1 1.53-3.11c3.07-1.05 24-1.85 33.42 6.81a2.49 2.49 0 0 1 .16 3.51 2.46 2.46 0 0 1 -1.83.81z" fill="#2b2150"/><path d="m1064.94 420.58-52.51-83.87a19.34 19.34 0 0 1 18.21-29.52l98.52 9.33a19.3 19.3 0 0 0 16.65-6.83l63.55-75.86a19.34 19.34 0 0 1 33.7 8.2l21.56 96.58a19.33 19.33 0 0 0 11.65 13.73l91.78 37a19.34 19.34 0 0 1 2.62 34.59l-85.2 50.35a19.33 19.33 0 0 0 -9.45 15.32l-6.82 98.72a19.33 19.33 0 0 1 -32.08 13.17l-74.22-65.49a19.35 19.35 0 0 0 -17.49-4.26l-96 24a19.35 19.35 0 0 1 -22.41-26.4l39.33-90.81a19.34 19.34 0 0 0 -1.39-17.95z" fill="#f7af4d"/><path d="m1316.87 601.92-4.87-58.14a13.37 13.37 0 0 0 -12.77-12.85c-12.21-.53-30.76-1.34-42.47-1.88a17.84 17.84 0 0 0 -18.6 16.07l-2 19.71a8.32 8.32 0 0 0 7.65 9.11l24 1.81a2.11 2.11 0 0 1 2 2.27c-.66 8-2.48 36.27 4.37 40.55z" fill="#f5ae9e"/><path d="m477.23 1192.69c-7.35 10.68-16.09 17.43-19.47 15.1s-.2-12.87 7.15-23.54c3.93-5.66 8.2-10.28 11.87-13l8.34-1.19c1.94 3.51-1.29 13-7.89 22.63z" fill="#cc156b"/><path d="m464.71 1240.09c-7.35 10.68-10.56 21.23-7.16 23.58s12.12-4.42 19.47-15.1 10.56-21.24 7.16-23.58-12.12 4.42-19.47 15.1z" fill="#cc156b"/><path d="m464.52 1296c-7.36 10.68-10.56 21.24-7.16 23.58s12.12-4.42 19.47-15.1 10.56-21.23 7.16-23.58-12.12 4.37-19.47 15.1z" fill="#cc156b"/><path d="m464.32 1351.81c-7.35 10.68-10.55 21.24-7.15 23.58s12.12-4.42 19.47-15.1 10.56-21.23 7.15-23.57-12.11 4.41-19.47 15.09z" fill="#cc156b"/><path d="m476.43 1416.15a50.66 50.66 0 0 1 -3.57 4.72h-15.79a60.62 60.62 0 0 1 7.05-13.21c7.35-10.68 16.09-17.43 19.46-15.1s.2 12.91-7.15 23.59z" fill="#cc156b"/><path d="m440.38 1243.09c-6.31 9.19-13.75 15.5-17.78 15.55l18.72-37.89c2.64-1.64 4.82-2.14 6.21-1.2 3.38 2.34.2 12.87-7.15 23.54z" fill="#cc156b"/><path d="m427.86 1290.49c-7.35 10.68-10.55 21.24-7.15 23.58s12.12-4.42 19.47-15.1 10.55-21.23 7.15-23.57-12.11 4.41-19.47 15.09z" fill="#cc156b"/><ellipse cx="433.83" cy="1350.59" fill="#cc156b" rx="23.48" ry="7.48" transform="matrix(.56712521 -.82363159 .82363159 .56712521 -924.63 942.06)"/><path d="m439.79 1408.11a55.52 55.52 0 0 1 -11.67 12.76h-9c-.7-4.22 2.53-12.71 8.39-21.26 7.35-10.67 16.09-17.43 19.47-15.09s.15 12.91-7.19 23.59z" fill="#cc156b"/><path d="m519.44 1185.29v.1c0 2.43 0 4.82-.1 7.3l-.05 1.79c-1.09 2-2.39 4.12-3.83 6.21-7.35 10.67-16.09 17.43-19.46 15.09s-.2-12.86 7.15-23.59c5.51-8 11.77-13.8 16-15.19a2.39 2.39 0 0 1 .05.59c.14 2.59.24 5.22.24 7.7z" fill="#cc156b"/><path d="m518 1233.26-.7 20.21c-.64 1-1.29 2.09-2 3.13-7.35 10.68-16.09 17.43-19.47 15.1s-.2-12.91 7.15-23.59c5.08-7.45 10.85-13.01 15.02-14.85z" fill="#cc156b"/><path d="m516.06 1290.07-.75 22a1.25 1.25 0 0 1 -.24.39c-7.35 10.68-16.09 17.43-19.47 15.1s-.2-12.91 7.15-23.59c4.42-6.4 9.34-11.42 13.31-13.9z" fill="#cc156b"/><path d="m514.17 1347.13-.79 23.29c-7 9.43-14.8 15.19-18 13-3.37-2.34-.2-12.92 7.15-23.59a55 55 0 0 1 11.64-12.7z" fill="#cc156b"/><path d="m512.24 1404.43-.55 16.44h-12.56c.94-1.69 2-3.43 3.22-5.17a60.56 60.56 0 0 1 9.89-11.27z" fill="#cc156b"/><path d="m362.91 1235.5c-6 6.85-11.91 10.62-14.59 8.79-3.38-2.34-.2-12.92 7.15-23.59 0 0 0 0 .1-.1z" fill="#cc156b"/><path d="m355.28 1276.57c-7.35 10.68-10.55 21.23-7.15 23.57s12.12-4.41 19.47-15.09 10.55-21.24 7.15-23.58-12.11 4.42-19.47 15.1z" fill="#cc156b"/><path d="m355.09 1332.43c-7.35 10.68-10.55 21.23-7.15 23.58s12.12-4.42 19.47-15.1 10.55-21.24 7.15-23.58-12.12 4.42-19.47 15.1z" fill="#cc156b"/><path d="m354.9 1388.29c-7.35 10.68-10.56 21.24-7.15 23.58s12.11-4.42 19.46-15.1 10.56-21.23 7.16-23.57-12.12 4.41-19.47 15.09z" fill="#cc156b"/><path d="m324 1171.83c-5.86 6.71-11.62 10.33-14.3 8.55-1.94-1.35-1.74-5.37.2-10.58z" fill="#cc156b"/><path d="m316.7 1212.67c-7.35 10.68-10.55 21.23-7.15 23.58s12.11-4.42 19.47-15.1 10.55-21.24 7.15-23.58-12.12 4.43-19.47 15.1z" fill="#cc156b"/><path d="m316.51 1268.53c-7.35 10.68-10.56 21.24-7.16 23.58s12.12-4.42 19.47-15.1 10.56-21.23 7.16-23.58-12.12 4.42-19.47 15.1z" fill="#cc156b"/><ellipse cx="322.47" cy="1328.63" fill="#cc156b" rx="23.48" ry="7.48" transform="matrix(.56712521 -.82363159 .82363159 .56712521 -954.75 840.83)"/><path d="m328.45 1388.74c-7.35 10.68-16.09 17.43-19.46 15.09a.93.93 0 0 1 -.4-.39l-.25-7.6s0 0 0 0a54.35 54.35 0 0 1 7.8-15.54c7.35-10.68 16-17.43 19.46-15.1s.2 12.86-7.15 23.54z" fill="#cc156b"/><path d="m404.43 1296.47c-7.35 10.68-16 17.44-19.47 15.1s-.2-12.91 7.15-23.59a63.78 63.78 0 0 1 7.3-8.89 21.81 21.81 0 0 0 13.16-4.91c1.54 3.82-1.74 13.01-8.14 22.29z" fill="#cc156b"/><path d="m391.94 1343.85c-7.35 10.68-10.55 21.23-7.15 23.57s12.12-4.42 19.47-15.09 10.55-21.24 7.15-23.58-12.12 4.42-19.47 15.1z" fill="#cc156b"/><path d="m404.08 1408.21a55.18 55.18 0 0 1 -11.57 12.66h-9.19c-.64-4.27 2.64-12.66 8.45-21.16 7.35-10.67 16-17.43 19.46-15.09s.2 12.91-7.15 23.59z" fill="#cc156b"/><path d="m447.35 1110.09c-6.5 10.08-61.06 21-61.33 21.11-17.41 5.87-38.8-12.49-42.39-28.7-1.95-11.12 42.5-28 52.23-29.81 0 0-8.38-5.41-11.34-8.31-2.14-2.08-5-10.29-4-12 3-5.35 5-5.55 8.44-2.48 6.29 5.6 23 8.06 26.51 8.44 5 .55 20 6.51 24.1 10.13z" fill="#f5ae9e"/><path d="m715.38 547.74-.54 7.45h-59.44l1.19-7.45z" fill="#5a8dbf"/><path d="m713.5 574.36-.55 7.45h-61.78l1.2-7.45z" fill="#5a8dbf"/><path d="m711.61 600.92-.55 7.45h-64.11l1.19-7.45z" fill="#5a8dbf"/><path d="m709.72 627.49-.55 7.45h-66.44l1.19-7.45z" fill="#5a8dbf"/><path d="m707.83 654.11-.54 7.45h-68.83l1.19-7.45z" fill="#5a8dbf"/><path d="m705.95 680.67-.5 7.45h-71.21l1.19-7.45z" fill="#5a8dbf"/><path d="m704.06 707.24-.5 7.45h-73.54l1.19-7.45z" fill="#5a8dbf"/><path d="m713.3 741.31h-87.5l1.19-7.45h81.29z" fill="#5a8dbf"/><path d="m731.27 767.87h-90.67c-1.74-2.63-3.38-5.11-5-7.44h90.68z" fill="#5a8dbf"/><path d="m749.3 794.49h-91.87c-1.54-2.53-3-5-4.57-7.45h91.37z" fill="#5a8dbf"/><path d="m762.21 813.61 5 7.45h-93.74l-4.47-7.45z" fill="#5a8dbf"/><path d="m786.89 840.17a33.37 33.37 0 0 0 5 7.45h-102.89c-1.34-2.43-2.78-4.92-4.27-7.45z" fill="#5a8dbf"/><path d="m920 847.62h-67.11a34.58 34.58 0 0 0 4.86-7.45h47.13z" fill="#5a8dbf"/><path d="m951.36 874.24h-247.1c-1.34-2.34-2.73-4.87-4.22-7.45h117.89c2.88 1.54 4.72 2.33 4.72 2.33s1.83-.79 4.66-2.33h120.69z" fill="#5a8dbf"/><path d="m963.52 900.81h-245.06c-.05-.9-.05-1.39-.05-1.39s-1.19-2.19-3.38-6.06h245.12z" fill="#5a8dbf"/><path d="m975.84 928.31a3.17 3.17 0 0 1 -1.54.35h-255.19a2.55 2.55 0 0 1 -1.19-.25c-.1-2.43-.15-4.72-.2-6.9a3.15 3.15 0 0 1 1.39-.3h253.45z" fill="#5a8dbf"/><path d="m988.06 954.93a4.37 4.37 0 0 1 -1.59.35h-266.47a3.18 3.18 0 0 1 -1.39-.3c0-2.34-.1-4.57-.15-6.8a3.2 3.2 0 0 1 1.54-.35h264.78z" fill="#5a8dbf"/><path d="m1000.22 981.5a3.26 3.26 0 0 1 -1.54.34h-278.13a3.29 3.29 0 0 1 -1.39-.29c0-2.29-.1-4.57-.1-6.81a3 3 0 0 1 1.49-.34h276.45z" fill="#5a8dbf"/><path d="m1012.39 1008.11a3.17 3.17 0 0 1 -1.54.35h-290.1a3.27 3.27 0 0 1 -1.19-.2c0-2.28 0-4.67-.1-7a3.66 3.66 0 0 1 1.29-.25h288.41z" fill="#5a8dbf"/><path d="m1029.32 1032.84a3.72 3.72 0 0 1 -3.32 2.16h-81.1l-3.92-7a3.12 3.12 0 0 1 1.79-.5h78.56l.94 2z" fill="#5a8dbf"/><path d="m930.7 1027.58-.15 7.45h-210a3.16 3.16 0 0 1 -1-.15c0-2.34 0-4.72 0-7.15a2.81 2.81 0 0 1 .94-.15z" fill="#5a8dbf"/><path d="m930.16 1054.15-.15 7.44h-210.7a2.64 2.64 0 0 1 -.65 0c.15-2.33.3-4.76.4-7.34a.45.45 0 0 1 .25 0h210.85z" fill="#5a8dbf"/><path d="m1045.06 1059.06a3.7 3.7 0 0 1 -3.72 3.68l-81.39-1.1-3.87-7a4.59 4.59 0 0 1 1.78-.54l83.58 1.14a3.66 3.66 0 0 1 3.62 3.82z" fill="#5a8dbf"/><path d="m1023.07 1084.49a3.72 3.72 0 0 1 -3.73 3.72h-37.84l-3-1.29a18.93 18.93 0 0 1 -6.8-5 3.72 3.72 0 0 1 2.68-1.14h45a3.76 3.76 0 0 1 3.69 3.71z" fill="#5a8dbf"/><path d="m931.6 1088.16a3.3 3.3 0 0 1 -.7 0h-215.51a1.38 1.38 0 0 1 -.45 0c.5-2.58 1-5.06 1.39-7.4h213.88z" fill="#5a8dbf"/><path d="m936.41 1114.68a1.43 1.43 0 0 1 -.64.1h-226.09a1.27 1.27 0 0 1 -.6-.1c.6-2.39 1.14-4.87 1.74-7.35h224.25z" fill="#5a8dbf"/><path d="m941.28 1141.29a3.3 3.3 0 0 1 -.7 0h-237.06a5.41 5.41 0 0 1 -.85-.09c.3-1.25 1-3.83 1.84-7.35h235.43z" fill="#5a8dbf"/><path d="m906.72 732.36s-8 18.08-19 19.12c-5.36 20.11-14.7 36.9-28 47.82v32.48c0 20.61-37.09 37.34-37.09 37.34s-37.79-16.73-37.79-37.34v-29.85c-17.38-11-31.29-29.34-37.69-50.8-15.45-.54-19.17-22.39-19.17-22.49-2.48-10.93-3.38-19.32 4.82-22.25a12.68 12.68 0 0 1 8.09.25 17.35 17.35 0 0 1 2.43.94 9.47 9.47 0 0 1 1 .45c2.13-23.44 6.55-45.73 17.38-62.27.05 0 .05 0 .05.1a37.13 37.13 0 0 0 4.56 6.55c9.24 11.72 25.68 12.67 37.89 4.87l1.64-1 .65.64c17.53 9.34 31.43 7.7 40.17 1.49a35.39 35.39 0 0 0 7.65-8.74 8.78 8.78 0 0 1 13.92-1.67c16.19 16.44 23.19 69.33 24.53 89.09l5.24-27.09c7.18 4.78 13 12.43 8.72 22.36z" fill="#f5ae9e"/><path d="m825.54 754.66h-.16l-11.31-.47a3.62 3.62 0 0 1 -1.67-.47c-3.1-1.74-4.14-6-3.8-9.42 1.44-14.6 1-47.87 1-48.2a3.73 3.73 0 0 1 3.67-3.78 3.77 3.77 0 0 1 3.78 3.68c0 1.38.45 34-1 49a5.63 5.63 0 0 0 .11 1.79l9.57.4a3.72 3.72 0 0 1 -.15 7.44z" fill="#2b2150"/><path d="m851.2 729.45a3.73 3.73 0 0 1 -3.72-3.73v-8.46a3.73 3.73 0 0 1 7.45 0v8.46a3.73 3.73 0 0 1 -3.73 3.73z" fill="#2b2150"/><path d="m781 729.45a3.73 3.73 0 0 1 -3.72-3.73v-8.46a3.73 3.73 0 0 1 7.45 0v8.46a3.73 3.73 0 0 1 -3.73 3.73z" fill="#2b2150"/><path d="m855.6 699.83a3.86 3.86 0 0 1 -1.36-.26l-11.5-4.51a3.73 3.73 0 0 1 2.71-6.94l11.55 4.51a3.73 3.73 0 0 1 -1.36 7.2z" fill="#2b2150"/><path d="m779.39 698.34a3.72 3.72 0 0 1 -.91-7.33l12-3a3.72 3.72 0 1 1 1.83 7.22l-12 3a3.62 3.62 0 0 1 -.92.11z" fill="#2b2150"/><path d="m796.55 752.28a17.16 17.16 0 1 1 -17.16-17.15 17.16 17.16 0 0 1 17.16 17.15z" fill="#ee7e94"/><path d="m877.14 751.11a17.16 17.16 0 1 1 -17.14-17.11 17.15 17.15 0 0 1 17.14 17.11z" fill="#ee7e94"/><path d="m901.3 656.19-3 52.24-5.52 28.7c-1.34-19.76-8.34-72.65-24.53-89.09a8.78 8.78 0 0 0 -13.85 1.59 35.39 35.39 0 0 1 -7.65 8.74c-8.74 6.21-22.64 7.85-40.17-1.49l-.65-.64-1.64 1c-12.23 7.79-28.63 6.84-37.89-4.87a37.13 37.13 0 0 1 -4.56-6.55c-.05-.15-.15-.3-.2-.45-9.14 13-17.53 43.06-18.87 69.77l-1-4.32c-2.08-8.61-2-18.05-2.72-26.87l-2.19-26.56c0-18.08 13.75-42.61 27.46-45.24-1.71.33 0-8.19.37-9 2.8-5.31 10.28-8.39 16-7 2.82.69 4.11 4.1 6.45 4.75s3.14-3 4.81-4.77a22.86 22.86 0 0 1 32.51-.38c6.11 6.31 18 3.83 26.82 3.83h3.08c24.25.1 46.94 33.62 46.94 56.61z" fill="#4b3584"/><path d="m819.12 786.08h-.43a24.81 24.81 0 0 1 -17.79-7.57 3.72 3.72 0 0 1 5.4-5.13 17.41 17.41 0 0 0 12.51 5.25 17.7 17.7 0 0 0 12.77-4.63 3.72 3.72 0 1 1 5.23 5.3 25.49 25.49 0 0 1 -17.69 6.78z" fill="#2b2150"/><path d="m797.76 1087a2.48 2.48 0 0 1 -.45-4.92c9.92-1.84 27.61-8 44.75-17.73 20.13-11.38 35.31-28.6 42.75-48.49a2.48 2.48 0 0 1 4.65 1.74c-7.85 21-23.81 39.12-45 51.08-17.64 10-36 16.36-46.28 18.28a2.45 2.45 0 0 1 -.42.04z" fill="#2b2150"/><g fill="#7d8bc4"><path d="m1011.14 587.42a8.71 8.71 0 0 1 -6.25-3.23z"/><circle cx="983.43" cy="618.31" r="12.89"/><path d="m1327.08 618.31a12.9 12.9 0 1 1 -12.89-12.89 12.89 12.89 0 0 1 12.89 12.89z"/><path d="m1015.86 650.19-1.59 16.53a8.3 8.3 0 0 1 -2.48.4 9 9 0 0 1 0-18 8.23 8.23 0 0 1 4.07 1.07z"/><path d="m1294.82 658.13a9 9 0 1 1 -9-9 9 9 0 0 1 9 9z"/><circle cx="983.43" cy="697.95" r="12.89"/><path d="m1327.08 698a12.9 12.9 0 1 1 -12.89-12.89 12.89 12.89 0 0 1 12.89 12.89z"/><path d="m952.2 737.78a8.93 8.93 0 0 1 -8.94 8.94 5.37 5.37 0 0 1 -1.29-.15 88.31 88.31 0 0 1 .55-17.68 1.89 1.89 0 0 1 .74-.1 9 9 0 0 1 8.94 8.99z"/><path d="m1020.74 737.77a9 9 0 1 1 -9-9 9 9 0 0 1 9 9z"/><path d="m1363.34 737.77a9 9 0 1 1 -9-9 9 9 0 0 1 9 9z"/><path d="m996.32 777.59a12.89 12.89 0 1 1 -12.89-12.89 12.89 12.89 0 0 1 12.89 12.89z"/><path d="m1058.87 786.55a12.91 12.91 0 1 1 -15.35-20.36z"/><path d="m1327.08 777.59a12.9 12.9 0 1 1 -12.89-12.89 12.89 12.89 0 0 1 12.89 12.89z"/><path d="m1373.89 788.73a12.73 12.73 0 0 1 -6.45-11.12 12.9 12.9 0 0 1 9.88-12.57 35 35 0 0 1 -3.43 23.69z"/><path d="m1020.74 817.41a9 9 0 1 1 -9-9 9 9 0 0 1 9 9z"/><path d="m1086.82 823.49a8.68 8.68 0 0 1 -6.55 2.88 9 9 0 0 1 -8.94-8.94 8.86 8.86 0 0 1 4.92-8z"/><path d="m1294.82 817.41a9 9 0 1 1 -9-9 9 9 0 0 1 9 9z"/><path d="m1355.72 808.59-10.23 9.74a2.77 2.77 0 0 1 -.1-.9 9 9 0 0 1 9-9 6.12 6.12 0 0 1 1.33.16z"/><path d="m1062.47 857.23a12.89 12.89 0 1 1 -12.89-12.89 12.9 12.9 0 0 1 12.89 12.89z"/><path d="m1194.78 857.23a12.9 12.9 0 1 1 -12.9-12.89 12.91 12.91 0 0 1 12.9 12.89z"/><path d="m1260.93 857.23a12.9 12.9 0 1 1 -12.93-12.89 12.9 12.9 0 0 1 12.93 12.89z"/><path d="m1317.63 844.84-16 15.25a13 13 0 0 1 12.62-15.74 11.41 11.41 0 0 1 3.38.49z"/><path d="m1089.26 897.05a9 9 0 1 1 -9-9 9 9 0 0 1 9 9z"/><path d="m1157.78 897.05a9 9 0 1 1 -9-9 9 9 0 0 1 9 9z"/><path d="m1226.3 897.05a9 9 0 1 1 -9-9 9 9 0 0 1 9 9z"/><path d="m1062.47 936.88a12.89 12.89 0 1 1 -12.89-12.9 12.89 12.89 0 0 1 12.89 12.9z"/><path d="m1128.63 936.88a12.9 12.9 0 1 1 -12.9-12.9 12.9 12.9 0 0 1 12.9 12.9z"/><path d="m1194.78 936.88a12.9 12.9 0 1 1 -12.9-12.9 12.9 12.9 0 0 1 12.9 12.9z"/><path d="m1089.26 976.7a9 9 0 1 1 -9-9 9 9 0 0 1 9 9z"/><path d="m1157.78 976.7a9 9 0 1 1 -9-9 9 9 0 0 1 9 9z"/><path d="m1226.3 976.7a9 9 0 1 1 -9-9 9 9 0 0 1 9 9z"/><path d="m1062.49 1016.51a12.91 12.91 0 0 1 -12.56 12.91c.54-8.34 1-17.28 1.39-25.67a12.91 12.91 0 0 1 11.17 12.76z"/><path d="m1128.63 1016.52a12.9 12.9 0 1 1 -12.9-12.89 12.9 12.9 0 0 1 12.9 12.89z"/><path d="m1194.78 1016.52a12.9 12.9 0 1 1 -12.9-12.89 12.9 12.9 0 0 1 12.9 12.89z"/><path d="m1089.26 1056.34a9 9 0 1 1 -9-9 9 9 0 0 1 9 9z"/><path d="m1157.78 1056.34a9 9 0 1 1 -9-9 9 9 0 0 1 9 9z"/><path d="m1062.47 1096.16a12.89 12.89 0 1 1 -12.89-12.89 12.89 12.89 0 0 1 12.89 12.89z"/><path d="m1128.63 1096.16a12.9 12.9 0 1 1 -12.9-12.89 12.9 12.9 0 0 1 12.9 12.89z"/><path d="m1194.78 1096.16a12.9 12.9 0 1 1 -12.9-12.89 12.9 12.9 0 0 1 12.9 12.89z"/><path d="m1020.74 1136a9 9 0 1 1 -9-9 9 9 0 0 1 9 9z"/><path d="m1089.26 1136a9 9 0 1 1 -9-9 9 9 0 0 1 9 9z"/><path d="m1157.78 1136a9 9 0 1 1 -9-9 9 9 0 0 1 9 9z"/><path d="m1226.3 1136a9 9 0 1 1 -9-9 9 9 0 0 1 9 9z"/><path d="m996.35 1175.81a12.93 12.93 0 0 1 -25 4.47c2.43-5.31 4.82-10.72 7.1-16.29 0 0 .05 0 .05-.09a12.6 12.6 0 0 1 5-1 12.92 12.92 0 0 1 12.85 12.91z"/><path d="m1062.47 1175.8a12.89 12.89 0 1 1 -12.89-12.89 12.89 12.89 0 0 1 12.89 12.89z"/><path d="m1128.63 1175.8a12.9 12.9 0 1 1 -12.9-12.89 12.9 12.9 0 0 1 12.9 12.89z"/><path d="m1194.78 1175.8a12.9 12.9 0 1 1 -12.9-12.89 12.9 12.9 0 0 1 12.9 12.89z"/><path d="m1260.93 1175.8a12.9 12.9 0 1 1 -12.89-12.89 12.89 12.89 0 0 1 12.89 12.89z"/><path d="m1020.74 1215.62a9 9 0 1 1 -9-9 9 9 0 0 1 9 9z"/><path d="m1089.26 1215.62a9 9 0 1 1 -9-9 9 9 0 0 1 9 9z"/><path d="m1157.78 1215.62a9 9 0 1 1 -9-9 9 9 0 0 1 9 9z"/><path d="m1226.3 1215.62a9 9 0 1 1 -9-9 9 9 0 0 1 9 9z"/><path d="m1286.2 1224.53a.85.85 0 0 1 -.35 0 8.94 8.94 0 0 1 -5.21-16.24c1.98 5.41 3.82 10.82 5.56 16.24z"/><path d="m996.32 1255.44a12.89 12.89 0 1 1 -12.89-12.89 12.89 12.89 0 0 1 12.89 12.89z"/><path d="m1062.47 1255.44a12.89 12.89 0 1 1 -12.89-12.89 12.89 12.89 0 0 1 12.89 12.89z"/><path d="m1128.63 1255.44a12.9 12.9 0 1 1 -12.9-12.89 12.9 12.9 0 0 1 12.9 12.89z"/><path d="m1194.78 1255.44a12.9 12.9 0 1 1 -12.9-12.89 12.9 12.9 0 0 1 12.9 12.89z"/><path d="m1260.93 1255.44a12.9 12.9 0 1 1 -12.89-12.89 12.89 12.89 0 0 1 12.89 12.89z"/><path d="m952.22 1295.26a9 9 0 1 1 -9-9 9 9 0 0 1 9 9z"/><path d="m1020.74 1295.26a9 9 0 1 1 -9-9 9 9 0 0 1 9 9z"/><path d="m1089.26 1295.26a9 9 0 1 1 -9-9 9 9 0 0 1 9 9z"/><path d="m1157.78 1295.26a9 9 0 1 1 -9-9 9 9 0 0 1 9 9z"/><path d="m1226.3 1295.26a9 9 0 1 1 -9-9 9 9 0 0 1 9 9z"/><path d="m1294.82 1295.26a9 9 0 1 1 -9-9 9 9 0 0 1 9 9z"/><path d="m1062.47 1335.08a12.89 12.89 0 1 1 -12.89-12.89 12.9 12.9 0 0 1 12.89 12.89z"/><path d="m1128.63 1335.08a12.9 12.9 0 1 1 -12.9-12.89 12.91 12.91 0 0 1 12.9 12.89z"/><path d="m1194.78 1335.08a12.9 12.9 0 1 1 -12.9-12.89 12.91 12.91 0 0 1 12.9 12.89z"/><path d="m1260.82 1333.53c-.24.1-.44.24-.64.34a144 144 0 0 1 -22.1 9.44 12.9 12.9 0 1 1 22.74-9.78z"/></g><path d="m1164.92 990.65a85.65 85.65 0 0 1 -26.27-4 59.67 59.67 0 0 1 -11.77-6c-4.13-2.52-8-4.91-13.18-6a2.49 2.49 0 0 1 1.06-4.86c6 1.3 10.41 4 14.71 6.66a55.73 55.73 0 0 0 10.82 5.54c10.73 3.75 32.22 6.16 46.41-.24a2.48 2.48 0 0 1 2 4.53c-7.13 3.18-15.62 4.37-23.78 4.37z" fill="#2b2150"/><path d="m1084.09 1259.54a2.48 2.48 0 0 1 -2-1.07c-15.08-21.92-24.37-43.53-27.63-64.23-3.48-22.06-4.72-51 2.24-65.94a2.49 2.49 0 0 1 4.51 2.09c-6.5 14-5.06 42.72-1.85 63.08 3.15 20 12.17 40.88 26.82 62.18a2.48 2.48 0 0 1 -2 3.89z" fill="#2b2150"/><path d="m1735.65 1792.06s-12.91.4-25.32.55l-139 2.83c-18.92.14-31.54.64-31.54.64a81.48 81.48 0 0 1 -.49-8.54l-108.21.25c-18.92-.2-31.53.1-31.53.1s-6.16-52.49 30.49-47c24 3.63 73.54-21.75 73.54-21.75a4.06 4.06 0 0 1 .85.1c3.37.5 16.39 3.48 37.44 20.56 8.19 6.7 37.34-.4 41.27-17.78l-.15-1.64c2.28 1.1 4.52 3.23 6.55 7a61.45 61.45 0 0 1 6.16 17.62c22.69-6.6 46.83-19.51 46.83-19.51a7.08 7.08 0 0 1 .94.1c3.43.44 16.54 3.28 37.74 19.86 8.34 6.56 37.34-1.09 40.92-18.52l-.15-1.64c2.33 1.09 4.52 3.18 6.65 6.8 13.72 23.97 7.01 59.97 7.01 59.97z" fill="#9bd3d5"/><path d="m1583.11 1722c-3.93 17.38-33.08 24.48-41.27 17.78-24-19.52-37.64-20.66-38.29-20.66l1.39-4.57 77.37-1.39z" fill="#f5ae9e"/><path d="m1722.1 1726.91c-3.58 17.43-32.58 25.08-40.92 18.52-25.08-19.61-38.78-20-38.68-20l2.93-10.23 75.23-2z" fill="#f5ae9e"/><path d="m1734.21 1148-4.21 565-96.83 2.59-24.68-460.18-12 208.11-1.76 249.48-90.58 1.59-17.15-532.13 63.71 21.55a19.17 19.17 0 0 0 24.28-24.33l-10.8-31.68z" fill="#4b3584"/><path d="m1770 1048.33-12.42 6c1.74 18.92-8.88 49.56-20.11 69.87v23.8h-173.28l-20.81-61.08a19.17 19.17 0 0 1 2.78-17.63l58.55-78.61c9.48-12.71.25-30.78-15.65-30.59l-98 1.34a19.18 19.18 0 0 1 -15.94-8.09l-22.81-32.34c12.31-41.46 37.09-115.35 60.78-131 6.45-4.27 30.84-11 51.54-15.5a99.86 99.86 0 0 0 21 5.56c5.16 11.72 19.51 25.83 49.66 17.24 17.48-5 25-27.56 25.72-30.1a11 11 0 0 0 1-.59c12.27 5.81 25.77 11.47 28.41 12.56l.44.2 45.19 16.14a17.09 17.09 0 0 1 11.32 15.09l43.26 181.8c1.63 26.09-6.16 43.6-20.63 55.93z" fill="#789ed3"/><path d="m1477.21 854.52v100.71c-.34-.35-.64-.75-1-1.09-2.23-2.54-4.37-5.17-6.46-7.85v-70.12c2.09-6.1 4.23-12.21 6.31-18.32.41-1.09.76-2.23 1.15-3.33z" fill="#fcd6a9"/><path d="m1506.51 800.05v162.48c-2.48.1-5 .15-7.45.2v-154.14a76.33 76.33 0 0 1 7.45-8.54z" fill="#fcd6a9"/><path d="m1535.81 783.66v178.07c-2.48.1-5 .15-7.45.25v-176.23a42.79 42.79 0 0 1 7.1-2c.1-.04.25-.09.35-.09z" fill="#fcd6a9"/><path d="m1565.11 778.79v301.58a45.89 45.89 0 0 0 -5.76-5.37 12.85 12.85 0 0 1 -1.69 1.89v-296c.5-.1 1-.2 1.54-.35 1.98-.54 3.92-1.15 5.91-1.75z" fill="#fcd6a9"/><path d="m1594.41 792.6v329.68a28.7 28.7 0 0 0 -2.79-2.73c-1.58-1.39-3.17-2.83-4.66-4.32v-329.23c2.48 2.18 4.91 4.56 7.45 6.6z" fill="#fcd6a9"/><path d="m1587 1135.14a46.45 46.45 0 0 1 7.45-5.86v15.24c-2.49-.19-5-.39-7.45-.64z" fill="#fcd6a9"/><path d="m1623.7 801v345c-2.48 0-5-.14-7.45-.19v-344.81a41.19 41.19 0 0 0 7.45 0z" fill="#fcd6a9"/><path d="m1653 785.8v360c-2.48.1-5 .14-7.45.14v-353.44a50.43 50.43 0 0 0 7.45-6.7z" fill="#fcd6a9"/><path d="m1682.25 777.31v367.36c-2.48.15-5 .3-7.45.4v-370.15z" fill="#fcd6a9"/><path d="m1711.55 786.74v356.15c-2.48.14-5 .29-7.45.49v-359z" fill="#fcd6a9"/><path d="m1740.85 1109.81c-4 9.54-6.76 19.12-5.17 29.2.3 1.94.7 4.17-.69 5.56a3.84 3.84 0 0 1 -1.59.85v-351.18a36.75 36.75 0 0 1 7.45 4.27z" fill="#fcd6a9"/><path d="m1770.14 896.38v149.52a30.91 30.91 0 0 1 -3 1.44c-1.45.6-2.93 1.15-4.42 1.79v-185c2.46 10.75 4.94 21.48 7.42 32.25z" fill="#fcd6a9"/><path d="m1324.13 1104.64-80.13-56.52a19.15 19.15 0 0 1 5.34-33.94l93.66-29.18a19.18 19.18 0 0 0 12.6-12.62l29-93.63a19.16 19.16 0 0 1 33.93-5.41l56.67 80a19.15 19.15 0 0 0 15.9 8.08l98-1.34a19.16 19.16 0 0 1 15.63 30.6l-58.55 78.61a19.16 19.16 0 0 0 -2.77 17.62l31.56 92.8a19.16 19.16 0 0 1 -24.27 24.32l-92.86-31.4a19.15 19.15 0 0 0 -17.61 2.81l-78.51 58.7a19.16 19.16 0 0 1 -30.63-15.57l1.16-98a19.15 19.15 0 0 0 -8.12-15.93z" fill="#f7af4d"/><path d="m1347.51 996.52 18.36 3.8c4.16.86 8.08-1.1 8.76-4.37l10.93-52.72c.68-3.28-2.14-6.63-6.3-7.5l-18.36-3.8c-4.16-.86-8.08 1.09-8.76 4.37l-10.93 52.7c-.68 3.3 2.14 6.65 6.3 7.52z" fill="#f5ae9e"/><path d="m1595.66 1125.18c-1.83 13.33-49.74 44.94-50 45.16-14.92 14.22-45.37 5.7-56.7-9.08-7.26-10.39 29.94-48.6 39-55.07 0 0-11.09-1.53-15.46-3.07-3.17-1.11-10-8.09-9.82-10.33.5-6.85 2.47-8 7.41-6.53 9 2.72 27.17-2.75 31-4 6.83-2.24 17.91-5.39 20.53-2.73z" fill="#f5ae9e"/><path d="m1661 767.17c-.75 2.54-8.24 25.13-25.72 30.1-30.15 8.59-44.5-5.52-49.66-17.24 13.31 2.19 28.11 2.39 40.52-.54 13.28-3.18 25-7.1 34.86-12.32z" fill="#f5ae9e"/><path d="m1698 644.73a12.33 12.33 0 0 1 -.33 12.85c-1.49 2.38-3.58 4.57-5.07 6.85-8 12.37-14 12-15.74 11.67-3-.6-4.92 2.19-5.61 4.72-2.43 8.34-6.85 14.75-13.21 19s-14.5 6.5-24.38 6.5c-8.84 0-18.92-1.79-30.19-5.26-10.78-3.33-23.09-6.41-33.52-.25a7.13 7.13 0 0 1 -3.73 1c-6.85 0-14.89-9.48-19.12-15.64-.64-2.38-1.14-4.82-1.59-7.3a114.28 114.28 0 0 1 -1.78-25.42 210.67 210.67 0 0 1 1.93-21.41 78.88 78.88 0 0 0 38.64-20.21 34.12 34.12 0 0 0 20.46 14.16c8.44 1.88 21.8 1.73 31.23-3.18a.18.18 0 0 1 .15 0c6.06-3.23 13.86-7.85 14.1-8-.24.25-1.78 12.22-.49 16.14a44.09 44.09 0 0 0 11.42 17.78c3.23 3 9.88 7.35 14.5 6.6 3.28-.49 3.18-2.23 3.87-5 1.09-4.32 3.82-7.3 7.7-9.54 4.59-2.63 8.54.01 10.76 3.94z" fill="#f5ae9e"/><path d="m1569.07 690.53a16.83 16.83 0 0 1 -4.61 13.84c-2.57 2.66-9-1.42-13.72-6.07-7.22-7.07-7-7.87-9-18.67a16.21 16.21 0 0 1 8.45-3.65 16.82 16.82 0 0 1 18.88 14.55z" fill="#ee7e94"/><path d="m1588.42 692.7a32.83 32.83 0 0 1 -9.19-1.54 7.69 7.69 0 0 1 -5.41-8l2.91-32.75a3.72 3.72 0 1 1 7.42.66l-2.91 32.75c5.35 1.79 9.5 1.67 10.51.64a3.72 3.72 0 0 1 5.3 5.23c-2.22 2.31-5.41 3.01-8.63 3.01z" fill="#2b2150"/><path d="m1563.45 667.22a3.73 3.73 0 0 1 -3.69-3.25l-.77-6.07a3.72 3.72 0 0 1 7.39-.94l.77 6.07a3.72 3.72 0 0 1 -3.22 4.16z" fill="#2b2150"/><path d="m1614.28 663.24a3.73 3.73 0 0 1 -3.69-3.25l-.78-6.07a3.73 3.73 0 0 1 7.39-.95l.8 6.03a3.73 3.73 0 0 1 -3.22 4.17z" fill="#2b2150"/><path d="m1645 685.2a16.83 16.83 0 1 1 -18.83-14.56 16.82 16.82 0 0 1 18.83 14.56z" fill="#ee7e94"/><path d="m1622.51 645.1a3.87 3.87 0 0 1 -1.2-.2c-2.66-.91-10.54-3.07-15.2-2.27a3.72 3.72 0 1 1 -1.29-7.33c7.37-1.29 17.74 2.15 18.9 2.55a3.73 3.73 0 0 1 -1.21 7.25z" fill="#2b2150"/><path d="m1554.46 652.59a3.73 3.73 0 0 1 -1.77-7c.9-.48 9-4.74 14.89-3.84a3.73 3.73 0 1 1 -1.13 7.37c-2.7-.39-8 1.86-10.21 3a3.81 3.81 0 0 1 -1.78.47z" fill="#2b2150"/><path d="m1590.06 726.92a24.07 24.07 0 0 1 -7.41-1.16c-6.12-2-10.09-5.92-10.37-10.32a3.72 3.72 0 0 1 3.48-4 3.76 3.76 0 0 1 4 3.48c0 .61 1.6 2.54 5.22 3.7a15.32 15.32 0 0 0 16.88-4.83 3.73 3.73 0 1 1 5.76 4.73 22.16 22.16 0 0 1 -17.56 8.4z" fill="#2b2150"/><path d="m1610.84 585.93a2 2 0 0 1 -.49 0 2.48 2.48 0 0 1 -1.95-2.92 26.84 26.84 0 0 1 40.22-17.7 2.49 2.49 0 0 1 -2.58 4.25 21.85 21.85 0 0 0 -32.77 14.42 2.49 2.49 0 0 1 -2.43 1.95z" fill="#2b2150"/><path d="m1676.39 667.3a2.48 2.48 0 0 1 -.23-4.95c1.27-.31 5.14-4.22 8.15-8.24a2.49 2.49 0 1 1 4 3c-2.22 3-7.79 9.88-11.69 10.2z" fill="#2b2150"/><path d="m1105.76 695.24a3.23 3.23 0 0 1 -.69-.07l-11.22-2.11a3.73 3.73 0 1 1 1.39-7.32l11.21 2.12a3.72 3.72 0 0 1 -.69 7.38z" fill="#2b2150"/><path d="m1164.25 716.1a3.65 3.65 0 0 1 -2.38-.87 35.81 35.81 0 0 0 -14.66-7.34 3.72 3.72 0 1 1 1.71-7.25 43.3 43.3 0 0 1 17.73 8.88 3.73 3.73 0 0 1 -2.4 6.58z" fill="#2b2150"/><path d="m1116.43 749.64c-5 0-10.64-2.33-12.63-3.24a6.42 6.42 0 0 1 -3.34-5.17 7 7 0 0 1 1.72-5.21l15.52-29.53a3.72 3.72 0 1 1 6.59 3.47l-15.77 30-.18.3c3.4 1.32 8 2.4 9.44 1.75a3.72 3.72 0 0 1 3.1 6.77 10.77 10.77 0 0 1 -4.45.86z" fill="#2b2150"/><path d="m1127.15 771.2c-.85 1.58-5.46 9.48-11.52 11.32a23.29 23.29 0 0 1 -6.86 1c-5.51 0-11.37-1.69-14.89-5.41-3.31-3.5 2.07-8.69 5.36-5.17 2.63 2.78 9.44 4 14.2 2.49a7.75 7.75 0 0 0 2.88-2.09 29.75 29.75 0 0 1 -16.58-5.06 22 22 0 0 1 -6.11-6.56c-2.42-4 4-7.91 6.45-3.77a13.39 13.39 0 0 0 4 4.22c4.56 3.27 12.25 4.66 16.82 3.08 3.73-1.31 8.78 1.34 6.25 5.95z" fill="#2b2150"/><path d="m1201.31 674.52a2.51 2.51 0 0 1 -2.12-1.19c-3.73-6.08-9.51-10.56-17.66-13.69a2.48 2.48 0 1 1 1.78-4.64c9.21 3.54 15.79 8.69 20.11 15.74a2.48 2.48 0 0 1 -2.11 3.78z" fill="#2b2150"/><path d="m1131.76 748.67a17.28 17.28 0 1 0 21.23-12.1 17.29 17.29 0 0 0 -21.23 12.1z" fill="#ee7e94"/><path d="m1203.62 746.12a2.48 2.48 0 0 1 -1.33-4.58c4.36-2.77 8.27-6.73 8.9-9a2.48 2.48 0 1 1 4.78 1.31c-1.12 4.09-6.34 8.92-11 11.89a2.39 2.39 0 0 1 -1.35.38z" fill="#2b2150"/><path d="m1096.42 712a3.79 3.79 0 0 1 -1-.13 3.73 3.73 0 0 1 -2.6-4.58l1.41-5.17a3.73 3.73 0 0 1 7.19 2l-1.42 5.17a3.72 3.72 0 0 1 -3.58 2.71z" fill="#2b2150"/><path d="m1147.5 730.42a3.67 3.67 0 0 1 -1-.13 3.73 3.73 0 0 1 -2.61-4.58l1.31-4.76a3.72 3.72 0 0 1 7.18 2l-1.31 4.76a3.72 3.72 0 0 1 -3.57 2.71z" fill="#2b2150"/><path d="m1078.88 717.94c-.12 1.34-.2 2.69-.28 4a157.45 157.45 0 0 0 .2 23.25c.2 2.38.45 4.72.77 7 7.53.22 14.58-5.39 16.48-13.62 2.16-9.34-3.08-18.45-11.65-20.43a14.13 14.13 0 0 0 -5.52-.2z" fill="#ee7e94"/><path d="m1242.72 800.73a2.47 2.47 0 0 1 -2.14-1.23c-2.9-5-6.08-11-7.69-17.53-2.26-9.25-1.24-18.93 0-27.18a2.49 2.49 0 0 1 4.91.77c-1.22 7.76-2.18 16.83-.13 25.23 1.46 6 4.43 11.54 7.15 16.21a2.49 2.49 0 0 1 -2.15 3.73z" fill="#2b2150"/><path d="m719 507.76c2.48 9.34-3.33 17.78-8.19 22.89h-47.07l-22.74-52.78a23 23 0 0 1 -2-9.49l52.94.65 2.83 10.23a.83.83 0 0 0 1.54.2c1.44-2.93 15.79-20.59 19.11-23.86 0 0 4.41-1.56 7.52 3.1-.84 7.84-7.94 33.77-3.94 49.06z" fill="#f5ae9e"/><path d="m1794.25 991.53-43.2-181.53a20.72 20.72 0 0 0 -13.76-18s-59.83-20.9-68.43-24.83c16-10.47 29.05-27.36 31-52.88 7.15-2.44 21.15-10.58 30.29-37.64 13.06-38.64-2.53-63.61-6.65-69.33-1-1.34 0-7.44-.2-9.38-1.49-12.71-11.67-25.52-22.79-31.48a36.22 36.22 0 0 0 -12.67-3.68c-.79-.1-10.52-.3-10.52-.3-.25-.94-1.44-6.2-2-7.74-6.55-17.73-24.13-16.49-35.9-15.64 0 0-3.48.29-4.12 0a20.76 20.76 0 0 1 -2.59-2.59 34.59 34.59 0 0 0 -27.46-11.67 34.24 34.24 0 0 0 -26.32 13 23.38 23.38 0 0 1 -2.88 3.28c-1.39.8-7.49-1.19-7.49-1.19-14.6-4.57-30.49.15-39.48 11.72-8.49 10.87-9.54 27.21-3.13 38.83a21.62 21.62 0 0 0 -9.48 8.1 17 17 0 0 0 -2 15 33.62 33.62 0 0 0 6.45 11.08 34.66 34.66 0 0 0 -2.08 18c1 7.55 4.32 15.1 9.68 22.5a36.61 36.61 0 0 0 8.69 8.79c.25 2.13 1.29 7.89 1.44 8.64-.35.39-2 6-3.18 9.13-3.42 9.49-8.64 23.74-6.15 42.11 2.33 17.53 9.93 29.7 24.53 39.38-17.93 4.22-36.1 9.54-42.36 13.51a1.75 1.75 0 0 0 -.4.25c-21.1 11.32-46.38 79.05-60.43 125.23l-29-41c-10.73-15.15-35.06-11.23-40.52 6.45l-16.08 51.35-3.43-.7c-6.11-1.24-12.06 2.09-13.16 7.3l-9.73 46.88-90.48 28.2a22.86 22.86 0 0 0 -6.35 40.53l80 56.51a15.47 15.47 0 0 1 6.55 12.81l-1.14 98a22.52 22.52 0 0 0 6.5 16.29 23.32 23.32 0 0 0 16.44 6.9 22.41 22.41 0 0 0 13.61-4.62l78.51-58.69a15.65 15.65 0 0 1 14.2-2.24l26.71 9s17 530.89 17.09 531.34c-7.6 3.77-43.8 21-65.35 21a31.64 31.64 0 0 1 -4.52-.3c-10.63-1.59-19.17 1.09-25.23 7.94-10.53 11.77-10.23 32.63-9.73 40.23h-267a24.34 24.34 0 0 0 2.18-1.64c6.46-5.61 9.54-14 12.57-22.1 1.59-4.32 10.08-19.67 13.4-22.69 0 0 2.93 32.12 2.93 32.22 1.24 13.71 21.8 12.72 21.8-1 0 0-1.73-47.12-1-48.47a18.22 18.22 0 0 0 1.89-7.1c2.38-21 .59-37.54-5.37-50.55a44.8 44.8 0 0 0 -16.28-19.07c.1 0 .24-70.16.24-70.16 2.88-27.22 4.57-54.68 5-82.19 11.87 14.85 116.25 143.61 122 149.67a100.34 100.34 0 0 0 4 9.54c6.51 14.84 21.7 49.5 19.52 63.46-.6 3.87-2.14 7.6-3.73 11.57-3 7.3-6 14.85-3.47 23.49 3.27 11 13.9 17.43 24.93 22.74a46.53 46.53 0 0 0 9.63 2.38c3.82-.44 6.55-3.07 8.14-4.61a176.31 176.31 0 0 0 32.13-42c2.68-4.82 5.56-10.58 5.91-17.29.5-8.74-3.28-16.83-7-24.63a92.8 92.8 0 0 1 -5.17-12.81 43.84 43.84 0 0 1 -1.68-13.21l24.53 19.77a10.61 10.61 0 0 0 6.7 2.38c9.83 0 14.4-12.66 7.5-19.32 0 0-37.64-37.59-37.94-38.13-8.14-16.24-28.5-29-46.53-29.3-2.63-5.76-5.76-13-9-20.36-23.43-53.18-67-152.15-98.47-180.11-3.57-3.18-8.59 2.29-5 5.56 30.29 26.92 73.44 124.89 96.58 177.53 9.34 21.15 12.76 27.86 12.76 27.86 1 9.93-1.69 44.59-10.77 47.92-4.22 1.54-10.33-4.08-16.84-15.45-.1-.25-166.5-207-169.43-212.09a44.2 44.2 0 0 1 -5.36-19.86c-.55-10.63-2.24-42.7-2.53-48.12l13.55.5a413.94 413.94 0 0 0 42.41-.85c8.19-.54 28.7-3.12 30.79-3.47-2.49 21.35-4.42 35.06-4.47 35.7-.4 4.62 6.65 6 7.35 1.1.35-2.29 2.33-16.69 4.81-38.14 1.35-.25 2.74-.65 4.08-.9 34.71-6.4 80.69-38.43 88-43.45 4.57-3.12 7.2-3.67 6.26-7.35l-14.06-56.26a417.38 417.38 0 0 0 -15.34-48c-4.07-10.57-8.64-21-13.66-31.18-5.51-11.22-11.86-22.65-18.42-33.57-5.51-9.24-11.67-18.13-18-26.82q-7.29-10-15.19-19.46-4.24-5.07-8.64-10.08s33.32-142.57 33.37-142.57 23.83-1.94 24-1.94c4.77-.39 4.27-7.84-.54-7.4l-21.31 1.69 27.41-26.51a38.15 38.15 0 0 1 6.06 26.12 3.71 3.71 0 0 0 3.33 5.36h.2l28.35-1.39a3.76 3.76 0 0 0 3.34-2.34 42.71 42.71 0 0 0 0-32.27c-3.28-8-8.94-14.75-14.15-21.55 0-1.54 68.53-66.6 75.13-72.6a38.9 38.9 0 0 0 8.19-45.59l-54.62-158.71c-.35-1-4-2.63-5-2.23l-4.82-51.45a17 17 0 0 0 -16.34-16.38c-6.31-.3-14.3-.65-22.2-1l2.54-36.4a15.51 15.51 0 0 1 7.64-12.36l85.17-50.35c16.19-9.59 14.25-34.27-3.13-41.27l-91.77-36.94a15.62 15.62 0 0 1 -9.38-11.13l-21.61-96.58a22.94 22.94 0 0 0 -22.59-18 22.66 22.66 0 0 0 -17.58 8.25l-63.56 75.87a15.45 15.45 0 0 1 -13.41 5.51s-98.37-9.33-98.52-9.33c-18.67-1.79-31.78 19.27-21.75 35.21l52.54 83.87a15.63 15.63 0 0 1 1.09 14.5l-18.72 43.2c-1.39-1-19.27-8.39-23.69-8.39a29.63 29.63 0 0 0 -27.54 18.12s-24 73.15-24.08 73.2a3.62 3.62 0 0 0 -2 2.68s-27.26 156.52-27.46 157.76c-1.48 11.36-4.26 32.36 6.72 43.48l90.47 131.6a64.94 64.94 0 0 0 -3.37 11.72c-2.88 15.29-2.14 39.57 15 60.93 0 .59-.4 27.26-1 39.82-.4 8.29-.85 16.69-1.54 25l-20.36-9.34-77.17-168.6a3.58 3.58 0 0 0 -1.89-1.84s-82.58-36.5-82.77-36.55v-16.59c14.2-11.12 24.82-27.85 30.09-48.36 10.13 0 15.54-17.13 16.68-21.31 5.07-11.86 3.28-19 1-22.94a14.38 14.38 0 0 0 -8.94-6.45l2.78-48c-.08-25.74-25.08-60.21-50.7-60.21 0 0-7.15.1-9.34.25-7 .4-14.25.8-17.87-2.93a26.08 26.08 0 0 0 -18.77-7.75 25.45 25.45 0 0 0 -20.81 10.18 14.35 14.35 0 0 0 -8.84-3.47c-6.66-.4-13.71 3.13-17 8.54a13 13 0 0 0 -2 6.11c-16 3.33-30.39 30.09-30.39 50.85l3.67 44.74-1.49.45c-12.21 4.27-9.18 17.67-7.25 26.41.45 2.44 4.57 22.25 19.62 25.18 6.06 22.64 19.61 41.22 37.19 52.34v13.61l-10.92 2.43-59-87.15a3.72 3.72 0 0 0 -5.16-1 3.65 3.65 0 0 0 -1 5.16l60.33 89.29a3.74 3.74 0 0 0 3.08 1.63c.3 0 2.28-.44 2.28-.44a80.05 80.05 0 0 0 4.87 22.84 49.21 49.21 0 0 0 5.12 10.38c5.36 8.09 13.7 13.6 21.05 18.52l20.46 13.61 22.79-12.52c8.39-4.57 19.82-10.87 24.58-21.75a2.47 2.47 0 0 0 -1.24-3.27 2.44 2.44 0 0 0 -3.28 1.24c-3.82 8.69-12.41 13.95-22.44 19.41l-20.16 11.08-18-11.92c-7-4.67-14.85-9.93-19.66-17.18a44.88 44.88 0 0 1 -4.62-9.29 74.76 74.76 0 0 1 -4.57-22.25l5.41-1.19v3.68c0 22.79 38.39 40 40 40.72a3.54 3.54 0 0 0 3 0c1.63-.7 39.28-18 39.28-40.72v-3.82l78.7 34.66 77.22 168.49a3.43 3.43 0 0 0 1.78 1.85s22 10.18 22.2 10.23c2.93 1.39-1.39 20.61-2.59 22.45-2.13 3.32-27.85 31.38-27.85 31.73-.15-.2-32.53-13.91-32.53-13.91a14.56 14.56 0 0 1 -6.9-6.16l-38.59-68.42c-.59-22.25-2.58-85.36-6.65-101.8a3.71 3.71 0 1 0 -7.2 1.79c4.67 18.82 6.6 107 6.6 107.9 0 2 2.83 5.51 5 3.38l34.36 60.81a22 22 0 0 0 10.48 9.39s30.94 13.11 31 13.11-7.35 10.82-8.2 12.11c-12.91 19.91-22.39 41.62-32.17 63.17-8.55 18.77-17.43 35.7-25.53 49.85l-2.18-79.7c3.32-2.08 5.26-3.62 5.56-3.82a3.88 3.88 0 0 0 1.34-3.63l-11.72-64.06.94-46a3.73 3.73 0 1 0 -7.45-.15s-.94 46.88-.89 47.13l11.37 62.12c-6.75 4.62-31.88 20-65.4 16.83-19.21-1.83-38.53-.34-57.7 1.39-17.53 1.54-37.54 3.38-53.83 1.89-15-1.34-44.49-16.44-53.63-20.66 0 0 14.55-66.59 15-70s2.13-27.22 2.43-38.54v-.25l-5.21-131.34s7.59-31.88 7.64-32.18c1.1-4.62-6.1-6.45-7.25-1.69l-5.61 23.64-76-130.5c-7.2-10-12.62-18.32-11-26 8.39-41.42 25.58-141.33 32.68-183 4.52.2 39.92-.05 40.12-.05a2.53 2.53 0 0 0 2.43-2.58 2.5 2.5 0 0 0 -2.58-2.39c-.15 0-36.79.15-39.13.05.8-4.66 1.44-8.34 1.84-10.72h47.32s-14 188.9-13.7 189.44c-4.08 2.39-12.32 5.56-19.07 7.65a3.69 3.69 0 0 0 -2.48 4.62 3.8 3.8 0 0 0 4.66 2.48c6.36-1.94 18.43-6.26 23.09-9.93 1.59-1.29 1.2-4.12 1.2-4.12l14-193.62a3.49 3.49 0 0 0 -1-2.78c-.1-.1 7-11.27 4.37-21.3-2.93-10.93-.85-21.8.59-29.75.2-.94.35-1.88.5-2.78a14.72 14.72 0 0 1 6.55 5.41l53.68 80.1a22.54 22.54 0 0 0 40.09-5.4l30.93-91.27a15.14 15.14 0 0 1 10.18-9.73l92.71-26.27a22.59 22.59 0 0 0 7.35-39.83l-77.31-57.6a15.06 15.06 0 0 1 -6.06-12.66l3.62-96.34a22.28 22.28 0 0 0 -6.2-16.44 23.11 23.11 0 0 0 -29.4-2.83l-78.66 55.72a15.08 15.08 0 0 1 -13.9 1.83l-90.48-33.17a22.76 22.76 0 0 0 -26 7.85 22.34 22.34 0 0 0 -3.33 20l28.71 92a15.25 15.25 0 0 1 -2.59 13.85l-59.57 75.81a22.58 22.58 0 0 0 17.48 36.5l14 .15c.29 2.48 23 56 23 56a3.64 3.64 0 0 0 -1.09 2c-.25 1.49-25.18 149-35.86 201.61-2.18 10.58 4.27 20.66 12.12 31.48l80 137.4 5.21 130.7v.25c-.3 11.08-1.93 34.17-2.33 37.49s-15.59 72.21-15.59 72.21c-.8 3.52 2.73 4.61 5.21 5.71l-8 565a3.72 3.72 0 0 0 3.68 3.78l13.21.19c-1.09.75-11.52 8.4-12.66 8.94-15.85 7.25-23 10-40.62 12.62-13.76 2-36.85 8.24-36.65 27.36l1.54 11.67a66.93 66.93 0 0 0 2.18 9h-73.89c2.48-10.13 3.53-20.26-1.59-28.36-4.62-7.25-12.31-9.68-19.12-11.77a45.92 45.92 0 0 1 -10.57-4.22c-11.62-7-15.25-23.59-18.72-39.63-.8-3.57-1.59-7.15-2.44-10.52 0-2.73 5-262.59 5-262.59h7.84a3.73 3.73 0 0 0 3.73-3.58s7.85-236.82 7.85-239.45-.1-5.41-.25-8c-.2-4.37-.55-8.79-1.1-13.11l42.53-6.19a22.55 22.55 0 0 0 12.51-38.49l-41.06-40 47.67-22.39a48.24 48.24 0 0 0 21.85-66.79s-11.87-22-11.92-22l-73.29-137.33a21 21 0 0 0 -14-10.23s-67.23-13.4-67.33-14l-1.84-12.66c8.84-.05 65.7.25 70.51.15a3.75 3.75 0 0 0 3.53-4.42c-1-5.47-3.78-11.18-6.41-16.64-4.27-8.84-8.29-17.18-5.51-23.64.7-1.68 1.44-3.32 2.24-5 3.17-6.8 6.45-13.81 5.66-21.75-.55-5.46-2.29-9.83-4-14.1s-3.27-8.2-3.47-13c-.15-2.59 1.09-5.62 2.43-8.79a38.49 38.49 0 0 0 2.83-8.74c1.14-8.2-2.88-16.94-9.19-23.84a3.29 3.29 0 0 0 .45-1.69c0-21.55-6.85-40.17-19.36-52.44-10.09-9.93-18.38-13-21.95-13.85-8.78-12.26-34.01-21.36-59.78-21.36-16.79 0-41.07 3.62-61.83 21-45.43 38-40.71 60-37.29 76 2 9.38 3.33 15.54-4.91 23.24-13.51 12.61-9.84 25-6.86 35 1.49 5.06 2.93 9.88 1.84 13.9a22.52 22.52 0 0 1 -3 5.71 42.36 42.36 0 0 0 -2.73 4.67c-5.51 11.47-11.52 40.12-4.77 52.44a3.69 3.69 0 0 0 3.23 1.93h95.94l-.85 7.3a2.36 2.36 0 0 1 -1.88 2s-23 4.12-24.48 4.37c0 0-37.45 7.3-40.57 8-8.94 2.14-17.78 12.67-20.76 23.29l-54.28 195.36c-.1.25-.2.64-9.63 71l-9.53 9.28a22.61 22.61 0 0 0 3.57 35.21c-1.54 11.72-3.28 24.58-5.16 38.73a3.68 3.68 0 0 0 .79 2.89c-6 11.27-9.73 37-11.87 58.44-1.69 7.55.4 16 5.91 23.69 5.76 8 14.55 15.44 24.33 17.83 7.35 1.78 11.87-1 15.94-7 4.13-6.2 6.81-13.35 9.14-20.36 1.19-3.67 6.21-19.56 5.51-20.35a48.74 48.74 0 0 0 4.57 4.51c2.63 2.19 12.76 5.42 16.44 2.83 2.58-1.78 5.21-4.07 5.41-7.34.15-3-1.79-5.22-3.52-6.81-4.47-4.07-8.45-16.93-9.64-22.54-.74-3.43-4.27-10.93-7.89-16.84a3.57 3.57 0 0 0 2.13-2.73l6-34.51 17.08 2.48a191.66 191.66 0 0 0 -.89 26.12l7.7 231a3.69 3.69 0 0 0 3.72 3.58h7.9l5.16 262.19c-.05.2-1.74 7.5-2.53 11.07-3.48 16-7.1 32.68-18.72 39.68a50.38 50.38 0 0 1 -10.58 4.17c-6.8 2.14-14.55 4.52-19.17 11.82-5.11 8-4.07 18.13-1.54 28.16h-51.1a3.72 3.72 0 0 0 0 7.44h53.24a13.52 13.52 0 0 0 3.32 5.32c2.79 2.53 6.41 3 8.55 3.23a164.52 164.52 0 0 0 19.76 1.14 171.63 171.63 0 0 0 30.59-2.78 39.09 39.09 0 0 0 16.24-6.91c.3-.24.59.3.89 0h126.11c.25.25.45-.19.7 0a38.32 38.32 0 0 0 16.19 6.71 166.73 166.73 0 0 0 30.63 2.83 177.08 177.08 0 0 0 19.77-1.14c2.13-.3 5.71-.7 8.49-3.28a13 13 0 0 0 3.28-5.12h502.09c2.53 1.84 5.46 2.19 8 2.39 4.17.3 8.44.49 12.66.49a166.35 166.35 0 0 0 30.59-2.88h429.49a14.64 14.64 0 0 0 .45 3.73 3.7 3.7 0 0 0 3.67 3.23h.15l195.9-4a3.71 3.71 0 0 0 3.48-2.93h19.56a3.72 3.72 0 1 0 0-7.44h-18.47c1.24-12.12 2-36.75-8.54-55.17a20.62 20.62 0 0 0 -6.41-7.25l-.64-6.11 5.36-.15a3.69 3.69 0 0 0 3.63-3.68l4.12-561.43a3.7 3.7 0 0 0 3.28-3.67v-22.84c8.84-16.34 21.25-47.13 20.36-68.63 0 0 10.37-5 10.52-5.07 26.11-17.61 27.99-32.7 22.24-59.91zm-419.46 648.38q14.16 13.77 28.36 27.56a10 10 0 0 1 2.43 3.13c.94 2.38-1.09 5.51-3.77 4.81a7.33 7.33 0 0 1 -2.89-1.68l-26.92-21.73c.61-3.8 2.69-11.79 2.79-12.09zm-60.73 21.8c15.39-6.51 17.63-51.4 15-57.7 14.35 1.78 29.94 12.26 36.3 24.92.44 1 2.63 3.93 2.78 4.37.39 1.49-.15 3.38-.75 5.42-2.68 9.33-5.76 23.34-1.69 37.49a104.27 104.27 0 0 0 5.62 13.85c.79 1.69 1.58 3.33 2.33 5.07a279.87 279.87 0 0 1 -13 25.77c-1.64 2.78 2.63 5.26 4.32 2.53 3.53-6.15 7.15-13.16 11.17-21.85a25.73 25.73 0 0 1 1.44 9.59c-.25 5.11-2.68 10-5 14.1a170.75 170.75 0 0 1 -30.79 40.22c-1.34 1.29-2.63 2.44-3.92 2.64l-6.26-2.14c6.85-7.5 12.07-13.36 16.68-18.92 2.09-2.48-1.78-5.66-3.82-3.18-4.77 5.76-10.23 11.87-17.43 19.77-7.35-4-13.66-8.79-15.64-15.45-1.84-6.16.5-11.87 3.23-18.52 1.68-4.17 3.47-8.54 4.22-13.21a39.17 39.17 0 0 0 -.4-11.62 69.71 69.71 0 0 1 26-2.38 2.52 2.52 0 0 0 2.73-2.78l-2.78-23.29a2.47 2.47 0 0 0 -2.43-2.19c-9.49 0-21-.15-31.14 4-2.23-6-4.67-12-6.95-17.38.75 1.71 5.12 3 10.18.87zm-1.54 21.15c8.49-3.52 18.18-3.77 27.21-3.67l2.19 18.07a76.78 76.78 0 0 0 -24.43 2.63 157.43 157.43 0 0 0 -4.97-17.03zm-407.74-968.32c2.14 3.42 1.59 9.23-1.44 16.38l-.2.5c-1.74 6.36-5.11 13.06-7.89 15.24.54-2.88.89-5.81 1.19-8.83v-.35l4.91-25.77a6.61 6.61 0 0 1 3.43 2.83zm-138.4-89.34c1.35-1.93 4.13-5.16 7.85-5.16a3.73 3.73 0 0 0 0-7.45 14.83 14.83 0 0 0 -5.26 1 3 3 0 0 0 -.4-1q-2.54-4.39-.45-7.9c1.89-3.08 6.36-5.16 10.23-5a6 6 0 0 1 5.41 3.23 4.18 4.18 0 0 0 4.77 2.23 3.61 3.61 0 0 0 3.48-2.23c2.58-6 9.14-9.94 16.39-9.94a18.55 18.55 0 0 1 13.4 5.47c6 6.2 15.4 5.66 23.69 5.16 2-.1 4-.2 5.81-.2h3.08c21.4 0 43.2 30.74 43.2 52.59l-3 51.74-.89 4.82c-3.33-22.5-10.13-54.28-22.8-67.14a12.37 12.37 0 0 0 -10.32-3.67 12.57 12.57 0 0 0 -9.39 5.91 32.58 32.58 0 0 1 -6.6 7.69c-7.55 5.32-18 5.71-29.45 1.34 2.38-2.33 3.82-5 3.82-7.64a3.73 3.73 0 1 0 -7.45 0c0 .84-1.39 2.48-4 4.22a35.61 35.61 0 0 1 -4.47 2.53 46.06 46.06 0 0 1 -10.48 3.2c-5.95 1-19.06 2.08-26.46-7.65a24.6 24.6 0 0 1 -3.33-6.11c-.15-.39-.25-.79-.4-1.19v-.05a21.28 21.28 0 0 1 0-9.33 26.58 26.58 0 0 1 4.02-9.47zm-34.76 102.59c-2.68-11.91-2.13-16.13 2.29-17.82l7.4 31.63v.15c.2 1.39.39 2.73.64 4.07-7.74-4.47-10.23-17.23-10.33-18.03zm11.13-12.61-1-4.32-.79-3.28-.15-2-4-48.12c0-18.08 13-40.67 24.23-43.15.35.69.7 1.34 1.09 2a2.09 2.09 0 0 0 .3.4 2.52 2.52 0 0 0 .75.74 5.68 5.68 0 0 0 -.75.8 18.89 18.89 0 0 0 -2.18 2.68c-5.47 7.9-7.4 19.22-4.52 26.92a25.74 25.74 0 0 0 1.29 3c-10.1 10.35-12.78 34.98-14.27 64.33zm113.25 116.6c0 14.2-22.8 28.15-33.37 33.22-10.78-5.07-34.07-19.07-34.07-33.22v-20.78a70.44 70.44 0 0 0 30 7.2h1.25a69.94 69.94 0 0 0 36.19-9.86zm-37.25-21.06c-35.06-.54-64.45-29.84-70-69.62.44-4.71.69-10.72 1-17.58.94-20.9 2.48-54.57 11.47-66.24 5.61 6.46 13.9 9.88 23.88 9.88a49.36 49.36 0 0 0 8.7-.79 50.39 50.39 0 0 0 14-4.67c15.49 7.35 30.29 7.3 41.07-.3a40.18 40.18 0 0 0 8.54-9.78 5.08 5.08 0 0 1 3.87-2.48 5 5 0 0 1 4.22 1.49c15.3 15.54 22 67.23 23.44 86.4-4.12 43.97-32.94 74.54-70.17 73.69zm-197.17-346.31a15.12 15.12 0 0 1 -11.72-24.41l59.54-75.8a22.59 22.59 0 0 0 3.83-20.66l-28.71-92a14.85 14.85 0 0 1 2.24-13.41 15.14 15.14 0 0 1 12.12-6.26 16.34 16.34 0 0 1 5.31.95l90.48 33.18a22.82 22.82 0 0 0 20.8-2.73l78.66-55.72a15.42 15.42 0 0 1 19.71 1.89 15 15 0 0 1 4.13 11l-3.63 96.29a22.57 22.57 0 0 0 9.09 19l77.27 57.57a15.14 15.14 0 0 1 -4.92 26.7l-92.71 26.31a22.65 22.65 0 0 0 -15.25 14.5l-30.88 91.28a15.1 15.1 0 0 1 -26.87 3.57l-53.68-80.05a22.36 22.36 0 0 0 -11.39-8.77c.3-1.44.6-2.88.84-4.32.3-1.79.85-4.67-.59-7.4-2.19-4.12-7.4-5.11-11.17-3.62-3.23 1.24-5.42 3.77-7.16 6-2 2.53-3.92 5.16-5.66 7.89l-10.38-.15-51.54-.64zm21.5 7.7 45.94.59 2 7.15c-8 1.94-13.55 5.71-19.81 10.08-1.94 1.34-4.62 3.48-2.58 6.31s4.62 1.34 6.8-.2a66.93 66.93 0 0 1 12.32-7.25c2.83-1.19 10-1 11.32-4.07a95.8 95.8 0 0 1 6-11.47 1.52 1.52 0 0 1 .25-.35c1.49-2.53 3.17-5 4.91-7.4 1.24-1.79 3.83-6.21 6.36-6.5 4.22-.5-.25 14.55-.65 16.73-.49 2.63-1 5.51-1.44 8.69a61.62 61.62 0 0 0 .95 24.28c1.83 7-2.24 13.71-6.26 18.23h-42.9s-22.96-53.38-23.21-54.82zm-166.5 354.26c2.73 7.1 2 15.09-2 22.44a37.72 37.72 0 0 1 -19.92 16.88c-15.14 5.71-31.53 1.84-39.47-9.13 13.75-.75 31.23-7.2 43.84-17.63 7.15-6.21 11.77-13 13.56-18.08-.03 0 3.25 3.58 3.99 5.52zm24.58-149.23a30.9 30.9 0 0 1 -2.33 6.91c-1.54 3.82-3.18 7.74-3 12 .5 9.74 6.5 17.93 7.5 27.51.84 8.2-4.22 15.79-7.35 23-4.12 9.59.84 19.87 5.61 29.8a107 107 0 0 1 4.67 10.48c-10.58.15-65.25-.3-66.59-.25l-.2-1.34c.1 0 10.28-5 11.17-5.51a68.91 68.91 0 0 0 10.43-8.1 85.79 85.79 0 0 0 17-22.74 116.34 116.34 0 0 0 13-51.79 100.51 100.51 0 0 0 -7.89-40.43l7.89-.19c6.42 5.76 11.09 13.75 10.09 20.65zm-130.9 29.75c-2.13-4.42-4-8.29-3-12a28.22 28.22 0 0 1 2.38-5.51c4.12-9.19 2.63-21.11-1.34-29.65l107-2.83a95.55 95.55 0 0 1 8.38 40.1 111.69 111.69 0 0 1 -3.27 25.17c-5.12 19.47-15.25 39.08-32.48 50.46l-2.83 1.78c-19.07 11-41.86 7.2-59.19-5.26-4.27-3-7.55-6.85-10.83-10.93-2.83-3.47-5.86-7-7.94-11-2.19-4.22.79-9.34 2.78-13.06s4.27-8 4.47-12.91c.19-5.25-2.09-10.09-4.13-14.36zm-25.32 84.57c1.54-3.23 3.43-16.09 3.38-18-.3-8.59-4.37-14.8-6.76-22.64a18 18 0 0 1 -.49-6.16 36.57 36.57 0 0 1 3-12.42c1.29-2.93-3.23-5-4.52-2a40.47 40.47 0 0 0 -3.43 14.05 23.18 23.18 0 0 0 .64 7.9c1.84 6.5 5.62 11.67 6.36 18.62.4 3.62-.1 7.25-.4 10.87-.34 4.27-3.22 9.74-3.22 9.74h-31.06c-.79-3-.3-7.7.89-11.72a71.2 71.2 0 0 1 5.07-12c2.88-5.81 5.81-11.87 6.75-18.42 1.69-12.12-3.42-23.34-.54-35.56 1.49-6.4 3.92-12.51 5.76-18.82 3.08-10.33 3.67-20.11 3.72-30.94.05-4.86-4.91-3.87-4.77.2a104.5 104.5 0 0 1 -.79 19.27c-1.34 8.69-4.77 16-7.4 24.43a53.63 53.63 0 0 0 -1.74 20.86c.75 6.85 1.84 12.81.85 19.86-.85 5.81-3.63 11.47-6.31 17-3.87 8-7.95 16.64-6.36 25.88 0 .09-18.72 0-18.72 0-3.47-10.28.75-33.27 5.76-43.75 1.94-4 5-7.3 6.21-11.67 2.33-8.69-2.33-17-3.87-25.43-1.49-7.89.89-14.45 6.75-19.91 11.32-10.58 9.19-20.56 7.15-30.24-3.23-15-7.2-33.62 34.81-68.78 19-15.89 41.47-19.22 57-19.22 26.76 0 48.71 9.74 54.42 19.17a3.81 3.81 0 0 0 2.78 1.79c.05 0 8.2 1.09 19.37 12.12 10.38 10.18 16.34 25.52 17.08 43.5l-25 .64a59.8 59.8 0 0 0 -16.24-44.34c-2.63-2.78-6.76-6.51-12.12-6.8-3.18-.2-3.47 4.86-.25 5 2.73.15 5.37 2 8.79 5.26 8.15 7.8 15.15 25.18 14.7 41.07l-100.46 2.63a3.78 3.78 0 0 0 -2.83 6.06 28.71 28.71 0 0 1 5.76 17.63c.05 6.51-3.17 11-4.66 17-1.54 6.26 1.14 12 3.57 17 1.79 3.82 3.53 7.4 3.38 10.92-.3 10.18-12.57 18.77-6.46 29.65a94.48 94.48 0 0 0 8.94 12.46c2 2.58 4.12 5.12 6.21 7.65.64.79 4.91 5.91 4.91 5.91l-1.83 14.75zm32 24.08a9.79 9.79 0 0 0 7.94-8.54l3.08-27.46c9.69 5.66 20.16 9.13 30.89 9.28a58.11 58.11 0 0 0 13.46-1.44l2.88 20.41a8.83 8.83 0 0 0 7.4 7.5c.39.05 23.24 4.27 23.24 4.27-7.8 10.63-20.31 19.12-25.23 21.6-9.73 5-20.51 8.4-31.53 8.05-33.07-1.09-49.13-22.21-51.67-26.72-1.74-3.08-1.54-2.08-1.74-2.88zm-31 10.78a23.44 23.44 0 0 1 2.58-4.92 18.43 18.43 0 0 0 2.69 5.21c4.37 6.61 21.15 28.06 56.16 29.95-7.95 11-24.28 14.84-39.43 9.13a37.78 37.78 0 0 1 -20-16.88c-3.94-7.35-4.69-15.34-2.01-22.49zm-103.3 214.91 54.28-195.35a27.89 27.89 0 0 1 16.08-18.22l26.47-5.17c-.2.4-.35.8-.5 1.19-3.48 9.19-2.63 19.42 2.48 28.71a45.09 45.09 0 0 0 23.84 20.26 47.85 47.85 0 0 0 16.78 3.12c9.69 0 18.92-3.12 25.73-8.93v39.52a2.49 2.49 0 0 0 2.48 2.49 2.46 2.46 0 0 0 2.48-2.49v-39.52c10.68 10.37 28.21 12 44.5 5.81a45.1 45.1 0 0 0 23.83-20.26c5.07-9.29 6-19.52 2.43-28.76-.1-.24 24.83 4.42 24.83 4.42a13.44 13.44 0 0 1 9 6.51l84.57 158.11c5.16 9.53 7.05 20.71 4.27 31.18a40.59 40.59 0 0 1 -22.19 26.52l-50.16 23.63-7.2 3.37-73.55 34.52-12.81-49.89 60.19-27.41 8.19-3.77 45.88-20.91a3.74 3.74 0 0 0 -3.12-6.8l-6.42 2.89-25.52-38.29 4.07-23.84c1.93-11.42-5.36-23-16.79-25.62 0-.35-1.68-9.63-1.44-15.14a32.94 32.94 0 0 1 4.77-15.94c2.48-4.08-3.77-8-6.36-3.88a40.8 40.8 0 0 0 -5.86 19.57 83 83 0 0 0 1.25 14.75 21.85 21.85 0 0 0 -8.3 2.48l-78.06 41v-37.49a2.49 2.49 0 0 0 -2.48-2.49 2.52 2.52 0 0 0 -2.48 2.49v40.17l-2.28 1.23a15.39 15.39 0 0 1 -14.1 0l-69.42-36.54a.18.18 0 0 0 .05-.15c.34-1.69.74-3.37 1-5.06a111.57 111.57 0 0 0 .94-37 3.75 3.75 0 1 0 -7.2 1.94c2.63 6.7-.69 32.62-1.69 36.7l-9-4.77a22.67 22.67 0 0 0 -27.81 5.51 22.06 22.06 0 0 0 -4.92 18.27l16.29 95a14.78 14.78 0 0 1 -2.09 10.58c-6.55-.4-15.84-2.63-21.65-4.47a3.72 3.72 0 0 0 -2.23 7.1 125.4 125.4 0 0 0 17.53 4.17l-46.78 45.59c4.48-32.78 8.06-59.49 8.2-60.64zm155.23 28.31c-3.47-2.24-7.44-4.27-10.32-7.35-1.59-1.74-3.58-5.56-3.38-8 .15-1.59.94-2.89 2.28-1.54 5.07 4.47 14.9 7 21.6 8.24a36.66 36.66 0 0 0 7 1.09c3.77.4 14.15 4.42 19.51 7.55 0 0 9.69 38.29 9.69 38.53-1.49 2.34-8.2 5.71-20.41 9.64-4.77 1.49-33 8.69-37.94 9.73-7.25 1.54-13.41 1-20-2.68-9.08-5.17-16.73-14.6-18.52-22.89-1.09-6 35.21-22.9 49.21-25.53a3.75 3.75 0 0 0 1.28-6.79zm112.33-47.62 7.45-43.55 20.51 30.79zm-239.75 198.93c.2.79 4.32 19.56 11.92 26.46 1.14 1 .3 1.44-.69 2.24-1.94.1-6.76-1.24-7.9-2.14-2.28-1.88-6.95-7.49-8.59-9.48a3.75 3.75 0 0 0 -6.61 2c-1.09 13.56-13.35 49.61-19.06 49.61-8.25-.89-18.08-7.25-23.89-15.39-6.7-9.39-4.57-20-3.18-30.84a294.2 294.2 0 0 1 5.17-30.14c1.14-4.72 2.18-11.12 5.46-15l37.49 3.83c3.43 4.35 9.09 15.17 9.88 18.85zm-5.16-25.85-42.71-4.32c1.34-9.83 2.83-21.1 4.37-33 .6.15 43.7 6.41 43.7 6.41zm-35.41-44.29a15.06 15.06 0 0 1 -12.16-10.33 14.79 14.79 0 0 1 3.82-15.49l69-67.24a9.52 9.52 0 0 0 .7-.74 22.92 22.92 0 0 0 5.81-19.27l-16.29-95a14.84 14.84 0 0 1 3.24-12.24 15.4 15.4 0 0 1 11.62-5.46 15 15 0 0 1 7.05 1.78l85.33 44.84a22.75 22.75 0 0 0 19.82.5l5-2.48 81.49-42.86c10.83-5.66 24.08 3.78 22 15.89l-14.25 83-67.59 30.84a3.81 3.81 0 0 0 -2.18 3.57c-6.11-2.78-13.06-5.85-16.34-5.46-2.09.25-21.3-4.71-24.43-7.5-5.66-5.06-10.83-2.53-14.2 3.43-2.69 4.92 1.09 12.61 4.52 16.34.64.69 4.76 4.77 5.56 4.52-15.94 5.26-49.66 18.62-47.33 31.93 2.34 10.52 11.28 21.75 22.25 27.9 5.56 3.13 12 5.17 18.47 4.82 7.15-.45 18.52-4.12 25.38-5.91 14.65-3.72 27.71-5.41 40.37-14.2l.55 2.13a3.81 3.81 0 0 0 5.21 2.44l80.15-37.59 43.1 42a15.07 15.07 0 0 1 3.48 16.48 15.66 15.66 0 0 1 -12.47 9.44l-94.79 13.75a22.51 22.51 0 0 0 -17 12.32l-42.77 86.44a15.14 15.14 0 0 1 -27.12 0l-42.65-86.45a22.51 22.51 0 0 0 -17-12.32zm79.31 270.19-7.55-227.34a180.38 180.38 0 0 1 .84-24.82l21.75 3.17a15.25 15.25 0 0 1 11.37 8.3l42.66 86.4a22.54 22.54 0 0 0 40.42 0l42.66-86.4a15.33 15.33 0 0 1 11.42-8.3l45.39-6.6c.49 4.07.84 8.24 1 12.36.15 2.54.25 5.17.25 7.65v.1c0 2.43 0 4.82-.1 7.3l-7.65 228.18zm190.81 7.42-5.16 267.5c-.1 4.22-1.3 7.65-3.38 10a11.8 11.8 0 0 1 -8.94 3.58c-4.12 0-10.92-1.49-20-8.74-8.1-6.51-15.45-21-16-31.53l-3.73-71a830.62 830.62 0 0 1 -10.23-135.52l.2-34.31zm-111.58 34.51a837.41 837.41 0 0 1 -10.28 135.86l-3.67 70.57c-.55 10.62-7.9 25-16 31.53-9 7.25-15.85 8.79-20 8.79-7.49 0-12.11-5.07-12.26-13.56l-5.21-267.7h67.19zm-34.51 322.58a94.56 94.56 0 0 0 6.06-12 82.18 82.18 0 0 1 5.81-11.57 37.72 37.72 0 0 1 8.09-8.94s1.59 31.68 1.84 32.48zm35.35-2.88c-.19 3.92-6.25 4-6.55 0l-1.59-34.67c2.83-1.68 9.78-5 10-5.06 0 0-1.84 39.58-1.84 39.73zm4.52-60.34c-16.14 3.92-30.93 17.53-36.84 23.54-.95 1-1.69 1.74-2.14 2.23-2.33 2.44 1.54 5.71 3.68 3.38.44-.5 1.19-1.29 2.18-2.33 5.51-5.52 18.42-17.33 32.43-21.51-.1.8-.2 1.54-.35 2.34a11.84 11.84 0 0 1 -1.09 3.82c-.75 1.14-2.39 1.84-4.17 2.63-8.4 3.63-20.41 9.84-28 21.56a83.18 83.18 0 0 0 -6.36 12.56c-3.08 6.9-6 13.46-11 17.23-3.83 2.88-8.79 4-13.11 4.77a161.58 161.58 0 0 1 -48.01 1.59c-1.79-.2-3.43-.45-4.37-1.29-1.09-1-1.74-3.28-2.23-5.12-.35-1.24-.7-2.43-1-3.67l2.09.54a82.41 82.41 0 0 0 20.8 2.53c17.68 0 34.32-4.76 44.2-8.34a2.48 2.48 0 1 0 -1.64-4.67c-13.26 4.77-38.93 11.82-62.12 5.67l-4.52-1.2c-1.14-6.55-1.14-12.66 1.79-17.23 3.13-5 8.69-6.7 15-8.69a52.36 52.36 0 0 0 12.22-4.91c13-7.8 17.43-23.34 21-39.23 3.37 5.41 9.13 8.64 16.28 8.64 7.6 0 16.14-3.63 24.63-10.43 8.69-6.95 16.34-21 18.33-32.92a36.12 36.12 0 0 1 8.84 12.56c3.95 9.53 5.14 21.35 3.5 35.95zm30.74 63.22c-.1.24-.15.49-.2 0h-28a10.88 10.88 0 0 0 .44-2.54s2.09-46.38 2-46.72a19.75 19.75 0 0 0 1.39-5.12c3.23-19.61 2.28-35.21-3-47.67a41.36 41.36 0 0 0 -15-18.42l3.43-65.45a839.36 839.36 0 0 0 10.33-136.71l-.25-34.46h29.74l-.19 34.26a834.61 834.61 0 0 0 10.28 136.31l3.42 65.8a41.75 41.75 0 0 0 -14.95 18.47c-5.26 12.51-6.25 28.11-3 47.72a19.51 19.51 0 0 0 1.39 5.12c-.15.34 2 49.41 2 49.41h.2c0-.2.15-.4.25 0zm13.76-3c-.2 3.92-6.41 4-6.51 0l-1.89-39.73c.25.1 7.25 3.33 10 5 .05-.01-1.58 34.6-1.58 34.7zm6.95 3a9.49 9.49 0 0 0 .49-2.69l1.39-30a38.63 38.63 0 0 1 8.15 9 81.49 81.49 0 0 1 5.81 11.52 82.17 82.17 0 0 0 6.16 12.17zm102.77-3.41c-3.18 0-24-.15-27.06-.1-13.66.1-23.54.15-31.74-4.42-7.74-4.37-11.42-11.77-15.34-19.56-2.78-5.52-5.66-11.23-10.08-16.29-3.23-3.73-10.48-8.64-21.45-14.55-2.83-1.54-5.17 2.83-2.34 4.42 13 7 18.08 11.12 20.07 13.35 4 4.62 6.7 10 9.33 15.3 4.12 8.14 8.34 16.54 17.38 21.65 9.34 5.26 20.31 5.17 34.22 5.07 3.07 0 22.69.14 25.72.14a30.39 30.39 0 0 1 -1.64 4.62c-1 1.79-3.18 2-5 2.24a162 162 0 0 1 -48.11-1.59c-4.37-.8-9.34-1.89-13.11-4.77-5-3.82-7.95-10.33-11-17.23a94.17 94.17 0 0 0 -6.35-12.61c-7.5-11.67-19.5-17.9-28.02-21.57-3.33-1.54-4.57-2.79-5.17-6.46-3-18.18-2.23-32.43 2.49-43.55a34.44 34.44 0 0 1 8.79-12.56c1.93 11.91 9.63 26 18.37 32.92 8.49 6.8 17 10.38 24.58 10.38 7.1 0 12.81-3.18 16.24-8.49 3.57 15.84 8.09 31.38 21.05 39.13 3.88 2.33 8.1 3.62 12.17 4.91 6.41 2 11.92 3.73 15.1 8.69 3.42 5.42 2.78 13.01.9 20.93zm622.66-8.15h-.15a3.5 3.5 0 0 1 -3.38-3.32l-3.38-37.15c2.84-2 10-5.9 10.24-6v42.85a3.52 3.52 0 0 1 -3.29 3.6zm-51.94-343c3 5.31 16.38 22.94 39.87 52.49a902.64 902.64 0 0 1 -5.06 91l-.3 75.58c0 11.42-6.85 27.26-15 34.66-7.25 6.65-14.65 10.33-20.76 10.33-7.35 0-12.06-5.31-12.66-14.15l-19.81-307.32-.8-16.88c1 0 25.28 2.19 25.68 2.24l2.58 48.91c.54 8.79 2.54 16.54 6.3 23.14zm185.32-532.33a35.5 35.5 0 0 1 .84 24.48l-23.78 1.19a43.39 43.39 0 0 0 -7.7-27.41l18-17.38c.64.89 1.29 1.79 2 2.63 4.32 5.56 8.39 10.83 10.68 16.49zm-5-363.84a9.58 9.58 0 0 1 9.19 9.43l4.62 55.37-37.64 14.7s0-.15-.1-.2c-1.84-4.07-3.18-16-1.59-35.66a6 6 0 0 0 -5.41-6.3l-24-1.79a4.69 4.69 0 0 1 -4.22-5l2-19.72a14.08 14.08 0 0 1 14-12.76zm-185.5 272.07a60.56 60.56 0 0 0 15.64 2c11.77 0 24.58-3.13 36.9-8.49.05 0 .15 0 .2-.1.15 2 .35 3.92.59 5.76 1.84 10.32 6 23.63 7.2 27.51a5.63 5.63 0 0 1 .2 3.82c-2.73 7.1-17 17.28-29.1 21.1-20.26 6.31-33.76 6.41-38.13.3-3.38-4.67 6.45-51.89 6.45-51.89zm-35-64.6c-1-14.26-.49-30 4.87-43.41 4.77-11.91 8.94-22.19 12.86-30.93a48.07 48.07 0 0 0 5.61 5c10.73 8.25 22.84 10.33 37.1 11.67 5.21.5 10.13.95 14.45 1.79 32.47 6.46 40.57 39.88 40.91 41.37a3.72 3.72 0 0 0 6.66 1.29c3.67-5.22 8.89-7.95 14.4-7.4 8.94.84 12.36 9.18 7 16.19a94.4 94.4 0 0 1 -10.4 11.43 113.93 113.93 0 0 0 -10.77 11.62c-7.55 9.93-15.25 18.52-26.77 27.16-14.55 8.24-30.74 13.36-45.24 13.36-33.41 0-48.65-29.6-50.69-59.14zm95.34 62.85c-.35-2.38-.35-7.94-.35-8.29 13.65-7.15 24.33-19.27 33.57-31.43 6.35-8.4 15-14.7 21.35-23.14 8.59-11.43 2.28-26.67-12.37-28.06a21.85 21.85 0 0 0 -16.53 5.36c-4.27-11.57-16.29-34.91-44.69-40.52-4.72-.89-9.79-1.39-15.2-1.89-8.24-.74-17.38-1.29-25.27-4.76-6.71-3-16.79-10.63-18.53-18.18-1.09-4.91.05-9.78 3.43-14.45 6.9-9.33 20.81-15.24 30.54-16 3.72 13.86 18.67 21.06 29.79 26.42 1.44.7 3.48 1.49 4.57-.15 1.34-2-.84-3.57-2.43-4.32-10.58-5.11-24.88-12.07-27.41-24.53l1.09-1.24c4.22-4.77 13-14.65 38-16 29.5-1.64 55.81 10.28 74 33.47 12.91 16.49 13.8 36.65 14.7 56.16a198.18 198.18 0 0 1 -1.54 33.37c-1.54 12.52-3.13 25.48-.55 38.69 1.34 6.9 11.72 17.47 11.82 17.57l-67.83 57.71a97.53 97.53 0 0 0 -22.5-8.69c-.15-.4-2.83-7.1-3.52-9.34a114.15 114.15 0 0 1 -4.14-17.76zm93.55-41c-2.33-12.07-.89-23.84.65-36.3 1.14-9.29 2.33-18.92 1.83-28.71l-.29-6c-.9-20.65-1.84-42-16.24-60.38-19.77-25.23-48.32-38.14-80.35-36.35-28.1 1.59-38.63 13.46-43.15 18.57-.5.55-.84 1-1.19 1.34-11.62 1.15-27.22 7.95-35.41 19.07-4.67 6.36-6.26 13.46-4.67 20.51a18.72 18.72 0 0 0 2.39 5.56c-4.62 9.88-9.29 21.45-14.5 34.61-2.54 6.36-4.17 13.66-5.12 22.85a147 147 0 0 0 -.3 23.83c2.14 31 14.55 52.59 35.31 61.53l-4.27 22.24-8.84-.59-80.34-106.18 12.11-126.6c.15-1.49-3-4.17-3-4.17 5.56-1.84 10.78-5.06 14.15-10.72 5.67-9.44 15.75-15.89 23.89-21.11l.05-.05 86.16-21.55a15.79 15.79 0 0 1 14.1 3.43l74.24 65.5a22.62 22.62 0 0 0 15.14 5.76 23.31 23.31 0 0 0 15.89-6.16 110.09 110.09 0 0 0 2.24 13.11 3.77 3.77 0 0 0 -2.19 4.37l35.46 136.71-23.59 20.06c-.23-.18-9.21-9.42-10.16-14.18zm-197.74-324a23 23 0 0 0 -1.58-21.4s-52.44-83.68-52.54-83.88c-6.76-10.72 2.23-25.12 14.75-23.83l98.47 9.33a23 23 0 0 0 19.86-8.19l63.56-75.83a15.28 15.28 0 0 1 11.87-5.61 15.63 15.63 0 0 1 15.34 12.22l21.58 96.61a23.25 23.25 0 0 0 13.9 16.39l91.77 37a15.62 15.62 0 0 1 2.13 27.91l-85.21 50.35a23.17 23.17 0 0 0 -11.27 18.28l-2.53 36.55c-4.67-.15-13.81-.6-13.81-.6a21.52 21.52 0 0 0 -21.45 19.47s-2 19.61-2 19.71a12.3 12.3 0 0 0 11.08 13.21l22.44 1.69c-.2 2.48-.54 8.69-.54 8.69a15.6 15.6 0 0 1 -15.7 14.55 15.23 15.23 0 0 1 -10.23-3.93s-74.09-65.34-74.19-65.44c-5.46-4.82-13.75-7.06-20.85-5.07l-96 24c-10.92 2.73-21.6-7.31-19-18.43.13-1.01 40.15-93.75 40.15-93.75zm-69.81 52.64a22.12 22.12 0 0 1 20.6-13.36c3.33 0 16.09 5.11 16.09 5.11a20.88 20.88 0 0 1 4.57 2.83l-16.59 38.34c-11.91-6.11-16.28-7.5-18.52-6.36a2.5 2.5 0 0 0 1.89 4.62c2 0 8.74 3.28 14.8 6.31v.05a22.44 22.44 0 0 0 2.68 19.41 23 23 0 0 0 17.43 10.41 54.43 54.43 0 0 0 -13 14.3c-3.87 6.51-11.72 8.54-18.62 9l-34.91-17.93zm-59.88 755.36c3.37-5.71 6.55-11.52 9.83-17.28 7.65-13.56 15-27.31 21.45-41.47 13.61-29.79 26.62-59.19 46.38-85.85 8.3-11.23 17.48-20.51 27.27-30.3 6.25-6.35 6.25-17.43 7-25.77 1.19-12.26 3.72-74 3.72-75.08 6.16 2.28 13.41 3 20.56 3 5.86 0 11.72-.45 16.78-.84 3.08-.25 2.88-5.22-.39-5-11.82.94-27.81 2.18-38.09-3.08-4.07-2.09-7.65-11.62-9.29-15.54-7.45-17.38-7.25-38.14 1.49-55.07 6.71-12.91 16.19-24 25.33-35.21 3-3.67-2.83-8.44-5.81-4.62-3.33 4.17-6.56 8.44-9.88 12.61-1.64 2-17.29 19.82-16.29 22.25-2.68-3.87-88.34-128.51-88.54-128.66-8.59-8.44-6-28-4.77-37.44.2-1.29 26.52-152.45 26.52-152.45l44.09 22.64-11.66 121.91c-5.27-.59-17-.79-27.12 5-3.23 1.83-1.93 9.23 3.73 6.45 10.57-5.21 24.53-3.77 24.92-3.77 15 19.86 58.15 76.92 64.76 85.66 3.28 4.37 15.39 23.09 19.31 23.09l9.39.64-.74 3.88s-4.13 18.87 1 25.27c3.92 4.87 10 7.65 18.87 7.65 7.3 0 16.53-1.74 27.56-5.16 12.61-4 28.7-14.65 33.37-24.58a3.28 3.28 0 0 0 1.09-1.1c2.09.6 4.17 1.24 6.21 2-10.68 18.82-32.13 32.18-55.67 34.46-10.33 1-35.16.5-41.66-7.6-1.64-2-1.94-4.47-1-7.49s-3.68-4.62-4.72-1.54c-1.49 4.61-.85 8.79 1.89 12.16 6.7 8.34 24.87 9.78 36.25 9.78 5.61 0 9.58-.34 9.73-.34 25.37-2.49 48.51-17.13 59.84-37.64a93 93 0 0 1 8.93 4.32c3 1.69 6.21-.6 7.06-1.29l99.06-84.37a3.73 3.73 0 0 0 1.2-3.78s-35.16-135.71-35.21-135.81l46-19.17 53.53 155.43a31.68 31.68 0 0 1 -6.5 37.34l-131.58 127.11c-1.29 1.29-36 153.79-36 153.84-27.91 15.09-54.87 20.65-78.11 16.19a2.47 2.47 0 0 0 -2.88 2 2.52 2.52 0 0 0 1.94 2.93 91.51 91.51 0 0 0 17 1.54c20 0 41.71-6.11 64-18.08 0 0 20.51 25 22.39 27.61 2.39 3.18 4.72 6.41 6.91 9.64a404.52 404.52 0 0 1 23.24 37.89c6.2 11.47 11.22 23.39 16.73 35.15q4.92 11.7 9 23.69c6 17.63 10.43 35.66 15 53.68 1.78 7.25 8 28.95 8 32.28-.1 1.39-22.1 15.69-29.4 19.81a325.24 325.24 0 0 1 -44.49 20.76c-11.92 4.42-25.37 6.11-37.89 7.55-10.87 1.34-21.85 2.08-32.82 2.43-17.88.6-35.71-.2-53.58-1.29a331.46 331.46 0 0 1 -39-4.62 98.64 98.64 0 0 1 -46.08-22c-8.44-6.9-17.18-14-32.82-18.62-14.35-4.22-29.25-5.91-43.4-11-8.49-3-18.72-8-22.65-16.74-1.36-3.46 16.27-24.22 19.71-29.99zm-8.84-94.9 2.53 50.9c-8.69-2.38-29.4-27.16-30.69-41 12.9-2.29 20.6-6.06 28.15-9.94zm-219.39-2.83c7.55 3.38 18 7.9 28 11.62a51.67 51.67 0 0 1 -28.65 36.45zm-7.89 558.06.24-19.07 74.54 1.39-.3 18.87zm98.12 8.94v7.3c-5.46 4.51-16 7-29.85 7a119.1 119.1 0 0 1 -15.39-1c-6.8-2-6.75-2.63-6.45-5.06a22.77 22.77 0 0 0 -.7-9.14zm-18.67-7.7.3-18.82 21.94.45-.69 18.72zm-18.23 75.88h-43.5c11.57-4 28.8-9 43.5-9.79zm46.48 0h-38.69l-.35-13.61a3.71 3.71 0 0 0 -3.72-3.72c-18.82 0-42.41 7.59-54.77 12.11-3.53 1.29-7.45 5.22-11.13 5.22h-63.92c-3.72-.4-5.16-11-5.16-11s74.83-.1 75.13-.2c16-6.9 35.21-10.87 55.42-11.52 3.28-.1 3-5.21-.15-5-14.45.44-35.9 2.88-56.71 11.72h-74.33l-.69-5.17c-.15-13.51 21.1-18.12 30.29-19.46a133.71 133.71 0 0 0 19.41-4 23.17 23.17 0 0 1 5.47 15.25c0 3.18 5 3.32 5 .1a28.41 28.41 0 0 0 -5.36-17c4.07-1.39 8.09-3.07 12.76-5.16a46.62 46.62 0 0 1 6.56 17.33c.49 3.18 5.36 2.38 4.91-.79a51.6 51.6 0 0 0 -6.9-18.62 8.42 8.42 0 0 0 .79-.35c1.59-.7 4.28-2.59 8.65-5.86a44 44 0 0 1 9.78 14.89c1.14 2.88 5.81 1.3 4.62-1.78a48.18 48.18 0 0 0 -10.33-16c2.83-2.09 6.3-4.57 9.43-6.71l13.91.25c1.39 2 1.83 4.92 1.44 8.44-1.59 14.75 19.81 14.26 29.29 14.26 14.95 0 26.07-2.54 33.13-7.6 1.68 2.93 5.16 10.92 5.86 27.36h-24.53a2.49 2.49 0 0 0 0 5h24.88c0 1.46-.05 18.5 0 21.58zm20.61 0h-13.47c0 .19 0 0-.05 0h.05c0-.05-.2-8.5 0-16.59.7-28.55-5.86-39.93-8.14-43a11.32 11.32 0 0 0 -1.09-2.59v-5.86h.69a3.55 3.55 0 0 0 3.78-3.57l14.5-392.25 3.67 123.6a3.73 3.73 0 0 0 7.45-.25l-6.58-219.18a4.25 4.25 0 0 0 -4.22-4.12 4.18 4.18 0 0 0 -4.32 4.07l-17 460.48-22.1-.45 6.41-463a2.49 2.49 0 0 0 -5-.1l-6.4 463-74.37-1.39 6.75-480.54a56.75 56.75 0 0 0 33.52-40.17 115.39 115.39 0 0 0 14.7 4.32 29.56 29.56 0 0 0 5.56.75c1.15.05 2.39.05 3.68.05 5.31 0 12-.25 20.56-.7 6.9-.4 14.3-.89 21.85-1.39 22.69-1.59 46.18-3.18 60.73-1.79a105.87 105.87 0 0 0 23.63-.44c1.89 15.54 25.13 44.79 37.55 46.87l.79 29.6c-2.93 5-21.55 33.37-22 34a5.65 5.65 0 0 0 -.49 4.57 27.66 27.66 0 0 0 7 10.38 47.45 47.45 0 0 0 10.18 7.25c.94.5 7.05 3.33 7.05 3.33l10.77 385.89h-69.62l-12.16-358.93a2.49 2.49 0 0 0 -5 .2l12.17 358.73h-9.69a2.45 2.45 0 0 0 -2.48 2.48 2.49 2.49 0 0 0 2.48 2.49h9.84l.64 18.27-26.61.4-7.2-241.69a3.69 3.69 0 0 0 -3.83-3.62 3.79 3.79 0 0 0 -3.62 3.87l7.3 245.31a3.6 3.6 0 0 0 1.83 3.08l-.1 9.73a10.8 10.8 0 0 0 -.59 1.54c-2.63 3.08-9.68 13.9-9 41.12.19 7.79-.01 16.1-.01 16.2zm68.81-57.7c.2 2.14.24 2.83-6.46 4.72a137 137 0 0 1 -15.39.89c-13.91 0-24.38-2.38-29.85-6.65l.05-9.43 53.53-.85a19.39 19.39 0 0 0 -1.88 11.32zm-22-18.37-.6-18.17h69.42l.5 17.08zm6.65 76c.05-.2.05-9.54.05-9.54 15.54.75 33.77 6 44.35 9.54zm131.69-9.89c-.39 2.64-2.58 9.54-5.31 9.89h-64c-3.67 0-7.3-4.23-10.82-5.47-10-3.47-35.26-11.62-55.27-11.62a3.76 3.76 0 0 0 -3.73 3.73l-.1 13.36h-38.53c0-3 .15-11.87 0-16.34-.55-22.74 4.67-32.48 6.65-35.36 7.06 4.72 18.13 7.1 32.88 7.1 9.38 0 30.64.8 29.25-13.8-.35-3.68.34-6.61 2-8.44 1.19-1.34 7-4.27 8.79-2.54 0 0 .15.1.2.15 3.28 1.89 11.27 7.85 11.27 8.15-4.27 3.67-6.06 8.14-7.55 13.5a4.64 4.64 0 0 0 -.24 2.14 2.37 2.37 0 0 0 3.87 1.24 4.18 4.18 0 0 0 1.14-2c.89-2.43 4.27-10.33 6.9-12.86.15.15 6.71 4.67 9.79 6.61a53 53 0 0 0 -5.66 13.8 2.54 2.54 0 0 0 1.83 3 2.51 2.51 0 0 0 .6.1 2.48 2.48 0 0 0 2.38-1.89 49.65 49.65 0 0 1 5.37-12.91c4.91 2 9.48 3.63 14 5a50.61 50.61 0 0 0 -2.93 11.22 2.43 2.43 0 0 0 2.13 2.78.74.74 0 0 0 .35.05 2.45 2.45 0 0 0 2.43-2.13 42.51 42.51 0 0 1 2.84-10.53 215.62 215.62 0 0 0 25.57 4.87c9.53 1.33 25.47 5.51 25.32 18zm31.84 9.89h.34c.1-.2.2-.4.35 0h-.35c-.15.14-.25.29-.34 0h-27.81s2.83-5.27 3.32-8.84l1.59-11.67c.15-13.81-11.12-23-31.73-25.92-17.68-2.49-29.54-5.07-45.63-12.12-1.15-.5-5.47-3.53-9.29-6.21-2.48-1.74-4.72-3.33-6.75-4.72l19.31-.29a3.5 3.5 0 0 0 2.64-1.15 3.58 3.58 0 0 0 1-2.68s-11.37-408.23-11.37-408.68c0 0 13.4 3.92 14.7 4.22 20.31 4.87 38.63 9.19 55.17 22.74 3.77 3.08 7.64 6.21 12.16 9.24.9.6 18.08 9.53 26.32 11.77 7.65 2.08 23.34 4.47 23.34 4.47a1.48 1.48 0 0 0 .5.1s20.35 320.12 20.35 320.27c-.75 3.67-1.34 7.5-1.94 11.32-2.83 17.43-5.71 35.41-17.38 43.45-3.08 2.14-6.75 3.53-10.63 5-6.85 2.58-14.65 5.51-19 13.46-5.42 9.86-2.64 24.35 1.14 36.27zm49.31-76.58a45.84 45.84 0 0 1 22 6.26 5 5 0 0 1 2.14 1.84 5.21 5.21 0 0 1 -.05 3 49.79 49.79 0 0 1 -5.66 15 47.51 47.51 0 0 0 -25.33-8.64 60.84 60.84 0 0 0 6.91-17.43zm14.25 75a155.63 155.63 0 0 1 -49.31 3.92c-4.47-.35-5.76-2.09-7-6.21 7.35.5 14.79 1 22.29 1a127.05 127.05 0 0 0 41.57-6.56c3-1 1.53-5.81-1.59-4.72a115.21 115.21 0 0 1 -23 5.37c-13.5 1.63-27.36.79-40.81-.1-2.49-8.84-3.78-17.48-.3-23.84 3-5.51 8.59-7.6 15.09-10 6.91-2.58 13.46-5.71 18.33-11.37a43 43 0 0 1 26.56 8.14c2.24 1.64 4.62 1.39 6.11-1a55.92 55.92 0 0 0 6.76-17.48c.94-4.57-.45-7.8-4.47-10.13a51 51 0 0 0 -23.34-7c.69-3.28 1.29-6.61 1.83-9.93a18.49 18.49 0 0 0 16.09 8.44c8.1 0 17-4.27 25.83-12.32 8.54-7.84 15.74-23.24 17.08-36a37.52 37.52 0 0 1 9.83 13.06c5.36 11.77 7 27 4.72 46.68-.5 4-1.64 5.51-5.17 7.3-8.39 4.32-20.41 11.47-27.56 24.28-5.76 10.28-7.1 24.73-16.33 32.73-3.77 3.32-8.78 4.71-13.2 5.81zm423.49-1130.59c-.15 3.23-.15 6.5 0 9.73-.6-.69-1.19-1.44-1.79-2.23-4.62-6.41-7.45-12.86-8.34-19.17a27.91 27.91 0 0 1 .74-11.72 18.49 18.49 0 0 0 11 3.18h.15c-.92 6.3-1.46 13.06-1.76 20.21zm1.39-28.26c-6-.79-11.72-3.82-14.6-9-3.53-6.26-1.29-15.65 5.41-18.28 2.73-1 6.56-1.69 7-4.62.15-1.49-.79-2.83-1.58-4.12a29.44 29.44 0 0 1 -3.18-24.68 27 27 0 0 1 17.72-17.25c8-2.23 16.49-.45 24.49 1.69-1.54 4.12-3 8.44-2.59 12.81.5 5.16 6.11 4.77 7.2 2.68s1-4.62 1.15-7a27 27 0 0 1 42-20.46c4.17 2.83 7.6 6.8 12.31 8.64 7.3 2.83 15.74-.4 23.34 1.49a18.32 18.32 0 0 1 13.56 17.48c-2.43.2-5.12.45-7 2.09s-2.39 5-.3 6.35c1.39 1 3.23.55 4.82.1 7.15-1.89 14.59-4 21.84-2.63 10 1.89 17.63 10 22.75 18.77 2.13 3.58 4 7.45 4.37 11.62s-.8 8.69-3.92 11.42c-2.34 2-5.52 2.93-7.6 5.22s-1.94 7 1.14 7.44c1.54.25 3-.74 4.17-1.68a124.05 124.05 0 0 0 9.39-8.15c11.47 19.77 9.88 45 1 66.05-4.27 10.23-10.68 20.26-20.61 25.22.15-9 .25-18 .4-27.06 0-3.28-.46-11.91-.46-11.91 4.62-5.66 7.11-8.85 7.51-16.15.45-8.64-6.65-17-15.2-17.92s-17.38 5.56-18.87 14.05a28.77 28.77 0 0 1 -11.62-43.55c2-2.63 4.27-6.65 1.69-8.64s-6 1.34-7.79 4.12c-7.5 11-20.41 18-33.37 20.26a33.48 33.48 0 0 1 -12.42-.25 32.48 32.48 0 0 1 -20.51-13.1c-1.34-1.88-3-4.22-5.31-3.87-1.39.25-2.33 1.44-3.28 2.48-5.11 6-11.92 10.38-18.92 14.06-6.35 3.37-13.21 6.3-20.41 6.5a30.91 30.91 0 0 1 -3.72-.17zm9.43 61.28c-.64-2.38-1.14-4.82-1.59-7.3a114.28 114.28 0 0 1 -1.78-25.42 210.67 210.67 0 0 1 1.93-21.41 78.88 78.88 0 0 0 38.64-20.21 34.12 34.12 0 0 0 20.46 14.16c8.44 1.88 21.8 1.73 31.23-3.18a.18.18 0 0 1 .15 0c6.06-3.23 13.86-7.85 14.1-8-.24.25-1.78 12.22-.49 16.14a44.09 44.09 0 0 0 11.42 17.78c3.23 3 9.88 7.35 14.5 6.6 3.28-.49 3.18-2.23 3.87-5 1.09-4.32 3.82-7.3 7.7-9.54 7.6-4.42 13.06 4.82 12.56 11.08-.4 5-4.62 8.59-7.2 12.51-8 12.37-14 12-15.74 11.67-3-.6-4.92 2.19-5.61 4.72-2.43 8.34-6.85 14.75-13.21 19s-14.5 6.5-24.38 6.5c-8.84 0-18.92-1.79-30.19-5.26-10.78-3.33-23.09-6.41-33.52-.25a7.13 7.13 0 0 1 -3.73 1c-6.85.05-14.89-9.43-19.12-15.59zm17.95 19.77v-.14a2.11 2.11 0 0 0 .5 0c.23.28-.5.48-.5.14zm-28.35 26.77a67.15 67.15 0 0 1 1.49-25.23c1.24-5.06 4.56-14.05 4.66-14.4 5.07 6.76 13.81 16.14 23.39 16.14 6.31 0 11.22-4.62 17.73-4.62 6 0 12.27 1.94 17.48 3.53 11.82 3.67 22.64 5.56 32.23 5.56 22.29 0 37.89-10.28 44.14-28.95 3.68-1.14 10.83-3.53 15.45-6.11-.8.45 0 28.51-.75 35.61-1.83 22.89-12.61 38.83-34 49.85-10.43 5.37-21.8 9-33.22 11.67a88.41 88.41 0 0 1 -20 2.09 120.4 120.4 0 0 1 -28.45-3.48 53.21 53.21 0 0 1 -18.8-7.43c-12.73-8.42-19.34-18.95-21.37-34.19zm117.14 42c-3.53 7.05-9.88 16.19-19.52 18.92-5.86 1.69-11.37 3.08-16.29 2.53-21.4-2.33-24.72-10.82-25.22-11.47 4.17.4 8.39.65 12.56.65a94 94 0 0 0 21.65-2.29 179.49 179.49 0 0 0 26.8-8.34zm-298 162.28c.2-.89 1.59-1.59 3.18-1.59a9.39 9.39 0 0 1 1.19.1l18.38 3.83c2.18.44 3.62 2 3.37 3.07l-10.91 52.74c-.15.9-1.54 1.59-3.13 1.59a9.39 9.39 0 0 1 -1.19-.1l-18.38-3.82a5.34 5.34 0 0 1 -2.88-1.59 2.07 2.07 0 0 1 -.54-1.49zm103.24 232a23.46 23.46 0 0 0 -21 3.38l-78.46 58.7a15.7 15.7 0 0 1 -20.31-1.59 14.8 14.8 0 0 1 -4.37-11l1.14-98a22.81 22.81 0 0 0 -9.68-19l-80.1-56.56a15.39 15.39 0 0 1 4.32-27.31l87-27.17a9.32 9.32 0 0 0 2.23 5.47 12.5 12.5 0 0 0 7 4.12s20.22 4.07 21.11 4.07c5.21 0 9.53-3.08 10.43-7.55l10.85-52.61c1.1-5.31-3-10.62-9.18-11.91l-7.6-1.59 15.69-50.65a15.45 15.45 0 0 1 27.36-4.37l56.66 80a23.24 23.24 0 0 0 19 9.63l98.22-1.34c12.47-.15 19.77 14.75 12.37 24.63l-58.55 78.66a22.44 22.44 0 0 0 -4.47 12.06c-7.35 2.29-21 5.51-27.56 3.58-2.48-.75-5.66-1.39-8.34.5-2.93 2-3.58 5.85-3.82 9.33-.4 4.92 8.73 12.86 12.26 14.1a73.35 73.35 0 0 0 8.29 2c-13.7 12.76-41.86 43-33.52 54.92 7.3 9.49 21.56 16.59 35.51 17.68 1.24.1 13 5.36 26.52-8 0 0 11.32-7.79 16.78-11.81l6.61 19.46a15.12 15.12 0 0 1 -2 13.91 15.48 15.48 0 0 1 -17.53 5.71zm72.4-63.71a3.43 3.43 0 0 0 -2.93-2.83c-3-.44-11.47-1.74-14.75-2.93-1.69-.59-6.35-5.06-7.3-7 .2-2.18.15-3.43 2.59-2.73 10.37 3.08 29.44-2.83 33.17-4 10.23-3.33 14.55-3.68 16-3.68l34 41.52c-.15.29-3.13 8.83-13.41 16.83-5.41 4.22-29.69 22.5-36.29 27.71-5.86 4.67-13 6.11-20.41 5.56-11.82-.89-24.19-7-30.1-14.65-4.32-6.16 25.78-41.07 38.09-49.9a3.81 3.81 0 0 0 1.32-3.9zm5.66 665.12-78.65.2a2.52 2.52 0 0 0 -2.49 2.48 2.49 2.49 0 0 0 2.49 2.48l77.76-.15c-.4 2.93-.55 7.35-.65 9.94h-132.55c-.1-2.09-.15-6.36 0-9.64l36.45-.1a2.49 2.49 0 0 0 2.48-2.48 2.45 2.45 0 0 0 -2.48-2.48l-36.06.1c.8-7.3 2.83-15.35 7.55-20.71 3.53-3.92 8-5.86 14-5.86a37.74 37.74 0 0 1 4.61.35 34.53 34.53 0 0 0 5.62.39c6.65 0 14.4-1.44 22.24-3.57a14.53 14.53 0 0 0 5.66 7.6 16.11 16.11 0 0 0 9 2.58c5.41 0 11.12-2.14 16.34-4.47l29.6-13.86a2.49 2.49 0 0 0 1.24-3.27c-.55-1.24-2.09-1.29-5.32-.35l-31.38 14.3c-3.28 1.84-10.83 4.57-16.34.89a9.23 9.23 0 0 1 -3.67-4.81c19-5.76 37.24-14.8 41.76-17l14.2 1.49c4.07 2.08 10.88 5.81 21.5 14.5 2.63 2.18 6.71 3.32 11.72 3.32 10.23 0 25.72-5.16 32.53-16.14a15.65 15.65 0 0 1 2 3 48.21 48.21 0 0 1 3.63 8.4 44.51 44.51 0 0 1 1.39 4.91c-8 2.09-15.49 3.18-21.35 2.43-10.58-1.39-19 1.45-25 8.25-4.17 4.72-6.56 10.97-7.85 17.28zm-29.3-59.69-.64-20.66h58.85l.4 19.67zm71.91 6.21.1 1c-2.88 10.87-18.32 16.83-28.11 16.83-3.18 0-5.76-.59-7.05-1.64a135.71 135.71 0 0 0 -22.44-15.19zm145.7 16.93a47.94 47.94 0 0 1 3.92 8.84 50.45 50.45 0 0 0 -15.64 13c-1.94 2.43 1.93 5.66 3.92 3.08a44.5 44.5 0 0 1 13.21-11.27 100.62 100.62 0 0 1 2.68 27.46l-23 .44a31.44 31.44 0 0 1 2.73-9.48 2.58 2.58 0 0 0 -1.24-3.33 2.52 2.52 0 0 0 -3.28 1.24 33 33 0 0 0 -3.13 11.67l-154.63 3.18a2.51 2.51 0 0 0 -2.44 2.58 2.46 2.46 0 0 0 2.54 2.39l182.19-3.73c-.2 3.53-.55 3.43-.79 5.42l-189.25 5c-.5-7.35-.79-23 7.35-32.38 3.53-4 8.19-6 14.25-6a30.1 30.1 0 0 1 4.12.29c5.47.7 12.12 0 19.12-1.49a19.38 19.38 0 0 0 7.25 6.31 31.74 31.74 0 0 0 15 3.73 32.31 32.31 0 0 0 7.6-.9c6.3-1.59 34.86-16.14 45.33-22.35a142 142 0 0 1 15.65 10.78c2.58 2 6.45 3.13 11.17 3.13 11.57 0 28.55-6.66 34.16-19.32a17.51 17.51 0 0 1 1.19 1.71zm-88.64-22.15-1.29-23.83 69.66-1.74.25 23.74zm80.54 5.32 1 9.58c-2.63 10.78-18.07 17.38-28.25 17.38-2.93 0-5.36-.55-6.61-1.54-17.62-13.8-30-18.42-36.25-20l1-3.68zm-59.09 17.67c-11.77 6.71-36.5 19.12-41.47 20.36a27.14 27.14 0 0 1 -19.11-2.38 16.46 16.46 0 0 1 -4.32-3.23c21.4-5.66 44.69-17.48 50-20.21 1.77.25 6.83 1.34 14.88 5.46zm68.18-25.37-16 .45-.25-23.79 16.44-.4zm.2-28.7-16.54.39-5-471.3c2.53.25 5.11.35 7.69.35a155.15 155.15 0 0 0 17.33-1.19zm3.52-479.15a2.66 2.66 0 0 0 -.89 0 124.69 124.69 0 0 1 -18.72 1.09c-7-.2-13.86-1.24-20.16-4a41 41 0 0 1 -20.61-20.11c-1.49-3.18-3.87-8.39-5.41-11.77-2-4.37-8.69-1.24-6.76 3.08 1.54 3.42 3.93 8.64 5.42 11.82a48.65 48.65 0 0 0 24.38 23.83 55.67 55.67 0 0 0 12.71 3.73l5 472-69.87 1.8-23-427.55a3.68 3.68 0 0 0 -.49-1.89c-.2-.35-19.57-33-22.3-47.82a3.73 3.73 0 0 0 -4.37-3 3.78 3.78 0 0 0 -3 4.32c2.78 15 19.67 44.2 22.75 49.46l2 37.54a3.58 3.58 0 0 0 -.79 2s-12.57 142.81-12.62 143.46c-.39 4.77 7.06 5.51 7.4.64l8.59-97.62 20 373.28a3.69 3.69 0 0 0 3.82 3.47l7.15-.2-1.14 3.93c-5.12 2.63-23.14 11.72-40.92 17.38a59.52 59.52 0 0 0 -5.66-14.8 20 20 0 0 0 -5.51-6.81c0-.24 0-1.88 0-1.88l7.65-.15a3.72 3.72 0 0 0 3.62-3.68s1.84-248.68 1.84-249.53c0-4.76-7.45-4.86-7.45 0l-1.79 245.86-19.66.35-.35-19.57h11.12a2.45 2.45 0 0 0 2.48-2.48 2.49 2.49 0 0 0 -2.48-2.48h-11.22s-7-374.87-7-376c0-3.23-5.07-3.13-5 .1l7 375.86h-59l-16.09-497.43 58.65 19.82a23 23 0 0 0 26-8.44 22.61 22.61 0 0 0 3-20.61l-7.45-21.8c2.13-1.64 4.22-3.33 6.26-5h153.14zm4-79.15-.4 1.78v20.06h-147.87c5.36-5 9.58-9.73 11.82-13.85l.89 1.14a3.67 3.67 0 0 0 4.52 1l12.21-5.85h108.8c3.18 0 3.23-5 0-5h-98.47l128.39-61.56c-.57 16.9-8.76 42.16-19.88 62.28zm34-77.32-165.56 79.45-38.09-47.32 13-6.91 30.49 35.91c2.09 2.53 5.91-.75 3.78-3.23l-29.8-35.06 123.65-65.65c8.64 1.34 17.73 1.24 25.58 5.61 4.12 2.29 7.79-4.12 3.62-6.55a40.26 40.26 0 0 0 -13.46-4.52c-1.14-.2-13.16-1-13.35-1.74 0 0-26.62-104.87-26.67-105.12-1.19-4.62-8.44-2.83-7.25 1.83l26.57 104.68-143.62 76.28a3.6 3.6 0 0 0 -1.79 2.23 59.42 59.42 0 0 0 -8.54 1.74 14.21 14.21 0 0 1 2.48-5.21s58.5-78.51 58.55-78.61a23.14 23.14 0 0 0 -6.36-33.17 23.48 23.48 0 0 0 -12.32-3.38l-90.37 1.24c6.65-54.28 15.64-95 24.23-109.35a3.72 3.72 0 0 0 -6.41-3.77c-12.86 21.55-21.75 84-25.32 113.22h-.35a15.44 15.44 0 0 1 -12.56-6.5l-21.9-30.84-.3-.45c5-16.29 11.67-36.25 19-55.47.84-2.23 7.75-19.56 9.49-23.44s8.09-17.33 8.59-18.32c7.54-15 15.14-26.07 21.65-29.35.1-.1 23.43-10.87 49.46-14.94a81.36 81.36 0 0 0 8 2.63c.65 17 16.19 28.25 30.24 32.82a49.23 49.23 0 0 0 15.3 2.34c18.67 0 38.43-9.49 49.51-25 1.78-2.53-2.14-5.46-4-2.88-13 18.27-39 27.41-59.24 20.85-12.06-3.87-25.22-13.06-26.71-26.81 1.88.45 3.87.84 5.86 1.19a37.85 37.85 0 0 0 5.66 8.24c5 5.47 14.1 12 29.14 12a66.1 66.1 0 0 0 18.33-2.83c14.9-4.22 23-19.46 26.42-27.61l72.1 25.77a13.37 13.37 0 0 1 8.84 11.77c0 .25 43.35 182.35 43.35 182.35 4.84 23.23 4.59 35.99-18.95 51.88z" fill="#2b2150"/></svg>